*
G04 Job   : C:\MGTraining\projects\DEMO\PCB\DEMO.pcb*
G04 User  : FLO-JOES-LT2:joes*
G04 Layer : EtchLayer5.gdo*
G04 Date  : Thu Jan 24 16:50:33 2008*
%ICAS*%
%MOIN*%
%FSLAX24Y24*%
%OFA0.0000B0.0000*%
G90*
G74*
%ADD10C,0.00800*%
%ADD11C,0.01000*%
%ADD13C,0.02500*%
%ADD12C,0.04000*%
%ADD16C,0.06500*%
%ADD15C,0.07300*%
%ADD14C,0.17300*%
G01*
G54D10*
X-1295Y10500D02*
X-1050Y10745D01*
Y11101*
X-1199Y11250*
X-1391*
X-1540Y11399*
Y12101*
X-1391Y12250*
X626*
X1121Y12745*
X3101*
X3346Y12500*
X7000*
X-1295Y11000D02*
X-1540D01*
X-1700Y11160*
Y12441*
X-1391Y12750*
X881*
X1131Y13000*
X6000*
X-1295Y12000D02*
X6500D01*
X-1295Y14500D02*
X1740D01*
X1985Y14255*
X6101*
X6150Y14304*
X9126*
X9134Y14312*
X10736*
X10868Y14180*
X12079*
X12164Y14265*
X16138*
X17909Y16035*
X18382*
X19245Y16899*
Y18005*
X18500Y18750*
X-1295Y16000D02*
X1740D01*
X1985Y16245*
X3745*
X3810Y16180*
X5633*
X5698Y16245*
X10851*
X10916Y16180*
X17827*
X17897Y16250*
X18250*
X19000Y17000*
X-1295Y16500D02*
X1154D01*
X1399Y16745*
X1872*
X2042Y16575*
X4502*
X4748Y16820*
X9752*
X9998Y16575*
X15002*
X15428Y17000*
X17500*
X-1295Y17500D02*
X619D01*
X1119Y18000*
X18000*
X-1295D02*
X-958Y18338D01*
X17588*
X19000Y19750*
X19925*
X20823Y20649*
Y20851*
X19425Y22250*
X18500*
X500Y8250D02*
X945Y7805D01*
X4805*
X5000Y8000*
X697Y19500D02*
X9096D01*
X9310Y19714*
X18464*
X4500Y11250D02*
X4975Y11725D01*
X6725*
X7000Y12000*
X16000*
X5500Y8250D02*
X4750Y9000D01*
X2000*
X6000Y13500D02*
X5673Y13173D01*
X1078*
X905Y13000*
X-1295*
X6500Y11250D02*
X7000Y11750D01*
X16641*
X18258Y13367*
Y13888*
X17930Y14217*
Y14738*
X18000Y14808*
Y15780*
X8500Y14059D02*
X6406D01*
X6096Y13750*
X5750*
X5500Y13500*
X9000Y19750D02*
X3000D01*
X9000Y20750D02*
X3000D01*
X9000Y21750D02*
X6846D01*
X6601Y21995*
X6399*
X6154Y21750*
X3000*
X12500Y20250D02*
X6500D01*
X12500Y21250D02*
X6500D01*
X12500Y22250D02*
X10348D01*
X10133Y22035*
X9867*
X9652Y22250*
X6500*
X15000Y20750D02*
X9000D01*
X15000Y21750D02*
X9000D01*
X17000Y23750D02*
X16827Y23923D01*
X11871*
X11799Y23995*
X10245*
X9755Y23505*
X8727*
X8482Y23750*
X5000*
X18500Y17500D02*
X12066D01*
X11688Y17122*
X6562*
X6469Y17215*
X2455*
X2240Y17000*
X-1295*
X20578Y20750D02*
X18846D01*
X18601Y20505*
X18399*
X18154Y20750*
X15000*
X22922Y23750D02*
X17346D01*
X17101Y23505*
X16899*
X16654Y23750*
X11172*
X28750Y4250D02*
X29174Y4674D01*
Y4741*
X25480Y8435*
X16945*
X14435Y10945*
X8796*
X8428Y10577*
X3057*
X2940Y10694*
Y10810*
X2500Y11250*
X29750Y5250D02*
X29326Y4826D01*
X29259*
X25530Y8555*
X16995*
X14485Y11065*
X8746*
X8378Y10697*
X3107*
X3060Y10744*
Y10810*
X3500Y11250*
G54D11*
X4474Y3741D02*
X3233Y2500D01*
X5750Y5017D02*
X5250Y4517D01*
X5150*
X5024Y4644*
X4924*
X4847Y4567*
Y4467*
X4974Y4341*
Y4241*
X4474Y3741*
X9000Y2500D02*
X12000D01*
X9000D02*
X7543D01*
X6543Y1500*
X9000Y3500D02*
X7543D01*
X6543Y2500*
X9000Y3500D02*
X12000D01*
X9000Y4500D02*
X7543D01*
X6543Y3500*
X9000Y5500D02*
X7543D01*
X6543Y4500*
X9000Y5500D02*
X12000D01*
X9000Y6500D02*
X7233D01*
X5750Y5017*
X9000Y6500D02*
X12000D01*
X9000Y7500D02*
X4872D01*
X2978Y5606*
Y3755*
X3233Y3500*
X9000Y8500D02*
X12000D01*
X9000Y9500D02*
X12000D01*
X9205Y4500D02*
X9000D01*
X9205Y7500D02*
X9000D01*
X10596D02*
X10096D01*
X10026Y7571*
Y7867*
X9955Y7938*
X9846*
X9776Y7867*
Y7571*
X9705Y7500*
X9205*
X11346Y4500D02*
X10846D01*
X10776Y4429*
Y4133*
X10705Y4062*
X10596*
X10526Y4133*
Y4867*
X10455Y4938*
X10346*
X10276Y4867*
Y4133*
X10205Y4062*
X10096*
X10026Y4133*
Y4867*
X9955Y4938*
X9846*
X9776Y4867*
Y4571*
X9705Y4500*
X9205*
X12000D02*
X11346D01*
X12000Y7500D02*
X10596D01*
X12000Y9500D02*
X13000D01*
G54D12*
X-1220Y7500D03*
Y8500D03*
X1134Y4950D03*
Y6050D03*
X1550Y10384D03*
X2903Y18750D03*
X3308Y1500D03*
X3438Y13500D03*
X3750Y14605D03*
Y16895D03*
X4000Y22355D03*
Y24645D03*
X4250Y3984D03*
Y6411D03*
X5192Y6000D03*
X5500Y16500D03*
X6523Y24250D03*
X8392Y15500D03*
X8903Y18750D03*
X10000Y22355D03*
Y24645D03*
X11692Y14500D03*
Y15500D03*
X12465Y5000D03*
X12523Y24250D03*
X13000Y3820D03*
X13500Y4080D03*
X13938Y13500D03*
X14250Y14605D03*
Y16895D03*
X14903Y18750D03*
X14938Y1935D03*
Y7500D03*
X15250Y3105D03*
Y5830D03*
X15255Y7935D03*
X15305Y10895D03*
X16000Y16500D03*
Y22355D03*
Y24645D03*
X17000Y5000D03*
Y10500D03*
X17938Y13500D03*
X18200Y4616D03*
X18250Y14605D03*
Y16895D03*
X18523Y24250D03*
X18835Y1227D03*
Y6727D03*
X20000Y16500D03*
X20653Y18750D03*
X21750Y22355D03*
Y24645D03*
X23500Y5855D03*
X24273Y24250D03*
X24500Y12855D03*
X25355Y22250D03*
X27645D03*
X27750Y3668D03*
G54D13*
X-1295Y10500D03*
Y11000D03*
Y11500D03*
Y12000D03*
Y12500D03*
Y13000D03*
Y14500D03*
Y16000D03*
Y16500D03*
Y17000D03*
Y17500D03*
Y18000D03*
X-847Y11245D03*
Y13745D03*
Y15245D03*
Y15745D03*
X0Y18000D03*
X320Y19340D03*
Y20000D03*
X697Y19500D03*
X1500Y16500D03*
Y20000D03*
X1687Y15743D03*
X1957Y3000D03*
X2000Y9000D03*
Y11500D03*
X2087Y14500D03*
Y15040D03*
Y16000D03*
X2410Y16823D03*
X3000Y12500D03*
Y19750D03*
Y20750D03*
Y21750D03*
X3233Y2500D03*
Y3500D03*
Y4500D03*
Y5500D03*
X4500Y2000D03*
X5000Y23750D03*
Y8000D03*
X5267Y4000D03*
X5475Y15405D03*
X5500Y13500D03*
X5799Y16000D03*
X6000Y13000D03*
Y13500D03*
Y14000D03*
X6500Y12000D03*
Y18750D03*
Y19250D03*
Y20250D03*
Y21250D03*
Y21750D03*
Y22250D03*
X6543Y1500D03*
Y2500D03*
Y3500D03*
Y4000D03*
Y4500D03*
X7000Y12500D03*
X7833Y12979D03*
X8210Y17381D03*
X8317Y14549D03*
X8500Y14059D03*
X8828Y23750D03*
Y24250D03*
X9000Y19750D03*
Y20750D03*
Y21750D03*
X9250Y17367D03*
X9943Y14067D03*
X11172Y23750D03*
X12250Y9000D03*
X12500Y14000D03*
Y8000D03*
Y20250D03*
Y21250D03*
Y22250D03*
Y25000D03*
X12577Y15500D03*
X13000Y9500D03*
X13010Y3255D03*
X13587Y9500D03*
Y10000D03*
X14828Y24250D03*
X15000Y8500D03*
Y20750D03*
Y21750D03*
X15500Y7500D03*
X16000Y12000D03*
Y13500D03*
Y14000D03*
Y15000D03*
X16500Y15500D03*
X16505Y24505D03*
X16587Y16500D03*
X17000Y23750D03*
Y9500D03*
Y23000D03*
X17089Y24130D03*
X17500Y9000D03*
Y17000D03*
X18000Y15780D03*
Y18000D03*
X18464Y19714D03*
Y21214D03*
Y21714D03*
X18500Y17500D03*
Y18750D03*
Y20250D03*
Y20750D03*
Y22250D03*
X19000Y17000D03*
X19300Y4691D03*
X19913Y13500D03*
Y14500D03*
X20500Y15070D03*
X20578Y20750D03*
X20603Y12372D03*
X22500Y15070D03*
X22922Y23750D03*
X27750Y5257D03*
G54D14*
X27560Y9900D03*
Y19740D03*
G54D15*
X27000Y12640D03*
Y13730D03*
Y14820D03*
Y15910D03*
Y17000D03*
X28120Y13185D03*
Y14275D03*
Y15365D03*
Y16455D03*
G54D16*
X500Y8250D03*
Y11250D03*
X1500Y8250D03*
Y11250D03*
X2500Y8250D03*
Y11250D03*
X3500Y8250D03*
Y11250D03*
X4500Y8250D03*
Y11250D03*
X5500Y8250D03*
Y11250D03*
X6500Y8250D03*
Y11250D03*
X7500Y8250D03*
Y11250D03*
X9000Y1500D03*
Y2500D03*
Y3500D03*
Y4500D03*
Y5500D03*
Y6500D03*
Y7500D03*
Y8500D03*
Y9500D03*
Y10500D03*
X12000Y1500D03*
Y2500D03*
Y3500D03*
Y4500D03*
Y5500D03*
Y6500D03*
Y7500D03*
Y8500D03*
Y9500D03*
Y10500D03*
X18500Y2040D03*
Y3960D03*
X21500Y9000D03*
Y12000D03*
X22500Y9000D03*
Y12000D03*
X23500Y9000D03*
Y12000D03*
X24500Y9000D03*
Y12000D03*
X28750Y4250D03*
Y6250D03*
X29750Y5250D03*
M02*
