*
G04 Job   : C:\MGTraining\projects\DEMO\PCB\DEMO.pcb*
G04 User  : FLO-JOES-LT2:joes*
G04 Layer : EtchLayer4.gdo*
G04 Date  : Thu Jan 24 16:50:33 2008*
G04 VeriBest Example Gerber Output Definition*
%ICAS*%
%MOIN*%
%FSLAX24Y24*%
%OFA0.0000B0.0000*%
G90*
G74*
%ADD10C,0.00700*%
%ADD11C,0.01000*%
%ADD12C,0.01100*%
%ADD14C,0.02500*%
%ADD13C,0.04000*%
%ADD17C,0.06500*%
%ADD16C,0.07300*%
%ADD15C,0.17300*%
G01*
G36*
X-3500Y18030D02*
G02X-3491Y18052I30D01*
G01X-3302Y18241*
G02X-3280Y18250I22J21*
G01X-1620*
G03X-1520Y18254J1120*
G01Y18000*
G03X-1357Y17784I225*
G02X-1335Y17755I8J29*
G01Y17745*
G02X-1357Y17716I30*
G03X-1520Y17500I62J216*
X-1357Y17284I225*
G02X-1335Y17255I8J29*
G01Y17245*
G02X-1357Y17216I30*
G03X-1520Y17000I62J216*
X-1357Y16784I225*
G02X-1335Y16755I8J29*
G01Y16745*
G02X-1357Y16716I30*
G03X-1520Y16500I62J216*
X-1357Y16284I225*
G02X-1335Y16255I8J29*
G01Y16245*
G02X-1357Y16216I30*
G03X-1520Y16000I62J216*
G01Y13000*
G03X-1357Y12784I225*
G02X-1335Y12755I8J29*
G01Y12745*
G02X-1357Y12716I30*
G03X-1520Y12500I62J216*
X-1357Y12284I225*
G02X-1335Y12255I8J29*
G01Y12245*
G02X-1357Y12216I30*
G03X-1520Y12000I62J216*
X-1357Y11784I225*
G02X-1335Y11755I8J29*
G01Y11745*
G02X-1357Y11716I30*
G03X-1520Y11500I62J216*
X-1357Y11284I225*
G02X-1335Y11255I8J29*
G01Y11245*
G02X-1357Y11216I30*
G03X-1520Y11000I62J216*
X-1357Y10784I225*
G02X-1335Y10755I8J29*
G01Y10745*
G02X-1357Y10716I30*
G03X-1520Y10500I62J216*
X-1490Y10388I225*
G01Y8500*
G03X-1220Y8230I270*
X-950Y8500J270*
X-1220Y8770I270*
X-1490Y8500J270*
G01Y10388*
G03X-1295Y10275I195J112*
X-1070Y10500J225*
X-1233Y10716I225*
G02X-1255Y10745I8J29*
G01Y10755*
G02X-1233Y10784I30*
G03X-1070Y11000I62J216*
X-1233Y11216I225*
G02X-1255Y11245I8J29*
G01Y11255*
G02X-1233Y11284I30*
G03X-1072Y11470I62J216*
G01Y11245*
G03X-847Y11020I225*
X-622Y11245J225*
X-847Y11470I225*
X-1072Y11245J225*
G01Y11470*
G03X-1070Y11500I223J30*
X-1233Y11716I225*
G02X-1255Y11745I8J29*
G01Y11755*
G02X-1233Y11784I30*
G03X-1070Y12000I62J216*
X-1233Y12216I225*
G02X-1255Y12245I8J29*
G01Y12255*
G02X-1233Y12284I30*
G03X-1070Y12500I62J216*
X-1233Y12716I225*
G02X-1255Y12745I8J29*
G01Y12755*
G02X-1233Y12784I30*
G03X-1070Y13000I62J216*
X-1295Y13225I225*
X-1520Y13000J225*
G01Y14500*
G03X-1295Y14275I225*
X-1072Y14470J225*
G01Y13745*
G03X-847Y13520I225*
X-622Y13745J225*
X-847Y13970I225*
X-1072Y13745J225*
G01Y14470*
G03X-1070Y14500I223J30*
X-1295Y14725I225*
X-1520Y14500J225*
G01Y16000*
G03X-1295Y15775I225*
X-1072Y15970J225*
G01Y15745*
G03X-909Y15529I225*
G02X-887Y15500I8J29*
G01Y15490*
G02X-909Y15461I30*
G03X-1072Y15245I62J216*
X-847Y15020I225*
X-622Y15245J225*
X-785Y15461I225*
G02X-807Y15490I8J29*
G01Y15500*
G02X-785Y15529I30*
G03X-622Y15745I62J216*
X-847Y15970I225*
X-1072Y15745J225*
G01Y15970*
G03X-1070Y16000I223J30*
X-1233Y16216I225*
G02X-1255Y16245I8J29*
G01Y16255*
G02X-1233Y16284I30*
G03X-1070Y16500I62J216*
X-1233Y16716I225*
G02X-1255Y16745I8J29*
G01Y16755*
G02X-1233Y16784I30*
G03X-1070Y17000I62J216*
X-1233Y17216I225*
G02X-1255Y17245I8J29*
G01Y17255*
G02X-1233Y17284I30*
G03X-1070Y17500I62J216*
X-1233Y17716I225*
G02X-1255Y17745I8J29*
G01Y17755*
G02X-1233Y17784I30*
G03X-1070Y18000I62J216*
X-1295Y18225I225*
X-1520Y18000J225*
G01Y18254*
G03X-500Y19370I100J1116*
G01Y25234*
G02X-470Y25264I30*
X-444Y25249J30*
G03X-225Y25042I444J251*
G01Y18000*
G03X0Y17775I225*
X75Y17788J225*
G01Y8250*
G03X500Y7825I425*
X834Y7988J425*
G01Y6050*
G03X864Y5919I300*
G01Y4950*
G03X1134Y4680I270*
X1404Y4950J270*
X1134Y5220I270*
X864Y4950J270*
G01Y5919*
G03X1134Y5750I270J131*
X1434Y6050J300*
X1134Y6350I300*
X834Y6050J300*
G01Y7988*
G03X925Y8250I334J262*
X500Y8675I425*
X75Y8250J425*
G01Y11250*
G03X500Y10825I425*
X925Y11250J425*
X500Y11675I425*
X75Y11250J425*
G01Y17788*
G03X225Y18000I75J212*
X0Y18225I225*
X-225Y18000J225*
G01Y25042*
G03X0Y24990I225J458*
X95Y24999J510*
G01Y19340*
G03X320Y19115I225*
X539Y19287J225*
G02X568Y19310I29J7*
X583Y19306J30*
G03X697Y19275I114J194*
X922Y19500J225*
X697Y19725I225*
X479Y19553J225*
G02X449Y19530I30J7*
X434Y19534J30*
G03X320Y19565I114J194*
X95Y19340J225*
G01Y20000*
G03X320Y19775I225*
X545Y20000J225*
X320Y20225I225*
X95Y20000J225*
G01Y24999*
G03X509Y25472I95J501*
G02X539Y25500I30J2*
G01X1075*
Y8250*
G03X1500Y7825I425*
X1732Y7894J425*
G01Y3000*
G03X1957Y2775I225*
X2182Y3000J225*
X1957Y3225I225*
X1732Y3000J225*
G01Y7894*
G03X1925Y8250I232J356*
X1500Y8675I425*
X1075Y8250J425*
G01Y11250*
G03X1250Y10906I425*
G01Y10384*
G03X1550Y10084I300*
X1775Y10186J300*
G01Y9000*
G03X2000Y8775I225*
X2075Y8788J225*
G01Y8250*
G03X2500Y7825I425*
X2925Y8250J425*
X2500Y8675I425*
X2075Y8250J425*
G01Y8788*
G03X2225Y9000I75J212*
X2000Y9225I225*
X1775Y9000J225*
G01Y10186*
G03X1850Y10384I225J198*
X1550Y10684I300*
X1250Y10384J300*
G01Y10906*
G03X1500Y10825I250J344*
X1925Y11249J425*
G02X1955Y11279I30*
X1960J30*
G03X2000Y11275I40J221*
X2040Y11279J225*
G02X2045I5J30*
X2075Y11249J30*
G03X2500Y10825I425J1*
X2925Y11250J425*
X2500Y11675I425*
X2246Y11591J425*
G02X2228Y11585I18J24*
X2201Y11601J30*
G03X2000Y11725I201J101*
X1799Y11601J225*
G02X1772Y11585I27J14*
X1754Y11591J30*
G03X1500Y11675I254J341*
X1075Y11250J425*
G01Y25500*
X1275*
Y16500*
G03X1462Y16278I225*
G01Y15743*
G03X1687Y15518I225*
X1862Y15601J225*
G01Y14500*
G03X2087Y14275I225*
X2312Y14500J225*
X2087Y14725I225*
X1862Y14500J225*
G01Y15040*
G03X2087Y14815I225*
X2312Y15040J225*
X2087Y15265I225*
X1862Y15040J225*
G01Y15601*
G03X1912Y15743I175J142*
X1908Y15788I225*
G02X1907Y15794I29J6*
X1937Y15824I30*
X1955Y15818J30*
G03X2087Y15775I132J182*
X2312Y16000J225*
X2087Y16225I225*
X1862Y16000J225*
X1867Y15955I225*
G02Y15949I30J6*
X1837Y15919I30*
X1819Y15925J30*
G03X1687Y15968I132J182*
X1462Y15743J225*
G01Y16278*
G03X1500Y16275I38J222*
X1725Y16500J225*
X1500Y16725I225*
X1275Y16500J225*
G01Y20000*
G03X1500Y19775I225*
X1725Y20000J225*
X1500Y20225I225*
X1275Y20000J225*
G01Y25500*
X2185*
Y16823*
G03X2410Y16598I225*
X2635Y16823J225*
X2410Y17048I225*
X2185Y16823J225*
G01Y25500*
X2603*
Y18750*
G03X2775Y18479I300*
G01Y12500*
G03X3000Y12275I225*
X3008J225*
G01Y1500*
G03X3308Y1200I300*
X3608Y1500J300*
X3308Y1800I300*
X3008Y1500J300*
G01Y2500*
G03X3233Y2275I225*
X3458Y2500J225*
X3233Y2725I225*
X3008Y2500J225*
G01Y3500*
G03X3233Y3275I225*
X3458Y3500J225*
X3233Y3725I225*
X3008Y3500J225*
G01Y4500*
G03X3233Y4275I225*
X3458Y4500J225*
X3233Y4725I225*
X3008Y4500J225*
G01Y5500*
G03X3233Y5275I225*
X3458Y5500J225*
X3233Y5725I225*
X3008Y5500J225*
G01Y12275*
G03X3075Y12288I8J225*
G01Y8250*
G03X3500Y7825I425*
X3925Y8250J425*
X3500Y8675I425*
X3075Y8250J425*
G01Y11250*
G03X3500Y10825I425*
X3925Y11250J425*
X3500Y11675I425*
X3075Y11250J425*
G01Y12288*
G03X3225Y12500I75J212*
X3000Y12725I225*
X2775Y12500J225*
G01Y18479*
G03X2903Y18450I128J271*
X3138Y18564J300*
G01Y13500*
G03X3438Y13200I300*
X3738Y13500J300*
X3438Y13800I300*
X3138Y13500J300*
G01Y18564*
G03X3203Y18750I235J186*
X2903Y19050I300*
X2603Y18750J300*
G01Y25500*
X2775*
Y19750*
G03X3000Y19525I225*
X3225Y19750J225*
X3000Y19975I225*
X2775Y19750J225*
G01Y20750*
G03X3000Y20525I225*
X3225Y20750J225*
X3000Y20975I225*
X2775Y20750J225*
G01Y21750*
G03X3000Y21525I225*
X3225Y21750J225*
X3000Y21975I225*
X2775Y21750J225*
G01Y25500*
X3450*
Y14605*
G03X3750Y14305I300*
X3950Y14381J300*
G01Y6411*
G03X3980Y6280I300*
G01Y3984*
G03X4250Y3714I270*
X4275Y3715J270*
G01Y2000*
G03X4500Y1775I225*
X4725Y2000J225*
X4500Y2225I225*
X4275Y2000J225*
G01Y3715*
G03X4520Y3984I25J269*
X4250Y4254I270*
X3980Y3984J270*
G01Y6280*
G03X4250Y6111I270J131*
X4550Y6411J300*
X4250Y6711I300*
X3950Y6411J300*
G01Y14381*
G03X4050Y14605I200J224*
X3750Y14905I300*
X3450Y14605J300*
G01Y25500*
X3480*
Y16895*
G03X3750Y16625I270*
X4020Y16895J270*
X3750Y17165I270*
X3480Y16895J270*
G01Y25500*
X3700*
Y22355*
G03X4000Y22055I300*
X4075Y22065J300*
G01Y8250*
G03X4500Y7825I425*
X4754Y7909J425*
G02X4772Y7915I18J24*
X4799Y7899J30*
G03X4922Y7789I201J101*
G01Y6000*
G03X5042Y5776I270*
G01Y4000*
G03X5267Y3775I225*
X5492Y4000J225*
X5267Y4225I225*
X5042Y4000J225*
G01Y5776*
G03X5192Y5730I150J224*
X5462Y6000J270*
X5192Y6270I270*
X4922Y6000J270*
G01Y7789*
G03X5000Y7775I78J211*
X5201Y7899J225*
G02X5228Y7915I27J14*
X5246Y7909J30*
G03X5500Y7825I254J341*
X5925Y8250J425*
X5500Y8675I425*
X5075Y8251J425*
G02X5045Y8221I30*
X5040J30*
G03X5000Y8225I40J221*
X4960Y8221J225*
G02X4955I5J30*
X4925Y8251J30*
G03X4500Y8675I425J1*
X4075Y8250J425*
G01Y11250*
G03X4500Y10825I425*
X4925Y11250J425*
X4500Y11675I425*
X4075Y11250J425*
G01Y22065*
G03X4300Y22355I75J290*
X4000Y22655I300*
X3700Y22355J300*
G01Y25500*
X3730*
Y24645*
G03X4000Y24375I270*
X4270Y24645J270*
X4000Y24915I270*
X3730Y24645J270*
G01Y25500*
X4775*
Y23750*
G03X5000Y23525I225*
X5075Y23538J225*
G01Y11250*
G03X5500Y10825I425*
X5925Y11250J425*
X5500Y11675I425*
X5075Y11250J425*
G01Y23538*
G03X5225Y23750I75J212*
X5000Y23975I225*
X4775Y23750J225*
G01Y25500*
X5230*
Y16500*
G03X5250Y16399I270*
G01Y15405*
G03X5275Y15302I225*
G01Y13500*
G03X5500Y13275I225*
X5716Y13438J225*
G02X5745Y13460I29J8*
G01X5755*
G02X5784Y13438J30*
G03X5938Y13284I216J62*
G02X5960Y13255I8J29*
G01Y13245*
G02X5938Y13216I30*
G03X5775Y13000I62J216*
X6000Y12775I225*
X6075Y12788J225*
G01Y8250*
G03X6318Y7866I425*
G01Y4500*
G03X6481Y4284I225*
G02X6503Y4255I8J29*
G01Y4245*
G02X6481Y4216I30*
G03X6318Y4000I62J216*
X6481Y3784I225*
G02X6503Y3755I8J29*
G01Y3745*
G02X6481Y3716I30*
G03X6318Y3500I62J216*
G01Y1500*
G03X6543Y1275I225*
X6768Y1500J225*
X6543Y1725I225*
X6318Y1500J225*
G01Y2500*
G03X6543Y2275I225*
X6768Y2500J225*
X6543Y2725I225*
X6318Y2500J225*
G01Y3500*
G03X6543Y3275I225*
X6768Y3500J225*
X6605Y3716I225*
G02X6583Y3745I8J29*
G01Y3755*
G02X6605Y3784I30*
G03X6768Y4000I62J216*
X6605Y4216I225*
G02X6583Y4245I8J29*
G01Y4255*
G02X6605Y4284I30*
G03X6768Y4500I62J216*
X6543Y4725I225*
X6318Y4500J225*
G01Y7866*
G03X6500Y7825I182J384*
X6925Y8250J425*
X6500Y8675I425*
X6075Y8250J425*
G01Y11250*
G03X6500Y10825I425*
X6925Y11250J425*
X6500Y11675I425*
X6075Y11250J425*
G01Y12788*
G03X6225Y13000I75J212*
X6062Y13216I225*
G02X6040Y13245I8J29*
G01Y13255*
G02X6062Y13284I30*
G03X6225Y13500I62J216*
X6062Y13716I225*
G02X6040Y13745I8J29*
G01Y13755*
G02X6062Y13784I30*
G03X6225Y14000I62J216*
X6000Y14225I225*
X5775Y14000J225*
X5938Y13784I225*
G02X5960Y13755I8J29*
G01Y13745*
G02X5938Y13716I30*
G03X5784Y13562I62J216*
G02X5755Y13540I29J8*
G01X5745*
G02X5716Y13562J30*
G03X5500Y13725I216J62*
X5275Y13500J225*
G01Y15302*
G03X5475Y15180I200J103*
X5700Y15405J225*
X5475Y15630I225*
X5250Y15405J225*
G01Y16399*
G03X5500Y16230I250J101*
X5574Y16240J270*
G01Y16000*
G03X5799Y15775I225*
X6024Y16000J225*
X5799Y16225I225*
X5574Y16000J225*
G01Y16240*
G03X5770Y16500I74J260*
X5500Y16770I270*
X5230Y16500J270*
G01Y25500*
X6253*
Y24250*
G03X6275Y24143I270*
G01Y22250*
G03X6438Y22034I225*
G02X6460Y22005I8J29*
G01Y21995*
G02X6438Y21966I30*
G03X6275Y21750I62J216*
X6438Y21534I225*
G02X6460Y21505I8J29*
G01Y21495*
G02X6438Y21466I30*
G03X6275Y21250I62J216*
G01Y19250*
G03X6438Y19034I225*
G02X6460Y19005I8J29*
G01Y18995*
G02X6438Y18966I30*
G03X6275Y18750I62J216*
G01Y12000*
G03X6500Y11775I225*
X6725Y12000J225*
X6500Y12225I225*
X6275Y12000J225*
G01Y18750*
G03X6500Y18525I225*
X6725Y18750J225*
X6562Y18966I225*
G02X6540Y18995I8J29*
G01Y19005*
G02X6562Y19034I30*
G03X6725Y19250I62J216*
X6500Y19475I225*
X6275Y19250J225*
G01Y20250*
G03X6500Y20025I225*
X6725Y20250J225*
X6500Y20475I225*
X6275Y20250J225*
G01Y21250*
G03X6500Y21025I225*
X6725Y21250J225*
X6562Y21466I225*
G02X6540Y21495I8J29*
G01Y21505*
G02X6562Y21534I30*
G03X6725Y21750I62J216*
X6562Y21966I225*
G02X6540Y21995I8J29*
G01Y22005*
G02X6562Y22034I30*
G03X6725Y22250I62J216*
X6500Y22475I225*
X6275Y22250J225*
G01Y24143*
G03X6523Y23980I248J107*
X6775Y24153J270*
G01Y12500*
G03X7000Y12275I225*
X7075Y12288J225*
G01Y8250*
G03X7500Y7825I425*
X7925Y8250J425*
X7500Y8675I425*
X7075Y8250J425*
G01Y11250*
G03X7500Y10825I425*
X7925Y11250J425*
X7500Y11675I425*
X7075Y11250J425*
G01Y12288*
G03X7225Y12500I75J212*
X7000Y12725I225*
X6775Y12500J225*
G01Y24153*
G03X6793Y24250I252J97*
X6523Y24520I270*
X6253Y24250J270*
G01Y25500*
X7608*
Y12979*
G03X7833Y12754I225*
X8058Y12979J225*
X7833Y13204I225*
X7608Y12979J225*
G01Y25500*
X7985*
Y17381*
G03X8092Y17190I225*
G01Y14549*
G03X8275Y14328I225*
G01Y14059*
G03X8500Y13834I225*
X8575Y13847J225*
G01Y1500*
G03X9000Y1075I425*
X9425Y1500J425*
X9000Y1925I425*
X8575Y1500J425*
G01Y2500*
G03X9000Y2075I425*
X9425Y2500J425*
X9000Y2925I425*
X8575Y2500J425*
G01Y3500*
G03X9000Y3075I425*
X9425Y3500J425*
X9000Y3925I425*
X8575Y3500J425*
G01Y4500*
G03X9000Y4075I425*
X9425Y4500J425*
X9000Y4925I425*
X8575Y4500J425*
G01Y5500*
G03X9000Y5075I425*
X9425Y5500J425*
X9000Y5925I425*
X8575Y5500J425*
G01Y6500*
G03X9000Y6075I425*
X9425Y6500J425*
X9000Y6925I425*
X8575Y6500J425*
G01Y7500*
G03X9000Y7075I425*
X9425Y7500J425*
X9000Y7925I425*
X8575Y7500J425*
G01Y8500*
G03X9000Y8075I425*
X9425Y8500J425*
X9000Y8925I425*
X8575Y8500J425*
G01Y9500*
G03X9000Y9075I425*
X9425Y9500J425*
X9000Y9925I425*
X8575Y9500J425*
G01Y10500*
G03X9000Y10075I425*
X9425Y10500J425*
X9000Y10925I425*
X8575Y10500J425*
G01Y13847*
G03X8725Y14059I75J212*
X8500Y14284I225*
X8275Y14059J225*
G01Y14328*
G03X8317Y14324I42J221*
X8542Y14549J225*
X8317Y14774I225*
X8092Y14549J225*
G01Y15500*
G03X8392Y15200I300*
X8692Y15500J300*
X8392Y15800I300*
X8092Y15500J300*
G01Y17190*
G03X8210Y17156I118J191*
X8435Y17381J225*
X8210Y17606I225*
X7985Y17381J225*
G01Y25500*
X8603*
Y24250*
G03X8766Y24034I225*
G02X8788Y24005I8J29*
G01Y23995*
G02X8766Y23966I30*
G03X8603Y23750I62J216*
G01Y18750*
G03X8903Y18450I300*
X9025Y18476J300*
G01Y17367*
G03X9250Y17142I225*
X9475Y17367J225*
X9250Y17592I225*
X9025Y17367J225*
G01Y18476*
G03X9203Y18750I122J274*
X8903Y19050I300*
X8603Y18750J300*
G01Y23750*
G03X8775Y23531I225*
G01Y19750*
G03X9000Y19525I225*
X9225Y19750J225*
X9000Y19975I225*
X8775Y19750J225*
G01Y20750*
G03X9000Y20525I225*
X9225Y20750J225*
X9000Y20975I225*
X8775Y20750J225*
G01Y21750*
G03X9000Y21525I225*
X9225Y21750J225*
X9000Y21975I225*
X8775Y21750J225*
G01Y23531*
G03X8828Y23525I53J219*
X9053Y23750J225*
X8890Y23966I225*
G02X8868Y23995I8J29*
G01Y24005*
G02X8890Y24034I30*
G03X9053Y24250I62J216*
X8828Y24475I225*
X8603Y24250J225*
G01Y25500*
X9700*
Y22355*
G03X9718Y22253I300*
G01Y14067*
G03X9943Y13842I225*
X10168Y14067J225*
X9943Y14292I225*
X9718Y14067J225*
G01Y22253*
G03X10000Y22055I282J102*
X10300Y22355J300*
X10000Y22655I300*
X9700Y22355J300*
G01Y25500*
X9730*
Y24645*
G03X10000Y24375I270*
X10270Y24645J270*
X10000Y24915I270*
X9730Y24645J270*
G01Y25500*
X10947*
Y23750*
G03X11172Y23525I225*
X11392Y23702J225*
G01Y15500*
G03X11422Y15369I300*
G01Y14500*
G03X11575Y14257I270*
G01Y9500*
G03X11999Y9075I425*
G02X12029Y9045J30*
X12028Y9040I30*
G03X12025Y9000I222J40*
X12028Y8960I225*
G02X12029Y8955I29J5*
X11999Y8925I30*
G03X11575Y8500I1J425*
G01Y5500*
G03X12000Y5075I425*
X12133Y5096J425*
G02X12142Y5098I9J28*
X12172Y5068J30*
X12171Y5062I30*
G03X12165Y5000I294J62*
X12171Y4938I300*
G02X12172Y4932I29J6*
X12142Y4902I30*
X12133Y4904J30*
G03X12000Y4925I133J404*
X11575Y4500J425*
G01Y1500*
G03X12000Y1075I425*
X12425Y1500J425*
X12000Y1925I425*
X11575Y1500J425*
G01Y2500*
G03X12000Y2075I425*
X12425Y2500J425*
X12000Y2925I425*
X11575Y2500J425*
G01Y3500*
G03X12000Y3075I425*
X12425Y3500J425*
X12000Y3925I425*
X11575Y3500J425*
G01Y4500*
G03X12000Y4075I425*
X12425Y4500J425*
X12393Y4662I425*
G02X12391Y4673I28J11*
X12421Y4703I30*
X12425J30*
G03X12465Y4700I40J297*
X12700Y4814J300*
G01Y3820*
G03X12937Y3527I300*
G02X12960Y3497I7J30*
X12940Y3469I30*
G03X12785Y3255I70J214*
X13010Y3030I225*
X13235Y3255J225*
X13072Y3471I225*
G02X13050Y3500I8J29*
X13073Y3529I30*
G03X13299Y3800I73J291*
G02X13329Y3828I30J2*
X13345Y3823J30*
G03X13500Y3780I155J257*
X13800Y4080J300*
X13500Y4380I300*
X13201Y4100J300*
G02X13171Y4072I30J2*
X13155Y4077J30*
G03X13000Y4120I155J257*
X12700Y3820J300*
G01Y4814*
G03X12765Y5000I235J186*
X12465Y5300I300*
X12425Y5297J300*
G02X12421I4J30*
X12391Y5327J30*
X12393Y5338I30*
G03X12425Y5500I393J162*
X12000Y5925I425*
X11575Y5500J425*
G01Y6500*
G03X12000Y6075I425*
X12425Y6500J425*
X12000Y6925I425*
X11575Y6500J425*
G01Y8500*
G03X12000Y8075I425*
X12251Y8157J425*
G02X12268Y8163I17J24*
X12290Y8154J30*
G01X12298Y8145*
G02X12307Y8124I21J21*
X12303Y8109I30*
G03X12275Y8000I197J109*
X12303Y7891I225*
G02X12307Y7876I26J15*
X12298Y7855I30*
G01X12290Y7846*
G02X12268Y7837I22J21*
X12251Y7843J30*
G03X12000Y7925I251J343*
X11575Y7500J425*
X12000Y7075I425*
X12425Y7500J425*
X12343Y7751I425*
G02X12337Y7768I24J17*
X12346Y7790I30*
G01X12355Y7798*
G02X12376Y7807I21J21*
X12391Y7803J30*
G03X12500Y7775I109J197*
X12725Y8000J225*
X12500Y8225I225*
X12391Y8197J225*
G02X12376Y8193I15J26*
X12355Y8202J30*
G01X12346Y8210*
G02X12337Y8232I21J22*
X12343Y8249I30*
G03X12425Y8500I343J251*
X12340Y8754I425*
G02X12334Y8772I24J18*
X12351Y8799I30*
G03X12475Y9000I101J201*
X12351Y9201I225*
G02X12334Y9228I13J27*
X12340Y9246I30*
G03X12425Y9500I340J254*
X12000Y9925I425*
X11575Y9500J425*
G01Y10500*
G03X12000Y10075I425*
X12425Y10500J425*
X12000Y10925I425*
X11575Y10500J425*
G01Y14257*
G03X11692Y14230I117J243*
X11962Y14500J270*
X11692Y14770I270*
X11422Y14500J270*
G01Y15369*
G03X11692Y15200I270J131*
X11992Y15500J300*
X11692Y15800I300*
X11392Y15500J300*
G01Y23702*
G03X11397Y23750I220J48*
X11172Y23975I225*
X10947Y23750J225*
G01Y25500*
X12253*
Y24250*
G03X12275Y24143I270*
G01Y14000*
G03X12500Y13775I225*
X12725Y14000J225*
X12500Y14225I225*
X12275Y14000J225*
G01Y24143*
Y20250*
G03X12352Y20081I225*
G01Y15500*
G03X12577Y15275I225*
X12775Y15393J225*
G01Y9500*
G03X13000Y9275I225*
X13225Y9500J225*
X13000Y9725I225*
X12775Y9500J225*
G01Y15393*
G03X12802Y15500I198J107*
X12577Y15725I225*
X12352Y15500J225*
G01Y20081*
G03X12500Y20025I148J169*
X12725Y20250J225*
X12500Y20475I225*
X12275Y20250J225*
G01Y21250*
G03X12500Y21025I225*
X12725Y21250J225*
X12500Y21475I225*
X12275Y21250J225*
G01Y22250*
G03X12500Y22025I225*
X12725Y22250J225*
X12500Y22475I225*
X12275Y22250J225*
G01Y24143*
G03X12523Y23980I248J107*
X12793Y24250J270*
X12523Y24520I270*
X12253Y24250J270*
G01Y25500*
X12275*
Y25000*
G03X12500Y24775I225*
X12725Y25000J225*
X12500Y25225I225*
X12275Y25000J225*
G01Y25500*
X13362*
Y10000*
G03X13525Y9784I225*
G02X13547Y9755I8J29*
G01Y9745*
G02X13525Y9716I30*
G03X13362Y9500I62J216*
X13587Y9275I225*
X13812Y9500J225*
X13649Y9716I225*
G02X13627Y9745I8J29*
G01Y9755*
G02X13649Y9784I30*
G03X13812Y10000I62J216*
X13587Y10225I225*
X13362Y10000J225*
G01Y25500*
X13638*
Y13500*
G03X13938Y13200I300*
X14238Y13500J300*
X13938Y13800I300*
X13638Y13500J300*
G01Y25500*
X13950*
Y14605*
G03X14250Y14305I300*
X14550Y14605J300*
X14250Y14905I300*
X13950Y14605J300*
G01Y25500*
X13980*
Y16895*
G03X14250Y16625I270*
X14520Y16895J270*
X14250Y17165I270*
X13980Y16895J270*
G01Y25500*
X14603*
Y18750*
G03X14638Y18609I300*
G01Y1935*
G03X14938Y1635I300*
X15238Y1935J300*
X14938Y2235I300*
X14638Y1935J300*
G01Y7500*
G03X14938Y7200I300*
X14950J300*
G01Y3105*
G03X15250Y2805I300*
X15550Y3105J300*
X15250Y3405I300*
X14950Y3105J300*
G01Y7200*
G03X14980Y7203I12J300*
G01Y5830*
G03X15250Y5560I270*
X15520Y5830J270*
X15250Y6100I270*
X14980Y5830J270*
G01Y7203*
G03X15229Y7427I42J297*
G02X15258Y7449I29J8*
X15287Y7429J30*
G03X15500Y7275I213J71*
X15725Y7500J225*
X15527Y7723I225*
G02X15500Y7753I3J30*
X15505Y7770I30*
G03X15555Y7935I250J165*
X15255Y8235I300*
X14955Y7935J300*
X14971Y7840I300*
G02X14972Y7830I29J10*
X14942Y7800I30*
G03X14938I4J300*
X14638Y7500J300*
G01Y18609*
G03X14775Y18479I265J141*
G01Y8500*
G03X15000Y8275I225*
X15225Y8500J225*
X15000Y8725I225*
X14775Y8500J225*
G01Y18479*
G03X14903Y18450I128J271*
X15035Y18480J300*
G01Y10895*
G03X15305Y10625I270*
X15575Y10895J270*
X15305Y11165I270*
X15035Y10895J270*
G01Y18480*
G03X15203Y18750I132J270*
X14903Y19050I300*
X14603Y18750J300*
G01Y24250*
G03X14775Y24031I225*
G01Y20750*
G03X15000Y20525I225*
X15225Y20750J225*
X15000Y20975I225*
X14775Y20750J225*
G01Y21750*
G03X15000Y21525I225*
X15225Y21750J225*
X15000Y21975I225*
X14775Y21750J225*
G01Y24031*
G03X14828Y24025I53J219*
X15053Y24250J225*
X14828Y24475I225*
X14603Y24250J225*
G01Y25500*
X15700*
Y22355*
G03X15730Y22224I300*
G01Y16500*
G03X15775Y16351I270*
G01Y14000*
G03X15938Y13784I225*
G02X15960Y13755I8J29*
G01Y13745*
G02X15938Y13716I30*
G03X15775Y13500I62J216*
G01Y12000*
G03X16000Y11775I225*
X16225Y12000J225*
X16000Y12225I225*
X15775Y12000J225*
G01Y13500*
G03X16000Y13275I225*
X16225Y13500J225*
X16062Y13716I225*
G02X16040Y13745I8J29*
G01Y13755*
G02X16062Y13784I30*
G03X16225Y14000I62J216*
X16000Y14225I225*
X15775Y14000J225*
G01Y15000*
G03X16000Y14775I225*
X16225Y15000J225*
X16000Y15225I225*
X15775Y15000J225*
G01Y16351*
G03X16000Y16230I225J149*
X16270Y16500J270*
X16000Y16770I270*
X15730Y16500J270*
G01Y22224*
G03X16000Y22055I270J131*
X16275Y22235J300*
G01Y15500*
G03X16500Y15275I225*
X16725Y15500J225*
X16500Y15725I225*
X16275Y15500J225*
G01Y22235*
G03X16300Y22355I275J120*
X16000Y22655I300*
X15700Y22355J300*
G01Y25500*
X15730*
Y24645*
G03X16000Y24375I270*
X16226Y24497J270*
G02X16251Y24510I25J17*
X16281Y24483J30*
G03X16362Y24331I224J22*
G01Y16500*
G03X16587Y16275I225*
X16730Y16326J225*
G01Y5000*
G03X17000Y4730I270*
X17270Y5000J270*
X17000Y5270I270*
X16730Y5000J270*
G01Y10500*
G03X16775Y10351I270*
G01Y9500*
G03X17000Y9275I225*
X17225Y9500J225*
X17000Y9725I225*
X16775Y9500J225*
G01Y10351*
G03X17000Y10230I225J149*
X17270Y10500J270*
X17000Y10770I270*
X16730Y10500J270*
G01Y16326*
G03X16812Y16500I143J174*
X16587Y16725I225*
X16362Y16500J225*
G01Y24331*
G03X16505Y24280I143J174*
X16730Y24505J225*
X16505Y24730I225*
X16324Y24639J225*
G02X16300Y24626I24J17*
X16270Y24655J30*
G03X16000Y24915I270J10*
X15730Y24645J270*
G01Y25500*
X16775*
Y23750*
Y23749*
Y23000*
G03X17000Y22775I225*
X17225Y23000J225*
X17000Y23225I225*
X16775Y23000J225*
G01Y23749*
G03X17000Y23525I225J1*
X17225Y23750J225*
X17180Y23885I225*
G02X17174Y23903I24J18*
X17191Y23929I30*
G03X17275Y24004I102J201*
G01Y9000*
G03X17500Y8775I225*
X17725Y9000J225*
X17500Y9225I225*
X17275Y9000J225*
G01Y17000*
G03X17500Y16775I225*
X17638Y16822J225*
G01Y13500*
G03X17930Y13200I300*
G01Y4616*
G03X18200Y4346I270*
X18215J270*
G01X18217*
G02X18247Y4316J30*
X18235Y4293I30*
G03X18075Y3960I265J333*
G01Y2040*
G03X18500Y1615I425*
X18535Y1616J425*
G01Y1227*
G03X18835Y927I300*
X19135Y1227J300*
X18835Y1527I300*
X18535Y1227J300*
G01Y1616*
G03X18925Y2040I35J424*
X18500Y2465I425*
X18075Y2040J425*
G01Y3960*
G03X18500Y3535I425*
X18925Y3960J425*
X18500Y4385I425*
X18421Y4378J425*
G02X18416Y4377I5J29*
X18386Y4407J30*
X18394Y4428I30*
G03X18470Y4616I194J188*
X18200Y4886I270*
X17930Y4616J270*
G01Y13200*
G03X17938I8J300*
X18238Y13500J300*
X17938Y13800I300*
X17638Y13500J300*
G01Y16822*
G03X17725Y17000I138J178*
X17500Y17225I225*
X17275Y17000J225*
G01Y24004*
G03X17314Y24130I186J126*
X17089Y24355I225*
X16864Y24130J225*
X16909Y23995I225*
G02X16915Y23977I24J18*
X16898Y23951I30*
G03X16775Y23750I102J201*
G01Y25500*
X17775*
Y15780*
G03X17950Y15561I225*
G01Y14605*
G03X18250Y14305I300*
X18535Y14511J300*
G01Y6727*
G03X18835Y6427I300*
X19075Y6547J300*
G01Y4691*
G03X19300Y4466I225*
X19525Y4691J225*
X19300Y4916I225*
X19075Y4691J225*
G01Y6547*
G03X19135Y6727I240J180*
X18835Y7027I300*
X18535Y6727J300*
G01Y14511*
G03X18550Y14605I285J94*
X18250Y14905I300*
X17950Y14605J300*
G01Y15561*
G03X18000Y15555I50J219*
X18225Y15780J225*
X18000Y16005I225*
X17775Y15780J225*
G01Y18000*
G03X17980Y17776I225*
G01Y16895*
G03X18250Y16625I270*
X18520Y16895J270*
X18250Y17165I270*
X17980Y16895J270*
G01Y17776*
G03X18000Y17775I20J224*
X18225Y18000J225*
X18000Y18225I225*
X17775Y18000J225*
G01Y25500*
X18239*
Y21714*
G03X18402Y21497I225*
G02X18424Y21468I8J29*
G01Y21459*
G02X18402Y21430I30*
G03X18239Y21214I62J216*
G01Y19714*
G03X18275Y19591I225*
G01Y17500*
G03X18500Y17275I225*
X18725Y17500J225*
X18500Y17725I225*
X18275Y17500J225*
G01Y18750*
G03X18500Y18525I225*
X18725Y18750J225*
X18500Y18975I225*
X18275Y18750J225*
G01Y19591*
G03X18464Y19489I189J123*
X18689Y19714J225*
X18464Y19939I225*
X18239Y19714J225*
G01Y21214*
G03X18388Y21002I225*
G02X18407Y20974I11J28*
X18392Y20947I30*
G03X18275Y20750I108J197*
X18438Y20534I225*
G02X18460Y20505I8J29*
G01Y20495*
G02X18438Y20466I30*
G03X18275Y20250I62J216*
X18500Y20025I225*
X18725Y20250J225*
X18562Y20466I225*
G02X18540Y20495I8J29*
G01Y20505*
G02X18562Y20534I30*
G03X18725Y20750I62J216*
X18576Y20962I225*
G02X18556Y20990I10J28*
X18572Y21016I30*
G03X18689Y21214I108J198*
X18525Y21430I225*
G02X18504Y21459I9J29*
G01Y21468*
G02X18525Y21497I30*
G03X18689Y21714I61J217*
X18464Y21939I225*
X18239Y21714J225*
G01Y25500*
X18253*
Y24250*
G03X18275Y24143I270*
G01Y22250*
G03X18500Y22025I225*
X18725Y22250J225*
X18500Y22475I225*
X18275Y22250J225*
G01Y24143*
G03X18523Y23980I248J107*
X18775Y24153J270*
G01Y17000*
G03X19000Y16775I225*
X19225Y17000J225*
X19000Y17225I225*
X18775Y17000J225*
G01Y24153*
G03X18793Y24250I252J97*
X18523Y24520I270*
X18253Y24250J270*
G01Y25500*
X19688*
Y13500*
G03X19913Y13275I225*
X20138Y13500J225*
X19913Y13725I225*
X19688Y13500J225*
G01Y14500*
G03X19913Y14275I225*
X20138Y14500J225*
X19913Y14725I225*
X19688Y14500J225*
G01Y25500*
X19730*
Y16500*
G03X20000Y16230I270*
X20270Y16500J270*
X20000Y16770I270*
X19730Y16500J270*
G01Y25500*
X20275*
Y15070*
G03X20378Y14881I225*
G01Y12372*
G03X20603Y12147I225*
X20636Y12150J225*
G02X20640I4J30*
X20670Y12120J30*
G01Y11500*
G03X20750Y11420I80*
G01X21075*
Y9000*
G03X21500Y8575I425*
X21925Y9000J425*
X21500Y9425I425*
X21075Y9000J425*
G01Y11420*
X22000*
G03X22075Y11472J80*
G01Y9000*
G03X22500Y8575I425*
X22925Y9000J425*
X22500Y9425I425*
X22075Y9000J425*
G01Y11472*
G03X22080Y11500I75J28*
G01Y11766*
G02X22110Y11796I30*
X22136Y11781J30*
G03X22500Y11575I364J219*
X22925Y12000J425*
X22500Y12425I425*
X22136Y12219J425*
G02X22110Y12204I26J15*
X22080Y12234J30*
G01Y12890*
G02X22110Y12920I30*
G01X23075*
Y12000*
G03X23500Y11575I425*
X23925Y12000J425*
X23500Y12425I425*
X23075Y12000J425*
G01Y12920*
X24075*
Y12000*
G03X24500Y11575I425*
X24925Y12000J425*
X24500Y12425I425*
X24075Y12000J425*
G01Y12920*
X24172*
G02X24202Y12890J30*
Y12887I30*
G03X24200Y12855I298J32*
X24500Y12555I300*
X24800Y12855J300*
X24798Y12887I300*
G02Y12890I30J3*
X24828Y12920I30*
G01X26000*
G03X26080Y13000J80*
G01Y17390*
G02X26110Y17420I30*
G01X26679*
G02X26709Y17390J30*
X26698Y17367I30*
G03X26525Y17000I302J367*
X27000Y16525I475*
X27367Y16698J475*
G02X27390Y16709I23J19*
X27420Y16679J30*
G01Y16231*
G02X27390Y16201I30*
X27367Y16212J30*
G03X27000Y16385I367J302*
X26525Y15910J475*
X27000Y15435I475*
X27367Y15608J475*
G02X27390Y15619I23J19*
X27420Y15589J30*
G01Y15125*
G02X27390Y15095I30*
X27366Y15106J30*
G03X27000Y15285I366J286*
X26535Y14820J465*
X27000Y14355I465*
X27366Y14534J465*
G02X27390Y14545I24J19*
X27420Y14515J30*
G01Y14035*
G02X27390Y14005I30*
X27366Y14016J30*
G03X27000Y14195I366J286*
X26535Y13730J465*
X27000Y13265I465*
X27366Y13444J465*
G02X27390Y13455I24J19*
X27420Y13425J30*
G01Y12945*
G02X27390Y12915I30*
X27366Y12926J30*
G03X27000Y13105I366J286*
X26535Y12640J465*
X27000Y12175I465*
X27366Y12354J465*
G02X27390Y12365I24J19*
X27420Y12335J30*
G01Y11860*
G02X27390Y11830I30*
G01X25250*
G03X25170Y11750J80*
G01Y9610*
G02X25140Y9580I30*
G01X24000*
G03X23920Y9500J80*
G01Y9234*
G02X23890Y9204I30*
X23864Y9219J30*
G03X23500Y9425I364J219*
X23075Y9000J425*
X23200Y8699I425*
G01Y5855*
G03X23500Y5555I300*
X23800Y5855J300*
X23500Y6155I300*
X23200Y5855J300*
G01Y8699*
G03X23500Y8575I300J301*
X23864Y8781J425*
G02X23890Y8796I26J15*
X23920Y8766J30*
G01Y8500*
G03X24000Y8420I80*
G01X25750*
G03X25830Y8500J80*
G01Y11140*
G02X25860Y11170I30*
G01X26495*
Y9900*
G03X27450Y8841I1065*
G01Y3668*
G03X27750Y3368I300*
X28050Y3668J300*
X27750Y3968I300*
X27450Y3668J300*
G01Y8841*
G03X27525Y8836I110J1059*
G01Y5257*
G03X27750Y5032I225*
X27975Y5257J225*
X27750Y5482I225*
X27525Y5257J225*
G01Y8836*
G03X27560Y8835I35J1064*
X28325Y9159J1065*
G01Y4250*
G03X28750Y3825I425*
X29175Y4250J425*
X28750Y4675I425*
X28325Y4250J425*
G01Y6250*
G03X28750Y5825I425*
X29175Y6250J425*
X28750Y6675I425*
X28325Y6250J425*
G01Y9159*
G03X28625Y9900I765J741*
X27560Y10965I1065*
X26495Y9900J1065*
G01Y11170*
X28750*
G03X28830Y11250J80*
G01Y18000*
G03X28750Y18080I80*
G01X25500*
G03X25420Y18000J80*
G01Y13610*
G02X25390Y13580I30*
G01X20750*
G03X20670Y13500J80*
G01Y12625*
G02X20640Y12595I30*
X20636J30*
G03X20603Y12597I33J223*
X20378Y12372J225*
G01Y14881*
G03X20500Y14845I122J189*
X20725Y15070J225*
X20500Y15295I225*
X20275Y15070J225*
G01Y25500*
X20353*
Y18750*
G03X20653Y18450I300*
X20953Y18750J300*
X20653Y19050I300*
X20353Y18750J300*
G01Y20750*
G03X20578Y20525I225*
X20803Y20750J225*
X20578Y20975I225*
X20353Y20750J225*
G01Y25500*
X21450*
Y22355*
G03X21750Y22055I300*
X22050Y22355J300*
X21750Y22655I300*
X21450Y22355J300*
G01Y25500*
X21480*
Y24645*
G03X21750Y24375I270*
X22020Y24645J270*
X21750Y24915I270*
X21480Y24645J270*
G01Y25500*
X22275*
Y15070*
G03X22500Y14845I225*
X22725Y15070J225*
X22500Y15295I225*
X22275Y15070J225*
G01Y25500*
X22697*
Y23750*
G03X22922Y23525I225*
X23147Y23750J225*
X22922Y23975I225*
X22697Y23750J225*
G01Y25500*
X24003*
Y24250*
G03X24273Y23980I270*
X24543Y24250J270*
X24273Y24520I270*
X24003Y24250J270*
G01Y25500*
X25085*
Y22250*
G03X25355Y21980I270*
X25625Y22250J270*
X25355Y22520I270*
X25085Y22250J270*
G01Y25500*
X26495*
Y19740*
G03X27560Y18675I1065*
X28625Y19740J1065*
X27560Y20805I1065*
X26495Y19740J1065*
G01Y25500*
X27345*
Y22250*
G03X27645Y21950I300*
X27945Y22250J300*
X27645Y22550I300*
X27345Y22250J300*
G01Y25500*
X29320*
Y1000*
G03X30000Y320I680*
X30680Y1000J680*
X30000Y1680I680*
X29320Y1000J680*
G01Y24500*
G03X29325Y24418I680*
G01Y5250*
G03X29750Y4825I425*
X30175Y5250J425*
X29750Y5675I425*
X29325Y5250J425*
G01Y24418*
G03X30000Y23820I675J82*
X30680Y24500J680*
X30000Y25180I680*
X29320Y24500J680*
G01Y25500*
X30530*
G02X30552Y25491J30*
G01X30991Y25052*
G02X31000Y25030I21J22*
G01Y470*
G02X30991Y448I30*
G01X30552Y9*
G02X30530Y0I22J21*
G01X539*
G02X509Y28J30*
G03X0Y510I509J28*
X-444Y251J510*
G02X-470Y236I26J15*
X-500Y266J30*
G01Y6130*
G03X-1159Y7151I1120*
G02X-1177Y7178I12J27*
X-1154Y7207I30*
G03X-920Y7500I66J293*
X-1220Y7800I300*
X-1520Y7500J300*
X-1433Y7289I300*
G02X-1425Y7268I22J21*
X-1455Y7238I30*
X-1459J30*
G03X-1620Y7250I161J1108*
G01X-3280*
G02X-3302Y7259J30*
G01X-3491Y7448*
G02X-3500Y7470I21J22*
G01Y18030*
X20750Y13470D02*
G02X20780Y13500I30D01*
G01X21075*
Y12000*
G03X21500Y11575I425*
X21925Y12000J425*
X21500Y12425I425*
X21075Y12000J425*
G01Y13500*
X25500*
Y17970*
G02X25530Y18000I30*
G01X27645*
Y15365*
G03X28120Y14890I475*
X28595Y15365J475*
X28120Y15840I475*
X27645Y15365J475*
G01Y16455*
G03X28120Y15980I475*
X28595Y16455J475*
X28120Y16930I475*
X27645Y16455J475*
G01Y18000*
X28720*
G02X28750Y17970J30*
G01Y14860*
G02X28720Y14830I30*
G01X27530*
G02X27500Y14860J30*
G01Y17500*
X26000*
Y13030*
G02X25970Y13000I30*
G01X24780*
G02X24754Y13014J30*
G03X24500Y13155I254J159*
X24246Y13014J300*
G02X24220Y13000I26J16*
G01X22000*
Y11530*
G02X21970Y11500I30*
G01X20780*
G02X20750Y11530J30*
G01Y12189*
G02X20759Y12211I30*
G03X20828Y12372I156J161*
X20759Y12534I225*
G02X20750Y12556I21J22*
G01Y13470*
X24000Y9470D02*
G02X24030Y9500I30D01*
G01X24075*
Y9000*
G03X24500Y8575I425*
X24925Y9000J425*
X24500Y9425I425*
X24075Y9000J425*
G01Y9500*
X25250*
Y11720*
G02X25280Y11750I30*
G01X27500*
Y14720*
G02X27530Y14750I30*
G01X27881*
G02X27911Y14720J30*
X27895Y14694I30*
G03X27645Y14275I225J419*
G01Y13185*
G03X28120Y12710I475*
X28595Y13185J475*
X28120Y13660I475*
X27645Y13185J475*
G01Y14275*
G03X28120Y13800I475*
X28595Y14275J475*
X28345Y14694I475*
G02X28329Y14720I14J26*
X28359Y14750I30*
G01X28720*
G02X28750Y14720J30*
G01Y11280*
G02X28720Y11250I30*
G01X25750*
Y8530*
G02X25720Y8500I30*
G01X24030*
G02X24000Y8530J30*
G01Y9470*
G37*
G54D10*
X-1220Y8500D02*
X-1008Y8288D01*
X-1220Y8500D02*
X-1432Y8712D01*
X-1220Y8500D02*
X-1432Y8288D01*
X-1220Y8500D02*
X-1008Y8712D01*
X1134Y4950D02*
X1346Y5162D01*
X1134Y4950D02*
X922Y5162D01*
X1134Y4950D02*
X1346Y4738D01*
X1134Y4950D02*
X922Y4738D01*
X3750Y16895D02*
X3538Y16683D01*
X3750Y16895D02*
X3538Y17107D01*
X3750Y16895D02*
X3962Y17107D01*
X3750Y16895D02*
X3962Y16683D01*
X4000Y24645D02*
X3788Y24857D01*
X4000Y24645D02*
X3788Y24433D01*
X4000Y24645D02*
X4212Y24857D01*
X4000Y24645D02*
X4212Y24433D01*
X4250Y3984D02*
X4038Y4196D01*
X4250Y3984D02*
X4462Y4196D01*
X4250Y3984D02*
X4462Y3771D01*
X4250Y3984D02*
X4038Y3771D01*
X5192Y6000D02*
X5404Y5788D01*
X5192Y6000D02*
X4980Y6212D01*
X5192Y6000D02*
X5404Y6212D01*
X5192Y6000D02*
X4980Y5788D01*
X5500Y16500D02*
X5712Y16712D01*
X5500Y16500D02*
X5288Y16712D01*
X5500Y16500D02*
X5288Y16288D01*
X5500Y16500D02*
X5712Y16288D01*
X6523Y24250D02*
X6311Y24462D01*
X6523Y24250D02*
X6311Y24038D01*
X6523Y24250D02*
X6735Y24038D01*
X6523Y24250D02*
X6735Y24462D01*
X10000Y24645D02*
X10212Y24433D01*
X10000Y24645D02*
X9788Y24433D01*
X10000Y24645D02*
X9788Y24857D01*
X10000Y24645D02*
X10212Y24857D01*
X11692Y14500D02*
X11480Y14712D01*
X11692Y14500D02*
X11904Y14712D01*
X11692Y14500D02*
X11904Y14288D01*
X11692Y14500D02*
X11480Y14288D01*
X12523Y24250D02*
X12735Y24038D01*
X12523Y24250D02*
X12311Y24462D01*
X12523Y24250D02*
X12311Y24038D01*
X12523Y24250D02*
X12735Y24462D01*
X14250Y16895D02*
X14462Y16683D01*
X14250Y16895D02*
X14038Y17107D01*
X14250Y16895D02*
X14038Y16683D01*
X14250Y16895D02*
X14462Y17107D01*
X15250Y5830D02*
X15038Y6042D01*
X15250Y5830D02*
X15462Y5618D01*
X15250Y5830D02*
X15038Y5618D01*
X15250Y5830D02*
X15462Y6042D01*
X15305Y10895D02*
X15093Y11107D01*
X15305Y10895D02*
X15517Y11107D01*
X15305Y10895D02*
X15093Y10683D01*
X15305Y10895D02*
X15517Y10683D01*
X16000Y16500D02*
X16212Y16712D01*
X16000Y16500D02*
X15788Y16288D01*
X16000Y16500D02*
X16212Y16288D01*
X16000Y16500D02*
X15788Y16712D01*
X16000Y24645D02*
X16212Y24857D01*
X16000Y24645D02*
X15788Y24857D01*
X16000Y24645D02*
X15788Y24433D01*
X16000Y24645D02*
X16211Y24432D01*
X17000Y5000D02*
X16788Y4788D01*
X17000Y5000D02*
X17212Y4788D01*
X17000Y5000D02*
X16788Y5212D01*
X17000Y5000D02*
X17212Y5212D01*
X17000Y10500D02*
X16788Y10712D01*
X17000Y10500D02*
X17212Y10712D01*
X17000Y10500D02*
X17212Y10288D01*
X17000Y10500D02*
X16788Y10288D01*
X18200Y4616D02*
X17919Y4720D01*
X18200Y4616D02*
X18095Y4335D01*
X18200Y4616D02*
X18305Y4897D01*
X18200Y4616D02*
X18481Y4511D01*
X18250Y16895D02*
X18462Y17107D01*
X18250Y16895D02*
X18038Y16683D01*
X18250Y16895D02*
X18038Y17107D01*
X18250Y16895D02*
X18462Y16683D01*
X18523Y24250D02*
X18311Y24462D01*
X18523Y24250D02*
X18311Y24038D01*
X18523Y24250D02*
X18735Y24462D01*
X18523Y24250D02*
X18735Y24038D01*
X20000Y16500D02*
X19788Y16712D01*
X20000Y16500D02*
X20212Y16712D01*
X20000Y16500D02*
X19788Y16288D01*
X20000Y16500D02*
X20212Y16288D01*
X21750Y24645D02*
X21962Y24857D01*
X21750Y24645D02*
X21538Y24433D01*
X21750Y24645D02*
X21538Y24857D01*
X21750Y24645D02*
X21962Y24433D01*
X24273Y24250D02*
X24061Y24462D01*
X24273Y24250D02*
X24485Y24462D01*
X24273Y24250D02*
X24061Y24038D01*
X24273Y24250D02*
X24485Y24038D01*
X25355Y22250D02*
X25143Y22462D01*
X25355Y22250D02*
X25143Y22038D01*
X25355Y22250D02*
X25567Y22038D01*
X25355Y22250D02*
X25567Y22462D01*
G54D11*
X500Y11250D02*
X822Y11572D01*
X500Y11250D02*
X178Y11572D01*
X500Y11250D02*
X178Y10928D01*
X500Y11250D02*
X822Y10928D01*
X9000Y10500D02*
X9322Y10822D01*
X9000Y10500D02*
X8678Y10822D01*
X9000Y10500D02*
X8678Y10178D01*
X9000Y10500D02*
X9322Y10178D01*
X21500Y12000D02*
X21822Y12322D01*
X21500Y12000D02*
X21178Y12322D01*
X21500Y12000D02*
X21178Y11678D01*
X21500Y12000D02*
X21822Y11678D01*
X24500Y9000D02*
X24822Y9322D01*
X24500Y9000D02*
X24178Y9322D01*
X24500Y9000D02*
X24178Y8678D01*
X24500Y9000D02*
X24822Y8678D01*
X28750Y6250D02*
X28428Y6572D01*
X28750Y6250D02*
X28428Y5928D01*
X28750Y6250D02*
X29072Y5928D01*
X28750Y6250D02*
X29072Y6572D01*
G54D12*
X27000Y15910D02*
X27323Y16298D01*
X27000Y15910D02*
X26643Y16267D01*
X27000Y15910D02*
X26643Y15553D01*
X27000Y15910D02*
X27323Y15522D01*
X27000Y17000D02*
X26612Y17323D01*
X27000Y17000D02*
X26643Y16643D01*
X27000Y17000D02*
X27323Y16612D01*
X28120Y13185D02*
X28477Y13542D01*
X28120Y13185D02*
X27763Y13542D01*
X28120Y13185D02*
X27763Y12828D01*
X28120Y13185D02*
X28477Y12828D01*
X28120Y14275D02*
X28480Y14630D01*
X28120Y14275D02*
X27760Y14630D01*
X28120Y14275D02*
X27763Y13918D01*
X28120Y14275D02*
X28477Y13918D01*
X28120Y15365D02*
X28477Y15722D01*
X28120Y15365D02*
X27763Y15722D01*
X28120Y15365D02*
X27763Y15008D01*
X28120Y15365D02*
X28477Y15008D01*
X28120Y16455D02*
X28477Y16812D01*
X28120Y16455D02*
X27763Y16812D01*
X28120Y16455D02*
X27763Y16098D01*
X28120Y16455D02*
X28477Y16098D01*
G54D13*
X-1220Y7500D03*
Y8500D03*
X1134Y4950D03*
Y6050D03*
X1550Y10384D03*
X2903Y18750D03*
X3308Y1500D03*
X3438Y13500D03*
X3750Y14605D03*
Y16895D03*
X4000Y22355D03*
Y24645D03*
X4250Y3984D03*
Y6411D03*
X5192Y6000D03*
X5500Y16500D03*
X6523Y24250D03*
X8392Y15500D03*
X8903Y18750D03*
X10000Y22355D03*
Y24645D03*
X11692Y14500D03*
Y15500D03*
X12465Y5000D03*
X12523Y24250D03*
X13000Y3820D03*
X13500Y4080D03*
X13938Y13500D03*
X14250Y14605D03*
Y16895D03*
X14903Y18750D03*
X14938Y1935D03*
Y7500D03*
X15250Y3105D03*
Y5830D03*
X15255Y7935D03*
X15305Y10895D03*
X16000Y16500D03*
Y22355D03*
Y24645D03*
X17000Y5000D03*
Y10500D03*
X17938Y13500D03*
X18200Y4616D03*
X18250Y14605D03*
Y16895D03*
X18523Y24250D03*
X18835Y1227D03*
Y6727D03*
X20000Y16500D03*
X20653Y18750D03*
X21750Y22355D03*
Y24645D03*
X23500Y5855D03*
X24273Y24250D03*
X24500Y12855D03*
X25355Y22250D03*
X27645D03*
X27750Y3668D03*
G54D14*
X-1295Y10500D03*
Y11000D03*
Y11500D03*
Y12000D03*
Y12500D03*
Y13000D03*
Y14500D03*
Y16000D03*
Y16500D03*
Y17000D03*
Y17500D03*
Y18000D03*
X-847Y11245D03*
Y13745D03*
Y15245D03*
Y15745D03*
X0Y18000D03*
X320Y19340D03*
Y20000D03*
X697Y19500D03*
X1500Y16500D03*
Y20000D03*
X1687Y15743D03*
X1957Y3000D03*
X2000Y9000D03*
Y11500D03*
X2087Y14500D03*
Y15040D03*
Y16000D03*
X2410Y16823D03*
X3000Y12500D03*
Y19750D03*
Y20750D03*
Y21750D03*
X3233Y2500D03*
Y3500D03*
Y4500D03*
Y5500D03*
X4500Y2000D03*
X5000Y23750D03*
Y8000D03*
X5267Y4000D03*
X5475Y15405D03*
X5500Y13500D03*
X5799Y16000D03*
X6000Y13000D03*
Y13500D03*
Y14000D03*
X6500Y12000D03*
Y18750D03*
Y19250D03*
Y20250D03*
Y21250D03*
Y21750D03*
Y22250D03*
X6543Y1500D03*
Y2500D03*
Y3500D03*
Y4000D03*
Y4500D03*
X7000Y12500D03*
X7833Y12979D03*
X8210Y17381D03*
X8317Y14549D03*
X8500Y14059D03*
X8828Y23750D03*
Y24250D03*
X9000Y19750D03*
Y20750D03*
Y21750D03*
X9250Y17367D03*
X9943Y14067D03*
X11172Y23750D03*
X12250Y9000D03*
X12500Y14000D03*
Y8000D03*
Y20250D03*
Y21250D03*
Y22250D03*
Y25000D03*
X12577Y15500D03*
X13000Y9500D03*
X13010Y3255D03*
X13587Y9500D03*
Y10000D03*
X14828Y24250D03*
X15000Y8500D03*
Y20750D03*
Y21750D03*
X15500Y7500D03*
X16000Y12000D03*
Y13500D03*
Y14000D03*
Y15000D03*
X16500Y15500D03*
X16505Y24505D03*
X16587Y16500D03*
X17000Y23750D03*
Y9500D03*
Y23000D03*
X17089Y24130D03*
X17500Y9000D03*
Y17000D03*
X18000Y15780D03*
Y18000D03*
X18464Y19714D03*
Y21214D03*
Y21714D03*
X18500Y17500D03*
Y18750D03*
Y20250D03*
Y20750D03*
Y22250D03*
X19000Y17000D03*
X19300Y4691D03*
X19913Y13500D03*
Y14500D03*
X20500Y15070D03*
X20578Y20750D03*
X20603Y12372D03*
X22500Y15070D03*
X22922Y23750D03*
X27750Y5257D03*
G54D15*
X27560Y9900D03*
Y19740D03*
G54D16*
X27000Y12640D03*
Y13730D03*
Y14820D03*
Y15910D03*
Y17000D03*
X28120Y13185D03*
Y14275D03*
Y15365D03*
Y16455D03*
G54D17*
X500Y8250D03*
Y11250D03*
X1500Y8250D03*
Y11250D03*
X2500Y8250D03*
Y11250D03*
X3500Y8250D03*
Y11250D03*
X4500Y8250D03*
Y11250D03*
X5500Y8250D03*
Y11250D03*
X6500Y8250D03*
Y11250D03*
X7500Y8250D03*
Y11250D03*
X9000Y1500D03*
Y2500D03*
Y3500D03*
Y4500D03*
Y5500D03*
Y6500D03*
Y7500D03*
Y8500D03*
Y9500D03*
Y10500D03*
X12000Y1500D03*
Y2500D03*
Y3500D03*
Y4500D03*
Y5500D03*
Y6500D03*
Y7500D03*
Y8500D03*
Y9500D03*
Y10500D03*
X18500Y2040D03*
Y3960D03*
X21500Y9000D03*
Y12000D03*
X22500Y9000D03*
Y12000D03*
X23500Y9000D03*
Y12000D03*
X24500Y9000D03*
Y12000D03*
X28750Y4250D03*
Y6250D03*
X29750Y5250D03*
M02*
