*
G04 Job   : C:\MGTraining\projects\DEMO\PCB\DEMO.pcb*
G04 User  : FLO-JOES-LT2:joes*
G04 Layer : GeneratedSilkscreenTop.gdo*
G04 Date  : Thu Jan 24 16:50:33 2008*
G04 VeriBest Example Gerber Output Definition*
%ICAS*%
%MOIN*%
%FSLAX24Y24*%
%OFA0.0000B0.0000*%
G90*
G74*
%ADD10C,0.00800*%
%ADD11C,0.01000*%
G01*
G54D10*
X-729Y7122D02*
X-407D01*
X-729Y7445*
Y7122*
X-700Y18387D02*
X-699Y18390D01*
Y18393*
X-701Y18395*
X-703Y18398*
X-867Y18515*
X-872Y18516*
X-875*
X-879Y18515*
X-882Y18512*
X-885Y18508*
X-886Y18504*
X-885Y18500*
X-882Y18497*
X-747Y18401*
X-1273*
Y18506*
X-1274Y18510*
X-1277Y18513*
X-1281Y18515*
X-1286*
X-1290*
X-1294Y18513*
X-1297Y18510*
X-1298Y18506*
Y18272*
X-1297Y18267*
X-1294Y18264*
X-1290Y18262*
X-1286Y18261*
X-1281Y18262*
X-1277Y18264*
X-1274Y18267*
X-1273Y18272*
Y18377*
X-710*
X-705Y18378*
X-702Y18380*
X-701Y18383*
X-700Y18387*
X-699Y18390D02*
X-700Y18387D01*
X-701Y18383*
X-702Y18380*
X-705Y18378*
X-710Y18377*
X-1273*
Y18272*
X-1274Y18267*
X-1277Y18264*
X-1281Y18262*
X-1286Y18261*
X-1290Y18262*
X-1294Y18264*
X-1297Y18267*
X-1298Y18272*
Y18506*
X-1297Y18510*
X-1294Y18513*
X-1290Y18515*
X-1286*
X-1281*
X-1277Y18513*
X-1274Y18510*
X-1273Y18506*
Y18401*
X-747*
X-882Y18497*
X-885Y18500*
X-886Y18504*
X-885Y18508*
X-882Y18512*
X-879Y18515*
X-875Y18516*
X-872*
X-867Y18515*
X-703Y18398*
X-701Y18395*
X-699Y18393*
Y18390*
X-407Y7122D02*
X-729D01*
Y7445*
X-407Y7122*
X-366Y7109D02*
X-365Y7113D01*
X-366Y7116*
X-368Y7119*
X-732Y7483*
X-736Y7485*
X-739Y7487*
X-743Y7486*
X-747Y7484*
X-750Y7482*
X-752Y7480*
X-753Y7478*
X-754Y7475*
Y7122*
X-936*
X-940Y7121*
X-943Y7118*
X-945Y7114*
X-946Y7110*
X-945Y7106*
X-943Y7102*
X-940Y7099*
X-936Y7098*
X-754*
Y7070*
X-753Y7065*
X-750Y7062*
X-746Y7060*
X-742Y7059*
X-737Y7060*
X-733Y7062*
X-730Y7065*
X-729Y7070*
Y7098*
X-376*
X-373*
X-371Y7100*
X-369Y7103*
X-367Y7106*
X-366Y7109*
X-365Y7113D02*
X-366Y7109D01*
X-367Y7106*
X-369Y7103*
X-371Y7100*
X-373Y7098*
X-376*
X-729*
Y7070*
X-730Y7065*
X-733Y7062*
X-737Y7060*
X-742Y7059*
X-746Y7060*
X-750Y7062*
X-753Y7065*
X-754Y7070*
Y7098*
X-936*
X-940Y7099*
X-943Y7102*
X-945Y7106*
X-946Y7110*
X-945Y7114*
X-943Y7118*
X-940Y7121*
X-936Y7122*
X-754*
Y7475*
X-753Y7478*
X-752Y7480*
X-750Y7482*
X-747Y7484*
X-743Y7486*
X-739Y7487*
X-736Y7485*
X-732Y7483*
X-368Y7119*
X-366Y7116*
X-365Y7113*
X-348Y6601D02*
Y6604D01*
Y6806*
Y6809*
X-349*
Y6811*
X-350Y6813*
X-432Y6914*
X-435Y6917*
X-437Y6918*
X-439*
X-443Y6917*
X-447Y6915*
X-451Y6912*
X-453Y6908*
Y6904*
X-452Y6900*
X-372Y6802*
Y6608*
X-448Y6515*
X-559*
X-636Y6607*
Y6707*
X-637Y6711*
X-639Y6714*
X-643Y6716*
X-648Y6717*
X-652Y6716*
X-656Y6714*
X-658Y6711*
X-660Y6707*
Y6607*
X-736Y6515*
X-847*
X-923Y6608*
Y6802*
X-843Y6900*
X-842Y6904*
X-843Y6908*
X-844Y6912*
X-848Y6915*
X-852Y6917*
X-856Y6918*
X-858*
X-860Y6917*
X-863Y6914*
X-945Y6813*
X-946Y6811*
X-948Y6806*
Y6602*
X-947*
Y6599*
X-946*
X-945Y6596*
X-863Y6495*
X-861Y6493*
X-859Y6492*
X-856Y6491*
X-853*
X-730*
X-728*
X-724Y6492*
X-723*
X-722Y6493*
X-721Y6494*
X-720Y6495*
X-648Y6583*
X-576Y6495*
X-574Y6493*
X-571Y6492*
X-567Y6491*
X-565*
X-442*
X-439*
X-438Y6492*
X-435Y6493*
X-432Y6495*
X-350Y6596*
X-349Y6598*
Y6600*
X-348Y6601*
Y6604D02*
Y6601D01*
X-349Y6600*
Y6598*
X-350Y6596*
X-432Y6495*
X-435Y6493*
X-438Y6492*
X-439Y6491*
X-442*
X-565*
X-567*
X-571Y6492*
X-574Y6493*
X-576Y6495*
X-648Y6583*
X-720Y6495*
X-721Y6494*
X-722Y6493*
X-723Y6492*
X-724*
X-728Y6491*
X-730*
X-853*
X-856*
X-859Y6492*
X-861Y6493*
X-863Y6495*
X-945Y6596*
X-946Y6599*
X-947*
Y6602*
X-948*
Y6806*
X-946Y6811*
X-945Y6813*
X-863Y6914*
X-860Y6917*
X-858Y6918*
X-856*
X-852Y6917*
X-848Y6915*
X-844Y6912*
X-843Y6908*
X-842Y6904*
X-843Y6900*
X-923Y6802*
Y6608*
X-847Y6515*
X-736*
X-660Y6607*
Y6707*
X-658Y6711*
X-656Y6714*
X-652Y6716*
X-648Y6717*
X-643Y6716*
X-639Y6714*
X-637Y6711*
X-636Y6707*
Y6607*
X-559Y6515*
X-448*
X-372Y6608*
Y6802*
X-452Y6900*
X-453Y6904*
Y6908*
X-451Y6912*
X-447Y6915*
X-443Y6917*
X-439Y6918*
X-437*
X-435Y6917*
X-432Y6914*
X-350Y6813*
X-349Y6811*
Y6809*
X-348*
Y6806*
Y6604*
X-200Y12453D02*
X-199Y12456D01*
Y12459*
X-201Y12461*
X-203Y12464*
X-367Y12581*
X-372Y12583*
X-375*
X-379Y12581*
X-382Y12578*
X-385Y12574*
X-386Y12570*
X-385Y12566*
X-382Y12563*
X-247Y12467*
X-773*
Y12572*
X-774Y12577*
X-777Y12579*
X-781Y12581*
X-786*
X-790*
X-794Y12579*
X-797Y12577*
X-798Y12572*
Y12338*
X-797Y12334*
X-794Y12330*
X-790Y12328*
X-786*
X-781*
X-777Y12330*
X-774Y12334*
X-773Y12338*
Y12443*
X-210*
X-205Y12444*
X-202Y12446*
X-201Y12449*
X-200Y12453*
X-199Y12456D02*
X-200Y12453D01*
X-201Y12449*
X-202Y12446*
X-205Y12444*
X-210Y12443*
X-773*
Y12338*
X-774Y12334*
X-777Y12330*
X-781Y12328*
X-786*
X-790*
X-794Y12330*
X-797Y12334*
X-798Y12338*
Y12572*
X-797Y12577*
X-794Y12579*
X-790Y12581*
X-786*
X-781*
X-777Y12579*
X-774Y12577*
X-773Y12572*
Y12467*
X-247*
X-382Y12563*
X-385Y12566*
X-386Y12570*
X-385Y12574*
X-382Y12578*
X-379Y12581*
X-375Y12583*
X-372*
X-367Y12581*
X-203Y12464*
X-201Y12461*
X-199Y12459*
Y12456*
X-198Y12805D02*
Y12809D01*
Y13112*
Y13117*
X-201Y13120*
X-205Y13122*
X-210Y13123*
X-214Y13122*
X-219Y13120*
X-221Y13117*
X-222Y13112*
Y12962*
X-699*
X-772Y13017*
Y13127*
X-694Y13204*
X-691Y13208*
Y13212*
X-693Y13217*
X-696Y13220*
X-699Y13223*
X-703Y13225*
X-708*
X-712Y13222*
X-794Y13142*
X-796Y13139*
Y13136*
X-797Y13134*
X-798Y13132*
Y13011*
X-797Y13008*
X-795Y13005*
Y13004*
X-794Y13003*
X-793*
X-792Y13001*
X-710Y12941*
X-708Y12940*
X-706Y12939*
X-705Y12938*
X-222*
Y12809*
X-221Y12805*
X-219Y12801*
X-214Y12799*
X-210*
X-205*
X-201Y12801*
X-198Y12805*
Y12809D02*
Y12805D01*
X-201Y12801*
X-205Y12799*
X-210*
X-214*
X-219Y12801*
X-221Y12805*
X-222Y12809*
Y12938*
X-705*
X-706Y12939*
X-708Y12940*
X-710Y12941*
X-792Y13001*
X-793Y13003*
X-794*
X-795Y13004*
Y13005*
X-797Y13008*
X-798Y13011*
Y13132*
X-797Y13134*
X-796Y13136*
Y13139*
X-794Y13142*
X-712Y13222*
X-708Y13225*
X-703*
X-699Y13223*
X-696Y13220*
X-693Y13217*
X-691Y13212*
Y13208*
X-694Y13204*
X-772Y13127*
Y13017*
X-699Y12962*
X-222*
Y13112*
X-221Y13117*
X-219Y13120*
X-214Y13122*
X-210Y13123*
X-205Y13122*
X-201Y13120*
X-198Y13117*
Y13112*
Y12809*
X-129Y9361D02*
X-121Y9415D01*
Y9493*
X-129Y9548*
X-165Y9607*
X-213Y9634*
X-273Y9644*
X-333Y9634*
X-379Y9607*
X-419Y9548*
X-425Y9493*
Y9415*
X-419Y9362*
X-378Y9301*
X-333Y9265*
X-275*
X-212Y9278*
X-167Y9303*
X-129Y9361*
X-121Y9415D02*
X-129Y9361D01*
X-167Y9303*
X-212Y9278*
X-275Y9265*
X-333*
X-378Y9301*
X-419Y9362*
X-425Y9415*
Y9493*
X-419Y9548*
X-379Y9607*
X-333Y9634*
X-273Y9644*
X-213Y9634*
X-165Y9607*
X-129Y9548*
X-121Y9493*
Y9415*
X-105Y9355D02*
X-96Y9413D01*
Y9498*
X-105Y9554*
Y9555*
X-106*
X-107Y9558*
X-146Y9622*
Y9624*
X-148Y9625*
X-149Y9626*
X-202Y9656*
X-203Y9657*
X-206*
X-270Y9669*
X-272*
X-273Y9670*
X-275Y9669*
X-339Y9657*
X-344*
Y9656*
X-395Y9626*
X-398Y9624*
X-399Y9622*
X-441Y9558*
X-442Y9556*
X-443Y9554*
X-449Y9498*
Y9413*
X-443Y9356*
Y9355*
X-442Y9354*
X-441Y9351*
X-399Y9288*
X-397Y9286*
X-395Y9285*
X-371Y9265*
X-435*
X-597Y9289*
X-626Y9316*
Y9317*
X-663Y9358*
X-672Y9405*
Y9493*
X-663Y9555*
X-626Y9609*
X-624Y9613*
Y9617*
X-626Y9620*
X-629Y9623*
X-633Y9625*
X-638Y9626*
X-642Y9625*
X-645Y9622*
X-684Y9565*
X-686Y9562*
Y9559*
X-696Y9497*
Y9400*
X-686Y9351*
X-684Y9346*
Y9345*
X-644Y9301*
X-643Y9299*
X-610Y9269*
X-608Y9267*
X-607*
X-606Y9266*
X-604Y9265*
X-440Y9241*
X-270*
X-206Y9254*
X-203Y9257*
X-152Y9284*
X-149Y9286*
X-147Y9288*
X-107Y9350*
X-106Y9352*
Y9354*
X-105*
Y9355*
X-99Y10219D02*
X-98Y10224D01*
X-99Y10228*
X-101Y10232*
X-104Y10235*
X-108Y10236*
X-558*
X-560Y10237*
X-563Y10236*
X-623Y10223*
X-626Y10222*
X-627Y10220*
X-629Y10219*
X-655Y10190*
X-658Y10186*
X-688Y10124*
Y10123*
X-689Y10121*
Y10120*
X-696Y10064*
Y9980*
X-689Y9923*
X-688Y9922*
Y9920*
X-658Y9856*
X-657Y9854*
X-656Y9853*
X-655Y9852*
X-629Y9824*
X-627Y9823*
X-623Y9820*
X-563Y9808*
X-108*
X-104Y9809*
X-101Y9811*
X-99Y9815*
X-98Y9820*
X-99Y9824*
X-101Y9828*
X-104Y9830*
X-108Y9832*
X-558*
X-614Y9844*
X-636Y9867*
X-666Y9928*
X-672Y9982*
Y10060*
X-666Y10115*
X-636Y10176*
X-614Y10199*
X-558Y10211*
X-108*
X-104Y10213*
X-101Y10215*
X-99Y10219*
X-98Y10224D02*
X-99Y10219D01*
X-101Y10215*
X-104Y10213*
X-108Y10211*
X-558*
X-614Y10199*
X-636Y10176*
X-666Y10115*
X-672Y10060*
Y9982*
X-666Y9928*
X-636Y9867*
X-614Y9844*
X-558Y9832*
X-108*
X-104Y9830*
X-101Y9828*
X-99Y9824*
X-98Y9820*
X-99Y9815*
X-101Y9811*
X-104Y9809*
X-108Y9808*
X-563*
X-623Y9820*
X-627Y9823*
X-629Y9824*
X-655Y9852*
X-656Y9853*
X-657Y9854*
X-658Y9856*
X-688Y9920*
Y9922*
X-689Y9923*
X-696Y9980*
Y10064*
X-689Y10120*
Y10121*
X-688Y10123*
Y10124*
X-658Y10186*
X-655Y10190*
X-629Y10219*
X-627Y10220*
X-626Y10222*
X-623Y10223*
X-563Y10236*
X-560Y10237*
X-558Y10236*
X-108*
X-104Y10235*
X-101Y10232*
X-99Y10228*
X-98Y10224*
X-96Y9413D02*
X-105Y9355D01*
Y9354*
X-106*
Y9352*
X-107Y9350*
X-147Y9288*
X-149Y9286*
X-152Y9284*
X-203Y9257*
X-206Y9254*
X-270Y9241*
X-440*
X-604Y9265*
X-606Y9266*
X-607Y9267*
X-608*
X-610Y9269*
X-643Y9299*
X-644Y9301*
X-684Y9345*
Y9346*
X-686Y9351*
X-696Y9400*
Y9497*
X-686Y9559*
Y9562*
X-684Y9565*
X-645Y9622*
X-642Y9625*
X-638Y9626*
X-633Y9625*
X-629Y9623*
X-626Y9620*
X-624Y9617*
Y9613*
X-626Y9609*
X-663Y9555*
X-672Y9493*
Y9405*
X-663Y9358*
X-626Y9317*
Y9316*
X-597Y9289*
X-435Y9265*
X-371*
X-395Y9285*
X-397Y9286*
X-399Y9288*
X-441Y9351*
X-442Y9354*
X-443Y9355*
Y9356*
X-449Y9413*
Y9498*
X-443Y9554*
X-442Y9556*
X-441Y9558*
X-399Y9622*
X-398Y9624*
X-395Y9626*
X-344Y9656*
Y9657*
X-339*
X-275Y9669*
X-273Y9670*
X-272Y9669*
X-270*
X-206Y9657*
X-203*
X-202Y9656*
X-149Y9626*
X-148Y9625*
X-146Y9624*
Y9622*
X-107Y9558*
X-106Y9555*
X-105*
Y9554*
X-96Y9498*
Y9413*
X70Y8670D02*
X7930D01*
Y10830*
X70*
Y8670*
X441Y3827D02*
X442Y3831D01*
Y3835*
X441Y3838*
X439Y3841*
X436Y3844*
X433Y3845*
X430Y3846*
X427Y3845*
X424Y3844*
X325Y3764*
X132*
X39Y3840*
Y4240*
X132Y4315*
X325*
X424Y4235*
X427Y4234*
X430*
X433*
X436Y4236*
X439Y4238*
X441Y4241*
X442Y4244*
Y4247*
X441Y4252*
X439Y4255*
X337Y4337*
X336Y4338*
X334Y4339*
X333*
X330Y4340*
X127*
X125Y4339*
X124*
X123Y4338*
X121Y4337*
X19Y4255*
X18Y4253*
Y4252*
X16Y4251*
X15Y4249*
Y4246*
Y3834*
Y3831*
X16Y3829*
X17Y3826*
X20Y3824*
X121Y3742*
X123Y3741*
X127Y3740*
X332*
X333*
X334*
X335Y3741*
X337Y3742*
X439Y3824*
X441Y3827*
X442Y4247D02*
Y4244D01*
X441Y4241*
X439Y4238*
X436Y4236*
X433Y4234*
X430*
X427*
X424Y4235*
X325Y4315*
X132*
X39Y4240*
Y3840*
X132Y3764*
X325*
X424Y3844*
X427Y3845*
X430Y3846*
X433Y3845*
X436Y3844*
X439Y3841*
X441Y3838*
X442Y3835*
Y3831*
X441Y3827*
X439Y3824*
X337Y3742*
X335Y3741*
X334Y3740*
X333*
X332*
X127*
X123Y3741*
X121Y3742*
X20Y3824*
X17Y3826*
X16Y3829*
X15Y3831*
Y3834*
Y4246*
Y4249*
X16Y4251*
X18Y4252*
Y4253*
X19Y4255*
X121Y4337*
X123Y4338*
X124Y4339*
X125*
X127Y4340*
X330*
X333Y4339*
X334*
X336Y4338*
X337Y4337*
X439Y4255*
X441Y4252*
X442Y4247*
X540Y8870D02*
G03X500Y8910I40D01*
X460Y8870J40*
X500Y8830I40*
X540Y8870J40*
X500Y8910I40*
X460Y8870J40*
X500Y8830I40*
X540Y8870J40*
G01X930Y5126D02*
Y5874D01*
Y5126*
Y6226D02*
Y6440D01*
X70*
Y4560*
X930*
Y4774*
Y4560*
X70*
Y6440*
X930*
Y6226*
X1008Y4161D02*
X1009Y4163D01*
Y4246*
X1008Y4248*
X1007Y4250*
X1006Y4252*
X1005Y4255*
X904Y4337*
X901Y4338*
X900Y4339*
X899*
X898*
X896Y4340*
X694*
X691Y4339*
X689Y4338*
X687Y4337*
X586Y4255*
X583Y4252*
X582Y4250*
Y4248*
X583Y4244*
X588Y4237*
X591Y4235*
X595Y4234*
X600Y4235*
X697Y4315*
X891*
X985Y4240*
Y4169*
X586Y3844*
X585Y3843*
X583Y3842*
X582Y3840*
X581Y3836*
X580Y3834*
Y3752*
X582Y3747*
X585Y3744*
X588Y3741*
X592Y3740*
X997*
X1001Y3741*
X1005Y3743*
X1006Y3748*
X1007Y3752*
X1006Y3757*
X1005Y3761*
X1001Y3763*
X997Y3764*
X605*
Y3829*
X1005Y4153*
X1006Y4154*
X1007Y4157*
X1008Y4161*
X1009Y4163D02*
X1008Y4161D01*
X1007Y4157*
X1006Y4154*
X1005Y4153*
X605Y3829*
Y3764*
X997*
X1001Y3763*
X1005Y3761*
X1006Y3757*
X1007Y3752*
X1006Y3748*
X1005Y3743*
X1001Y3741*
X997Y3740*
X592*
X588Y3741*
X585Y3744*
X582Y3747*
X580Y3752*
Y3834*
X581Y3836*
X582Y3840*
X583Y3842*
X585Y3843*
X586Y3844*
X985Y4169*
Y4240*
X891Y4315*
X697*
X600Y4235*
X595Y4234*
X591Y4235*
X588Y4237*
X583Y4244*
X582Y4248*
Y4250*
X583Y4252*
X586Y4255*
X687Y4337*
X689Y4338*
X691Y4339*
X694Y4340*
X896*
X898Y4339*
X899*
X900*
X901Y4338*
X904Y4337*
X1005Y4255*
X1006Y4252*
X1007Y4250*
X1008Y4248*
X1009Y4246*
Y4163*
X2960Y24250D02*
G03X2920Y24290I40D01*
X2880Y24250J40*
X2920Y24210I40*
X2960Y24250J40*
X2920Y24290I40*
X2880Y24250J40*
X2920Y24210I40*
X2960Y24250J40*
G01X3120Y1694D02*
Y2341D01*
Y1694*
Y2659D02*
Y3341D01*
Y2659*
Y3659D02*
Y4341D01*
Y3659*
Y4659D02*
Y5341D01*
Y4659*
X3282Y13280D02*
X3250D01*
Y13306*
Y13280*
X3282*
X3360Y6000D02*
G03X3320Y6040I40D01*
X3280Y6000J40*
X3320Y5960I40*
X3360Y6000J40*
X3320Y6040I40*
X3280Y6000J40*
X3320Y5960I40*
X3360Y6000J40*
G01X3490Y16500D02*
G03X3450Y16540I40D01*
X3410Y16500J40*
X3450Y16460I40*
X3490Y16500J40*
X3450Y16540I40*
X3410Y16500J40*
X3450Y16460I40*
X3490Y16500J40*
G01X3544Y16720D02*
X3250D01*
Y13694*
Y16720*
X3544*
X3731Y24620D02*
X2720D01*
Y18948*
Y24620*
X3731*
X3919Y6831D02*
Y6834D01*
Y7328*
X3918Y7332*
X3915Y7336*
X3912Y7337*
X3907Y7338*
X3903Y7337*
X3899Y7336*
X3896Y7332*
X3895Y7328*
Y6840*
X3802Y6764*
X3608*
X3516Y6840*
Y7328*
X3514Y7332*
X3511Y7336*
X3507Y7337*
X3502Y7338*
X3498Y7337*
X3495Y7336*
X3492Y7332*
X3490Y7328*
Y6834*
X3491Y6831*
X3492Y6829*
X3493Y6826*
X3496Y6824*
X3597Y6742*
X3599Y6741*
X3604Y6740*
X3808*
X3810*
X3811Y6741*
X3814Y6742*
X3915Y6824*
X3917Y6826*
X3918Y6829*
X3919Y6831*
Y6834D02*
Y6831D01*
X3918Y6829*
X3917Y6826*
X3915Y6824*
X3814Y6742*
X3811Y6741*
X3810Y6740*
X3808*
X3604*
X3599Y6741*
X3597Y6742*
X3496Y6824*
X3493Y6826*
X3492Y6829*
X3491Y6831*
X3490Y6834*
Y7328*
X3492Y7332*
X3495Y7336*
X3498Y7337*
X3502Y7338*
X3507Y7337*
X3511Y7336*
X3514Y7332*
X3516Y7328*
Y6840*
X3608Y6764*
X3802*
X3895Y6840*
Y7328*
X3896Y7332*
X3899Y7336*
X3903Y7337*
X3907Y7338*
X3912Y7337*
X3915Y7336*
X3918Y7332*
X3919Y7328*
Y6834*
X3985Y6460D02*
X3120D01*
Y5659*
Y6460*
X3985*
X4250Y13280D02*
X3595D01*
X4250*
Y16720*
X3956*
X4250*
Y13280*
X4388Y6748D02*
X4389Y6752D01*
X4388Y6757*
X4386Y6761*
X4383Y6763*
X4378Y6764*
X4273*
Y7328*
X4272Y7332*
X4270Y7335*
X4267Y7337*
X4263*
X4260Y7338*
X4257*
X4255Y7337*
X4252Y7334*
X4135Y7170*
X4134Y7166*
Y7162*
X4135Y7158*
X4138Y7155*
X4142Y7153*
X4146Y7151*
X4149*
X4150Y7152*
X4153Y7156*
X4249Y7290*
Y6764*
X4144*
X4140Y6763*
X4137Y6761*
X4135Y6757*
Y6752*
Y6748*
X4137Y6743*
X4140Y6740*
X4144*
X4378*
X4383*
X4386Y6743*
X4388Y6748*
X4389Y6752D02*
X4388Y6748D01*
X4386Y6743*
X4383Y6740*
X4378*
X4144*
X4140*
X4137Y6743*
X4135Y6748*
Y6752*
Y6757*
X4137Y6761*
X4140Y6763*
X4144Y6764*
X4249*
Y7290*
X4153Y7156*
X4150Y7152*
X4149Y7151*
X4146*
X4142Y7153*
X4138Y7155*
X4135Y7158*
X4134Y7162*
Y7166*
X4135Y7170*
X4252Y7334*
X4255Y7337*
X4257Y7338*
X4260*
X4263Y7337*
X4267*
X4270Y7335*
X4272Y7332*
X4273Y7328*
Y6764*
X4378*
X4383Y6763*
X4386Y6761*
X4388Y6757*
X4389Y6752*
X4442Y16981D02*
Y16984D01*
Y17478*
X4441Y17482*
X4438Y17486*
X4435Y17487*
X4430Y17488*
X4426Y17487*
X4422Y17486*
X4419Y17482*
X4418Y17478*
Y16990*
X4325Y16914*
X4131*
X4039Y16990*
Y17478*
X4037Y17482*
X4034Y17486*
X4030Y17487*
X4025Y17488*
X4021Y17487*
X4018Y17486*
X4015Y17482*
X4013Y17478*
Y16984*
X4014Y16981*
X4015Y16979*
X4016Y16976*
X4019Y16974*
X4120Y16892*
X4122Y16891*
X4127Y16890*
X4331*
X4333*
X4334Y16891*
X4337Y16892*
X4438Y16974*
X4440Y16976*
X4441Y16979*
X4442Y16981*
Y16984D02*
Y16981D01*
X4441Y16979*
X4440Y16976*
X4438Y16974*
X4337Y16892*
X4334Y16891*
X4333Y16890*
X4331*
X4127*
X4122Y16891*
X4120Y16892*
X4019Y16974*
X4016Y16976*
X4015Y16979*
X4014Y16981*
X4013Y16984*
Y17478*
X4015Y17482*
X4018Y17486*
X4021Y17487*
X4025Y17488*
X4030Y17487*
X4034Y17486*
X4037Y17482*
X4039Y17478*
Y16990*
X4131Y16914*
X4325*
X4418Y16990*
Y17478*
X4419Y17482*
X4422Y17486*
X4426Y17487*
X4430Y17488*
X4435Y17487*
X4438Y17486*
X4441Y17482*
X4442Y17478*
Y16984*
X4752Y24881D02*
X4753Y24884D01*
Y25378*
X4751Y25382*
X4748Y25386*
X4745Y25387*
X4741Y25388*
X4736Y25387*
X4732Y25386*
X4729Y25382*
Y25378*
Y24890*
X4635Y24814*
X4441*
X4349Y24890*
Y25378*
X4348Y25382*
X4345Y25386*
X4340Y25387*
X4336Y25388*
X4331Y25387*
X4328Y25386*
X4325Y25382*
X4324Y25378*
Y24884*
Y24881*
X4325Y24879*
X4327Y24876*
X4329Y24874*
X4430Y24792*
X4432Y24791*
X4437Y24790*
X4642*
X4643*
X4644Y24791*
X4647Y24792*
X4748Y24874*
X4750Y24876*
X4751Y24879*
X4752Y24881*
X4753Y24884D02*
X4752Y24881D01*
X4751Y24879*
X4750Y24876*
X4748Y24874*
X4647Y24792*
X4644Y24791*
X4643Y24790*
X4642*
X4437*
X4432Y24791*
X4430Y24792*
X4329Y24874*
X4327Y24876*
X4325Y24879*
X4324Y24881*
Y24884*
Y25378*
X4325Y25382*
X4328Y25386*
X4331Y25387*
X4336Y25388*
X4340Y25387*
X4345Y25386*
X4348Y25382*
X4349Y25378*
Y24890*
X4441Y24814*
X4635*
X4729Y24890*
Y25378*
Y25382*
X4732Y25386*
X4736Y25387*
X4741Y25388*
X4745Y25387*
X4748Y25386*
X4751Y25382*
X4753Y25378*
Y24884*
X5009Y16982D02*
Y16984D01*
Y17189*
Y17192*
X5008Y17195*
Y17196*
X5007Y17197*
X5006Y17198*
X5005Y17199*
X4904Y17281*
X4901Y17282*
X4896Y17283*
X4694*
X4691*
X4690Y17282*
X4687Y17281*
X4606Y17215*
Y17465*
X4997*
X5002Y17466*
X5005Y17469*
X5007Y17473*
X5008Y17477*
X5007Y17482*
X5005Y17486*
X5002Y17489*
X4997Y17490*
X4592*
X4588Y17489*
X4585Y17486*
X4582Y17482*
X4580Y17478*
Y17189*
X4581Y17185*
X4583Y17182*
X4585Y17180*
X4589Y17179*
X4592Y17178*
X4595Y17177*
X4598Y17178*
X4600Y17180*
X4698Y17259*
X4892*
X4985Y17183*
Y16990*
X4892Y16915*
X4698*
X4600Y16994*
X4596Y16996*
X4592*
X4589Y16994*
X4585Y16991*
X4583Y16986*
X4582Y16982*
X4583Y16978*
X4586Y16975*
X4687Y16892*
X4689Y16891*
X4691*
X4694Y16890*
X4898*
X4899*
X4900Y16891*
X4901*
X4904Y16892*
X5005Y16975*
X5007Y16977*
X5008Y16978*
X5009Y16982*
Y16984D02*
Y16982D01*
X5008Y16978*
X5007Y16977*
X5005Y16975*
X4904Y16892*
X4901Y16891*
X4900*
X4899Y16890*
X4898*
X4694*
X4691Y16891*
X4689*
X4687Y16892*
X4586Y16975*
X4583Y16978*
X4582Y16982*
X4583Y16986*
X4585Y16991*
X4589Y16994*
X4592Y16996*
X4596*
X4600Y16994*
X4698Y16915*
X4892*
X4985Y16990*
Y17183*
X4892Y17259*
X4698*
X4600Y17180*
X4598Y17178*
X4595Y17177*
X4592Y17178*
X4589Y17179*
X4585Y17180*
X4583Y17182*
X4581Y17185*
X4580Y17189*
Y17478*
X4582Y17482*
X4585Y17486*
X4588Y17489*
X4592Y17490*
X4997*
X5002Y17489*
X5005Y17486*
X5007Y17482*
X5008Y17477*
X5007Y17473*
X5005Y17469*
X5002Y17466*
X4997Y17465*
X4606*
Y17215*
X4687Y17281*
X4690Y17282*
X4691Y17283*
X4694*
X4896*
X4901Y17282*
X4904Y17281*
X5005Y17199*
X5006Y17198*
X5007Y17197*
X5008Y17196*
Y17195*
X5009Y17192*
Y17189*
Y16984*
X5032Y7161D02*
Y7163D01*
Y7246*
Y7248*
X5031Y7250*
X5030Y7252*
X5028Y7255*
X4927Y7337*
X4925Y7338*
X4923Y7339*
X4922*
X4920Y7340*
X4717*
X4715Y7339*
X4714*
X4713Y7338*
X4710Y7337*
X4609Y7255*
X4606Y7252*
Y7250*
Y7248*
Y7244*
X4611Y7237*
X4615Y7235*
X4619Y7234*
X4623Y7235*
X4721Y7315*
X4915*
X5008Y7240*
Y7169*
X4609Y6844*
X4608Y6843*
X4607Y6842*
X4606Y6840*
X4605Y6836*
X4604Y6834*
Y6752*
X4605Y6747*
X4608Y6744*
X4611Y6741*
X4616Y6740*
X5020*
X5025Y6741*
X5028Y6743*
X5030Y6748*
X5031Y6752*
X5030Y6757*
X5028Y6761*
X5025Y6763*
X5020Y6764*
X4629*
Y6829*
X5028Y7153*
X5030Y7154*
X5031Y7157*
X5032Y7161*
Y7163D02*
Y7161D01*
X5031Y7157*
X5030Y7154*
X5028Y7153*
X4629Y6829*
Y6764*
X5020*
X5025Y6763*
X5028Y6761*
X5030Y6757*
X5031Y6752*
X5030Y6748*
X5028Y6743*
X5025Y6741*
X5020Y6740*
X4616*
X4611Y6741*
X4608Y6744*
X4605Y6747*
X4604Y6752*
Y6834*
X4605Y6836*
X4606Y6840*
X4607Y6842*
X4608Y6843*
X4609Y6844*
X5008Y7169*
Y7240*
X4915Y7315*
X4721*
X4623Y7235*
X4619Y7234*
X4615Y7235*
X4611Y7237*
X4606Y7244*
Y7248*
Y7250*
Y7252*
X4609Y7255*
X4710Y7337*
X4713Y7338*
X4714Y7339*
X4715*
X4717Y7340*
X4920*
X4922Y7339*
X4923*
X4925Y7338*
X4927Y7337*
X5028Y7255*
X5030Y7252*
X5031Y7250*
X5032Y7248*
Y7246*
Y7163*
X5221Y24798D02*
X5222Y24802D01*
X5221Y24807*
X5219Y24811*
X5216Y24813*
X5212Y24814*
X5106*
Y25378*
X5105Y25382*
X5104Y25385*
X5101Y25387*
X5096*
X5093Y25388*
X5090*
X5088Y25387*
X5086Y25384*
X4969Y25220*
X4967Y25216*
Y25212*
X4969Y25208*
X4972Y25205*
X4975Y25203*
X4979Y25201*
X4982*
X4984Y25202*
X4987Y25206*
X5083Y25340*
Y24814*
X4978*
X4973Y24813*
X4970Y24811*
X4969Y24807*
X4968Y24802*
X4969Y24798*
X4970Y24793*
X4973Y24790*
X4978*
X5212*
X5216*
X5219Y24793*
X5221Y24798*
X5222Y24802D02*
X5221Y24798D01*
X5219Y24793*
X5216Y24790*
X5212*
X4978*
X4973*
X4970Y24793*
X4969Y24798*
X4968Y24802*
X4969Y24807*
X4970Y24811*
X4973Y24813*
X4978Y24814*
X5083*
Y25340*
X4987Y25206*
X4984Y25202*
X4982Y25201*
X4979*
X4975Y25203*
X4972Y25205*
X4969Y25208*
X4967Y25212*
Y25216*
X4969Y25220*
X5086Y25384*
X5088Y25387*
X5090Y25388*
X5093*
X5096Y25387*
X5101*
X5104Y25385*
X5105Y25382*
X5106Y25378*
Y24814*
X5212*
X5216Y24813*
X5219Y24811*
X5221Y24807*
X5222Y24802*
X5280Y18380D02*
X2720D01*
Y18552*
Y18380*
X5280*
Y24620*
X4269*
X5280*
Y18380*
X5380Y1040D02*
X3120D01*
Y1306*
Y1040*
X5380*
Y3841*
Y1040*
Y4159D02*
Y5806D01*
Y4159*
Y6194D02*
Y6460D01*
X4515*
X5380*
Y6194*
X7930Y8670D02*
X70D01*
Y10830*
X7930*
Y8670*
X8210Y14712D02*
Y15300D01*
Y14712*
X8332Y13960D02*
X8210D01*
Y14386*
Y13960*
X8332*
X8550Y1050D02*
X9450D01*
Y10050*
X8550*
Y1050*
Y10050D02*
X9450D01*
Y10950*
X8550*
Y10050*
X8720Y18948D02*
Y23588D01*
Y18948*
Y23912D02*
Y24088D01*
Y23912*
X8909Y11489D02*
X8951Y11548D01*
Y11622*
X8910Y11678*
X8859Y11716*
X8572*
Y11452*
X8859*
X8909Y11489*
X8951Y11548D02*
X8909Y11489D01*
X8859Y11452*
X8572*
Y11716*
X8859*
X8910Y11678*
X8951Y11622*
Y11548*
X8975Y11540D02*
Y11541D01*
Y11626*
Y11628*
Y11629*
X8974Y11631*
Y11632*
X8929Y11694*
X8927Y11695*
X8926Y11696*
Y11697*
X8870Y11738*
X8867Y11739*
X8865Y11740*
X8862*
X8559*
X8554Y11739*
X8551Y11736*
X8548Y11733*
X8547Y11728*
Y11152*
X8548Y11148*
X8551Y11145*
X8555Y11143*
X8559Y11142*
X8564Y11143*
X8568Y11145*
X8570Y11148*
X8572Y11152*
Y11428*
X8854*
X8952Y11149*
X8954Y11145*
X8959Y11142*
X8963*
X8968Y11143*
X8971Y11145*
X8974Y11148*
X8975Y11152*
Y11157*
X8877Y11435*
X8926Y11471*
X8928Y11473*
X8930Y11476*
X8974Y11536*
Y11537*
Y11538*
X8975*
Y11540*
Y11541D02*
Y11540D01*
Y11538*
X8974*
Y11537*
Y11536*
X8930Y11476*
X8928Y11473*
X8926Y11471*
X8877Y11435*
X8975Y11157*
Y11152*
X8974Y11148*
X8971Y11145*
X8968Y11143*
X8963Y11142*
X8959*
X8954Y11145*
X8952Y11149*
X8854Y11428*
X8572*
Y11152*
X8570Y11148*
X8568Y11145*
X8564Y11143*
X8559Y11142*
X8555Y11143*
X8551Y11145*
X8548Y11148*
X8547Y11152*
Y11728*
X8548Y11733*
X8551Y11736*
X8554Y11739*
X8559Y11740*
X8862*
X8865*
X8867Y11739*
X8870Y11738*
X8926Y11697*
Y11696*
X8927Y11695*
X8929Y11694*
X8974Y11632*
Y11631*
X8975Y11629*
Y11628*
Y11626*
Y11541*
X9304Y11148D02*
X9305Y11152D01*
Y11728*
X9304Y11733*
X9302Y11736*
X9299Y11737*
X9295Y11738*
X9292Y11739*
X9290*
X9287Y11738*
X9285Y11736*
X9178Y11571*
X9176Y11566*
Y11563*
X9178Y11559*
X9181Y11556*
X9185Y11553*
X9188*
X9190*
X9192*
X9195Y11556*
X9283Y11691*
Y11152*
X9284Y11148*
X9287Y11145*
X9290Y11143*
X9293Y11142*
X9298Y11143*
X9301Y11145*
X9304Y11148*
X9305Y11152D02*
X9304Y11148D01*
X9301Y11145*
X9298Y11143*
X9293Y11142*
X9290Y11143*
X9287Y11145*
X9284Y11148*
X9283Y11152*
Y11691*
X9195Y11556*
X9192Y11553*
X9190*
X9188*
X9185*
X9181Y11556*
X9178Y11559*
X9176Y11563*
Y11566*
X9178Y11571*
X9285Y11736*
X9287Y11738*
X9290Y11739*
X9292*
X9295Y11738*
X9299Y11737*
X9302Y11736*
X9304Y11733*
X9305Y11728*
Y11152*
X9450Y1050D02*
X8550D01*
Y10950*
X9450*
Y1050*
X9731Y24620D02*
X8720D01*
Y24412*
Y24620*
X9731*
X9780Y13960D02*
X8668D01*
X9780*
X10130Y15000D02*
G03X10090Y15040I40D01*
X10050Y15000J40*
X10090Y14960I40*
X10130Y15000J40*
X10090Y15040I40*
X10050Y15000J40*
X10090Y14960I40*
X10130Y15000J40*
G01X10290Y13960D02*
X10106D01*
X10290*
Y15740*
X9990Y16040*
X8210*
Y15700*
Y16040*
X9990*
X10290Y15740*
Y13960*
X10742Y24881D02*
Y24884D01*
Y25378*
X10741Y25382*
X10738Y25386*
X10735Y25387*
X10730Y25388*
X10726Y25387*
X10722Y25386*
X10719Y25382*
X10718Y25378*
Y24890*
X10625Y24814*
X10431*
X10339Y24890*
Y25378*
X10337Y25382*
X10334Y25386*
X10330Y25387*
X10325Y25388*
X10321Y25387*
X10318Y25386*
X10315Y25382*
X10313Y25378*
Y24884*
X10314Y24881*
X10315Y24879*
X10316Y24876*
X10319Y24874*
X10420Y24792*
X10422Y24791*
X10427Y24790*
X10631*
X10633*
X10634Y24791*
X10637Y24792*
X10738Y24874*
X10740Y24876*
X10741Y24879*
X10742Y24881*
Y24884D02*
Y24881D01*
X10741Y24879*
X10740Y24876*
X10738Y24874*
X10637Y24792*
X10634Y24791*
X10633Y24790*
X10631*
X10427*
X10422Y24791*
X10420Y24792*
X10319Y24874*
X10316Y24876*
X10315Y24879*
X10314Y24881*
X10313Y24884*
Y25378*
X10315Y25382*
X10318Y25386*
X10321Y25387*
X10325Y25388*
X10330Y25387*
X10334Y25386*
X10337Y25382*
X10339Y25378*
Y24890*
X10431Y24814*
X10625*
X10718Y24890*
Y25378*
X10719Y25382*
X10722Y25386*
X10726Y25387*
X10730Y25388*
X10735Y25387*
X10738Y25386*
X10741Y25382*
X10742Y25378*
Y24884*
X11280Y18380D02*
X8720D01*
Y18552*
Y18380*
X11280*
Y23588*
Y18380*
Y23912D02*
Y24620D01*
X10269*
X11280*
Y23912*
X11309Y25211D02*
Y25213D01*
Y25296*
Y25298*
X11308Y25300*
X11307Y25302*
X11305Y25305*
X11204Y25387*
X11202Y25388*
X11200Y25389*
X11199*
X11197Y25390*
X10994*
X10992Y25389*
X10991*
X10990Y25388*
X10987Y25387*
X10886Y25305*
X10883Y25302*
Y25300*
Y25298*
Y25294*
X10888Y25287*
X10892Y25285*
X10896Y25284*
X10900Y25285*
X10998Y25365*
X11192*
X11285Y25290*
Y25219*
X10886Y24894*
X10885Y24893*
X10884Y24892*
X10883Y24890*
X10882Y24886*
X10881Y24884*
Y24802*
X10882Y24797*
X10885Y24794*
X10888Y24791*
X10893Y24790*
X11297*
X11302Y24791*
X11305Y24793*
X11307Y24798*
X11308Y24802*
X11307Y24807*
X11305Y24811*
X11302Y24813*
X11297Y24814*
X10906*
Y24879*
X11305Y25203*
X11307Y25204*
X11308Y25207*
X11309Y25211*
Y25213D02*
Y25211D01*
X11308Y25207*
X11307Y25204*
X11305Y25203*
X10906Y24879*
Y24814*
X11297*
X11302Y24813*
X11305Y24811*
X11307Y24807*
X11308Y24802*
X11307Y24798*
X11305Y24793*
X11302Y24791*
X11297Y24790*
X10893*
X10888Y24791*
X10885Y24794*
X10882Y24797*
X10881Y24802*
Y24884*
X10882Y24886*
X10883Y24890*
X10884Y24892*
X10885Y24893*
X10886Y24894*
X11285Y25219*
Y25290*
X11192Y25365*
X10998*
X10900Y25285*
X10896Y25284*
X10892Y25285*
X10888Y25287*
X10883Y25294*
Y25298*
Y25300*
Y25302*
X10886Y25305*
X10987Y25387*
X10990Y25388*
X10991Y25389*
X10992*
X10994Y25390*
X11197*
X11199Y25389*
X11200*
X11202Y25388*
X11204Y25387*
X11305Y25305*
X11307Y25302*
X11308Y25300*
X11309Y25298*
Y25296*
Y25213*
X11550Y10050D02*
X12450D01*
Y10950*
X11550*
Y10050*
X11876Y11489D02*
X11918Y11548D01*
Y11622*
X11877Y11678*
X11826Y11716*
X11539*
Y11452*
X11826*
X11876Y11489*
X11882Y14692D02*
Y14802D01*
X11806Y14894*
X11653*
X11577Y14802*
Y14744*
Y14802*
X11653Y14894*
X11806*
X11882Y14802*
Y14692*
X11918Y11548D02*
X11876Y11489D01*
X11826Y11452*
X11539*
Y11716*
X11826*
X11877Y11678*
X11918Y11622*
Y11548*
X11942Y11540D02*
Y11541D01*
Y11626*
Y11628*
Y11629*
X11941Y11631*
Y11632*
X11896Y11694*
X11894Y11695*
X11893Y11696*
Y11697*
X11837Y11738*
X11834Y11739*
X11832Y11740*
X11829*
X11526*
X11521Y11739*
X11518Y11736*
X11515Y11733*
X11514Y11728*
Y11152*
X11515Y11148*
X11518Y11145*
X11522Y11143*
X11526Y11142*
X11531Y11143*
X11535Y11145*
X11537Y11148*
X11539Y11152*
Y11428*
X11821*
X11919Y11149*
X11921Y11145*
X11926Y11142*
X11930*
X11935Y11143*
X11938Y11145*
X11941Y11148*
X11942Y11152*
Y11157*
X11844Y11435*
X11893Y11471*
X11895Y11473*
X11897Y11476*
X11941Y11536*
Y11537*
Y11538*
X11942*
Y11540*
Y11541D02*
Y11540D01*
Y11538*
X11941*
Y11537*
Y11536*
X11897Y11476*
X11895Y11473*
X11893Y11471*
X11844Y11435*
X11942Y11157*
Y11152*
X11941Y11148*
X11938Y11145*
X11935Y11143*
X11930Y11142*
X11926*
X11921Y11145*
X11919Y11149*
X11821Y11428*
X11539*
Y11152*
X11537Y11148*
X11535Y11145*
X11531Y11143*
X11526Y11142*
X11522Y11143*
X11518Y11145*
X11515Y11148*
X11514Y11152*
Y11728*
X11515Y11733*
X11518Y11736*
X11521Y11739*
X11526Y11740*
X11829*
X11832*
X11834Y11739*
X11837Y11738*
X11893Y11697*
Y11696*
X11894Y11695*
X11896Y11694*
X11941Y11632*
Y11631*
X11942Y11629*
Y11628*
Y11626*
Y11541*
X12151Y15070D02*
X12150Y15065D01*
X12148Y15062*
X12145Y15059*
X12140Y15058*
X11647*
X11644*
X11641Y15059*
X11639Y15060*
X11637Y15062*
X11555Y15163*
X11554Y15166*
X11553Y15167*
X11552Y15169*
Y15269*
Y15169*
X11553Y15167*
X11554Y15166*
X11555Y15163*
X11637Y15062*
X11639Y15060*
X11641Y15059*
X11644Y15058*
X11647*
X12140*
X12145Y15059*
X12148Y15062*
X12150Y15065*
X12151Y15070*
X12150Y15074*
X12148Y15078*
X12145Y15081*
X12140Y15082*
X11653*
X11577Y15175*
Y15256*
Y15175*
X11653Y15082*
X12140*
X12145Y15081*
X12148Y15078*
X12150Y15074*
X12151Y15070*
Y15475D02*
X12150Y15470D01*
X12148Y15466*
X12145Y15463*
X12140Y15461*
X11959*
X12140*
X12145Y15463*
X12148Y15466*
X12150Y15470*
X12151Y15475*
X12150Y15479*
X12148Y15482*
X12145Y15485*
X12140Y15487*
X11961*
X12140*
X12145Y15485*
X12148Y15482*
X12150Y15479*
X12151Y15475*
X12152Y14603D02*
Y14601D01*
Y14600*
X12151*
Y14598*
X12150Y14596*
X12068Y14495*
X12065Y14492*
X12060Y14491*
X12057Y14492*
X12054Y14493*
X12051Y14495*
X12049Y14498*
X12047Y14501*
X12046Y14504*
Y14507*
X12048Y14509*
X12128Y14608*
Y14802*
X12052Y14894*
X11837*
X11903Y14813*
X11904Y14810*
X11905Y14809*
X11906Y14806*
Y14665*
Y14806*
X11905Y14809*
X11904Y14810*
X11903Y14813*
X11837Y14894*
X12052*
X12128Y14802*
Y14608*
X12048Y14509*
X12046Y14507*
Y14504*
X12047Y14501*
X12049Y14498*
X12051Y14495*
X12054Y14493*
X12057Y14492*
X12060Y14491*
X12065Y14492*
X12068Y14495*
X12150Y14596*
X12151Y14598*
Y14600*
X12152*
Y14601*
Y14603*
Y14806*
Y14808*
X12151Y14809*
Y14810*
X12150Y14813*
X12068Y14914*
X12066Y14915*
X12065Y14916*
X12064Y14917*
X12061Y14918*
X12058Y14919*
X11647*
X11645Y14918*
X11641Y14917*
X11639Y14916*
X11638Y14915*
X11637Y14914*
X11555Y14813*
X11554Y14810*
X11552Y14806*
Y14731*
Y14806*
X11554Y14810*
X11555Y14813*
X11637Y14914*
X11638Y14915*
X11639Y14916*
X11641Y14917*
X11645Y14918*
X11647Y14919*
X12058*
X12061Y14918*
X12064Y14917*
X12065Y14916*
X12066Y14915*
X12068Y14914*
X12150Y14813*
X12151Y14810*
Y14809*
X12152Y14808*
Y14806*
Y14603*
X12450Y5270D02*
Y7812D01*
Y5270*
Y8188D02*
Y10050D01*
X11550*
Y1050*
X12450*
Y4730*
Y1050*
X11550*
Y10950*
X12450*
Y8188*
X12509Y11520D02*
Y11521D01*
Y11565*
Y11567*
Y11569*
X12470Y11665*
X12469Y11667*
X12467Y11669*
X12410Y11719*
X12407Y11721*
X12405Y11723*
X12339Y11740*
X12255*
X12253*
X12251Y11739*
X12186Y11722*
X12181Y11719*
X12124Y11670*
X12122Y11668*
X12121Y11665*
X12082Y11569*
X12081Y11564*
X12083Y11560*
X12086Y11557*
X12089Y11554*
X12094Y11553*
X12098Y11554*
X12103Y11556*
X12105Y11559*
X12142Y11652*
X12195Y11700*
X12255Y11716*
X12333*
X12396Y11698*
X12449Y11652*
X12485Y11560*
Y11526*
X12468Y11490*
X12331Y11410*
X12330*
X12126Y11295*
X12124Y11294*
X12122Y11291*
X12083Y11242*
X12082Y11241*
Y11240*
X12081Y11238*
Y11152*
X12082Y11148*
X12085Y11145*
X12088Y11142*
X12093Y11140*
X12497*
X12502Y11142*
X12505Y11144*
X12507Y11148*
X12508Y11152*
X12507Y11157*
X12505Y11161*
X12502Y11164*
X12497Y11165*
X12106*
Y11230*
X12140Y11275*
X12342Y11389*
X12343*
X12483Y11470*
X12484*
X12487Y11472*
X12488Y11475*
X12508Y11517*
X12509Y11518*
Y11520*
Y11521D02*
Y11520D01*
Y11518*
X12508Y11517*
X12488Y11475*
X12487Y11472*
X12484Y11470*
X12483*
X12343Y11389*
X12342*
X12140Y11275*
X12106Y11230*
Y11165*
X12497*
X12502Y11164*
X12505Y11161*
X12507Y11157*
X12508Y11152*
X12507Y11148*
X12505Y11144*
X12502Y11142*
X12497Y11140*
X12093*
X12088Y11142*
X12085Y11145*
X12082Y11148*
X12081Y11152*
Y11238*
X12082Y11240*
Y11241*
X12083Y11242*
X12122Y11291*
X12124Y11294*
X12126Y11295*
X12330Y11410*
X12331*
X12468Y11490*
X12485Y11526*
Y11560*
X12449Y11652*
X12396Y11698*
X12333Y11716*
X12255*
X12195Y11700*
X12142Y11652*
X12105Y11559*
X12103Y11556*
X12098Y11554*
X12094Y11553*
X12089Y11554*
X12086Y11557*
X12083Y11560*
X12081Y11564*
X12082Y11569*
X12121Y11665*
X12122Y11668*
X12124Y11670*
X12181Y11719*
X12186Y11722*
X12251Y11739*
X12253Y11740*
X12255*
X12339*
X12405Y11723*
X12407Y11721*
X12410Y11719*
X12467Y11669*
X12469Y11667*
X12470Y11665*
X12509Y11569*
Y11567*
Y11565*
Y11521*
X13782Y13280D02*
X13750D01*
Y13306*
Y13280*
X13782*
X13990Y16500D02*
G03X13950Y16540I40D01*
X13910Y16500J40*
X13950Y16460I40*
X13990Y16500J40*
X13950Y16540I40*
X13910Y16500J40*
X13950Y16460I40*
X13990Y16500J40*
G01X14044Y16720D02*
X13750D01*
Y13694*
Y16720*
X14044*
X14192Y17281D02*
Y17284D01*
Y17778*
X14191Y17782*
X14188Y17786*
X14185Y17787*
X14180Y17788*
X14176Y17787*
X14172Y17786*
X14169Y17782*
X14168Y17778*
Y17290*
X14075Y17214*
X13881*
X13789Y17290*
Y17778*
X13787Y17782*
X13784Y17786*
X13780Y17787*
X13775Y17788*
X13771Y17787*
X13768Y17786*
X13765Y17782*
X13763Y17778*
Y17284*
X13764Y17281*
X13765Y17279*
X13766Y17276*
X13769Y17274*
X13870Y17192*
X13872Y17191*
X13877Y17190*
X14081*
X14083*
X14084Y17191*
X14087Y17192*
X14188Y17274*
X14190Y17276*
X14191Y17279*
X14192Y17281*
Y17284D02*
Y17281D01*
X14191Y17279*
X14190Y17276*
X14188Y17274*
X14087Y17192*
X14084Y17191*
X14083Y17190*
X14081*
X13877*
X13872Y17191*
X13870Y17192*
X13769Y17274*
X13766Y17276*
X13765Y17279*
X13764Y17281*
X13763Y17284*
Y17778*
X13765Y17782*
X13768Y17786*
X13771Y17787*
X13775Y17788*
X13780Y17787*
X13784Y17786*
X13787Y17782*
X13789Y17778*
Y17290*
X13881Y17214*
X14075*
X14168Y17290*
Y17778*
X14169Y17782*
X14172Y17786*
X14176Y17787*
X14180Y17788*
X14185Y17787*
X14188Y17786*
X14191Y17782*
X14192Y17778*
Y17284*
X14720Y18948D02*
Y24088D01*
Y18948*
X14750Y13280D02*
X14095D01*
X14750*
Y16720*
X14456*
X14750*
Y13280*
X14758Y17772D02*
X14759Y17775D01*
Y17780*
X14758Y17782*
X14756Y17786*
X14753Y17788*
X14750Y17789*
X14747Y17790*
X14342*
X14338Y17789*
X14335Y17786*
X14333Y17782*
X14332Y17777*
X14333Y17773*
X14335Y17769*
X14338Y17766*
X14342Y17765*
X14727*
X14414Y17208*
X14413Y17204*
Y17199*
X14416Y17196*
X14419Y17193*
X14423Y17192*
X14428*
X14431Y17193*
X14434Y17196*
X14758Y17772*
X14759Y17775D02*
X14758Y17772D01*
X14434Y17196*
X14431Y17193*
X14428Y17192*
X14423*
X14419Y17193*
X14416Y17196*
X14413Y17199*
Y17204*
X14414Y17208*
X14727Y17765*
X14342*
X14338Y17766*
X14335Y17769*
X14333Y17773*
X14332Y17777*
X14333Y17782*
X14335Y17786*
X14338Y17789*
X14342Y17790*
X14747*
X14750Y17789*
X14753Y17788*
X14756Y17786*
X14758Y17782*
X14759Y17780*
Y17775*
X14782Y7280D02*
X14750D01*
Y7306*
Y7280*
X14782*
X14829Y11281D02*
X14830Y11284D01*
Y11778*
X14828Y11782*
X14825Y11786*
X14822Y11787*
X14818Y11788*
X14813Y11787*
X14809Y11786*
X14806Y11782*
Y11778*
Y11290*
X14712Y11214*
X14518*
X14426Y11290*
Y11778*
X14425Y11782*
X14422Y11786*
X14417Y11787*
X14413Y11788*
X14408Y11787*
X14405Y11786*
X14402Y11782*
X14401Y11778*
Y11284*
Y11281*
X14402Y11279*
X14404Y11276*
X14406Y11274*
X14507Y11192*
X14509Y11191*
X14514Y11190*
X14719*
X14720*
X14721Y11191*
X14724Y11192*
X14825Y11274*
X14827Y11276*
X14828Y11279*
X14829Y11281*
X14830Y11284D02*
X14829Y11281D01*
X14828Y11279*
X14827Y11276*
X14825Y11274*
X14724Y11192*
X14721Y11191*
X14720Y11190*
X14719*
X14514*
X14509Y11191*
X14507Y11192*
X14406Y11274*
X14404Y11276*
X14402Y11279*
X14401Y11281*
Y11284*
Y11778*
X14402Y11782*
X14405Y11786*
X14408Y11787*
X14413Y11788*
X14417Y11787*
X14422Y11786*
X14425Y11782*
X14426Y11778*
Y11290*
X14518Y11214*
X14712*
X14806Y11290*
Y11778*
Y11782*
X14809Y11786*
X14813Y11787*
X14818Y11788*
X14822Y11787*
X14825Y11786*
X14828Y11782*
X14830Y11778*
Y11284*
X14990Y5000D02*
G03X14950Y5040I40D01*
X14910Y5000J40*
X14950Y4960I40*
X14990Y5000J40*
G01Y10500D02*
G03X14950Y10540I40D01*
X14910Y10500J40*
X14950Y10460I40*
X14990Y10500J40*
G01Y5000D02*
G03X14950Y5040I40D01*
X14910Y5000J40*
X14950Y4960I40*
X14990Y5000J40*
G01Y10500D02*
G03X14950Y10540I40D01*
X14910Y10500J40*
X14950Y10460I40*
X14990Y10500J40*
G01X15099Y10720D02*
X14750D01*
Y7694*
Y10720*
X15099*
X15298Y11198D02*
X15299Y11202D01*
X15298Y11207*
X15296Y11211*
X15293Y11213*
X15289Y11214*
X15183*
Y11778*
X15182Y11782*
X15181Y11785*
X15178Y11787*
X15173*
X15170Y11788*
X15167*
X15165Y11787*
X15163Y11784*
X15046Y11620*
X15044Y11616*
Y11612*
X15046Y11608*
X15049Y11605*
X15052Y11603*
X15056Y11601*
X15059*
X15061Y11602*
X15064Y11606*
X15160Y11740*
Y11214*
X15055*
X15050Y11213*
X15047Y11211*
X15046Y11207*
X15045Y11202*
X15046Y11198*
X15047Y11193*
X15050Y11190*
X15055*
X15289*
X15293*
X15296Y11193*
X15298Y11198*
X15299Y11202D02*
X15298Y11198D01*
X15296Y11193*
X15293Y11190*
X15289*
X15055*
X15050*
X15047Y11193*
X15046Y11198*
X15045Y11202*
X15046Y11207*
X15047Y11211*
X15050Y11213*
X15055Y11214*
X15160*
Y11740*
X15064Y11606*
X15061Y11602*
X15059Y11601*
X15056*
X15052Y11603*
X15049Y11605*
X15046Y11608*
X15044Y11612*
Y11616*
X15046Y11620*
X15163Y11784*
X15165Y11787*
X15167Y11788*
X15170*
X15173Y11787*
X15178*
X15181Y11785*
X15182Y11782*
X15183Y11778*
Y11214*
X15289*
X15293Y11213*
X15296Y11211*
X15298Y11207*
X15299Y11202*
X15731Y24620D02*
X14720D01*
Y24412*
Y24620*
X15731*
X15750Y1780D02*
X15159D01*
X15750*
Y5220*
X14750*
Y2129*
Y5220*
X15750*
Y1780*
Y7280D02*
X15095D01*
X15750*
Y10720*
X15510*
X15750*
Y7280*
X15844Y11198D02*
X15845Y11202D01*
X15844Y11207*
X15842Y11211*
X15839Y11213*
X15835Y11214*
X15729*
Y11778*
X15728Y11782*
X15727Y11785*
X15724Y11787*
X15719*
X15716Y11788*
X15713*
X15711Y11787*
X15709Y11784*
X15592Y11620*
X15590Y11616*
Y11612*
X15592Y11608*
X15595Y11605*
X15598Y11603*
X15602Y11601*
X15605*
X15607Y11602*
X15610Y11606*
X15706Y11740*
Y11214*
X15601*
X15596Y11213*
X15593Y11211*
X15592Y11207*
X15591Y11202*
X15592Y11198*
X15593Y11193*
X15596Y11190*
X15601*
X15835*
X15839*
X15842Y11193*
X15844Y11198*
X15845Y11202D02*
X15844Y11198D01*
X15842Y11193*
X15839Y11190*
X15835*
X15601*
X15596*
X15593Y11193*
X15592Y11198*
X15591Y11202*
X15592Y11207*
X15593Y11211*
X15596Y11213*
X15601Y11214*
X15706*
Y11740*
X15610Y11606*
X15607Y11602*
X15605Y11601*
X15602*
X15598Y11603*
X15595Y11605*
X15592Y11608*
X15590Y11612*
Y11616*
X15592Y11620*
X15709Y11784*
X15711Y11787*
X15713Y11788*
X15716*
X15719Y11787*
X15724*
X15727Y11785*
X15728Y11782*
X15729Y11778*
Y11214*
X15835*
X15839Y11213*
X15842Y11211*
X15844Y11207*
X15845Y11202*
X16019Y5481D02*
Y5484D01*
Y5978*
X16018Y5982*
X16015Y5986*
X16012Y5987*
X16007Y5988*
X16003Y5987*
X15999Y5986*
X15996Y5982*
X15995Y5978*
Y5490*
X15902Y5414*
X15708*
X15616Y5490*
Y5978*
X15614Y5982*
X15611Y5986*
X15607Y5987*
X15602Y5988*
X15598Y5987*
X15595Y5986*
X15592Y5982*
X15590Y5978*
Y5484*
X15591Y5481*
X15592Y5479*
X15593Y5476*
X15596Y5474*
X15697Y5392*
X15699Y5391*
X15704Y5390*
X15908*
X15910*
X15911Y5391*
X15914Y5392*
X16015Y5474*
X16017Y5476*
X16018Y5479*
X16019Y5481*
Y5484D02*
Y5481D01*
X16018Y5479*
X16017Y5476*
X16015Y5474*
X15914Y5392*
X15911Y5391*
X15910Y5390*
X15908*
X15704*
X15699Y5391*
X15697Y5392*
X15596Y5474*
X15593Y5476*
X15592Y5479*
X15591Y5481*
X15590Y5484*
Y5978*
X15592Y5982*
X15595Y5986*
X15598Y5987*
X15602Y5988*
X15607Y5987*
X15611Y5986*
X15614Y5982*
X15616Y5978*
Y5490*
X15708Y5414*
X15902*
X15995Y5490*
Y5978*
X15996Y5982*
X15999Y5986*
X16003Y5987*
X16007Y5988*
X16012Y5987*
X16015Y5986*
X16018Y5982*
X16019Y5978*
Y5484*
X16347Y24620D02*
X16269D01*
X16347*
X16488Y5398D02*
X16489Y5402D01*
X16488Y5407*
X16486Y5411*
X16483Y5413*
X16478Y5414*
X16373*
Y5978*
X16372Y5982*
X16370Y5985*
X16367Y5987*
X16363*
X16360Y5988*
X16357*
X16355Y5987*
X16352Y5984*
X16235Y5820*
X16234Y5816*
Y5812*
X16235Y5808*
X16238Y5805*
X16242Y5803*
X16246Y5801*
X16249*
X16250Y5802*
X16253Y5806*
X16349Y5940*
Y5414*
X16244*
X16240Y5413*
X16237Y5411*
X16235Y5407*
Y5402*
Y5398*
X16237Y5393*
X16240Y5390*
X16244*
X16478*
X16483*
X16486Y5393*
X16488Y5398*
X16489Y5402D02*
X16488Y5398D01*
X16486Y5393*
X16483Y5390*
X16478*
X16244*
X16240*
X16237Y5393*
X16235Y5398*
Y5402*
Y5407*
X16237Y5411*
X16240Y5413*
X16244Y5414*
X16349*
Y5940*
X16253Y5806*
X16250Y5802*
X16249Y5801*
X16246*
X16242Y5803*
X16238Y5805*
X16235Y5808*
X16234Y5812*
Y5816*
X16235Y5820*
X16352Y5984*
X16355Y5987*
X16357Y5988*
X16360*
X16363Y5987*
X16367*
X16370Y5985*
X16372Y5982*
X16373Y5978*
Y5414*
X16478*
X16483Y5413*
X16486Y5411*
X16488Y5407*
X16489Y5402*
X16742Y24881D02*
Y24884D01*
Y25378*
X16741Y25382*
X16738Y25386*
X16735Y25387*
X16730Y25388*
X16726Y25387*
X16722Y25386*
X16719Y25382*
X16718Y25378*
Y24890*
X16625Y24814*
X16431*
X16339Y24890*
Y25378*
X16337Y25382*
X16334Y25386*
X16330Y25387*
X16325Y25388*
X16321Y25387*
X16318Y25386*
X16315Y25382*
X16313Y25378*
Y24884*
X16314Y24881*
X16315Y24879*
X16316Y24876*
X16319Y24874*
X16420Y24792*
X16422Y24791*
X16427Y24790*
X16631*
X16633*
X16634Y24791*
X16637Y24792*
X16738Y24874*
X16740Y24876*
X16741Y24879*
X16742Y24881*
Y24884D02*
Y24881D01*
X16741Y24879*
X16740Y24876*
X16738Y24874*
X16637Y24792*
X16634Y24791*
X16633Y24790*
X16631*
X16427*
X16422Y24791*
X16420Y24792*
X16319Y24874*
X16316Y24876*
X16315Y24879*
X16314Y24881*
X16313Y24884*
Y25378*
X16315Y25382*
X16318Y25386*
X16321Y25387*
X16325Y25388*
X16330Y25387*
X16334Y25386*
X16337Y25382*
X16339Y25378*
Y24890*
X16431Y24814*
X16625*
X16718Y24890*
Y25378*
X16719Y25382*
X16722Y25386*
X16726Y25387*
X16730Y25388*
X16735Y25387*
X16738Y25386*
X16741Y25382*
X16742Y25378*
Y24884*
X17132Y5770D02*
Y5772D01*
Y5896*
Y5898*
X17131Y5900*
X17130Y5902*
X17128Y5905*
X17027Y5987*
X17025Y5988*
X17023Y5989*
X17022*
X17019Y5990*
X16817*
X16814Y5989*
X16812Y5988*
X16810Y5987*
X16709Y5905*
X16706Y5902*
X16705Y5898*
X16706Y5894*
X16708Y5890*
X16711Y5887*
X16715Y5885*
X16719Y5884*
X16723Y5885*
X16821Y5965*
X17015*
X17108Y5890*
Y5778*
X17016Y5702*
X16916*
X16912Y5701*
X16909Y5698*
X16907Y5694*
X16906Y5690*
X16907Y5686*
X16909Y5681*
X16912Y5679*
X16916Y5678*
X17016*
X17108Y5602*
Y5490*
X17015Y5414*
X16821*
X16723Y5494*
X16719Y5495*
X16715*
X16711Y5492*
X16708Y5489*
X16706Y5485*
X16705Y5481*
X16706Y5477*
X16709Y5474*
X16810Y5392*
X16812Y5391*
X16817Y5390*
X17021*
X17022*
X17024*
Y5391*
X17027Y5392*
X17128Y5474*
X17130Y5476*
X17131Y5479*
X17132Y5481*
Y5484*
Y5608*
Y5609*
X17131Y5614*
Y5615*
X17130*
X17129Y5617*
X17128Y5618*
X17040Y5690*
X17128Y5762*
X17130Y5763*
X17131Y5766*
X17132Y5770*
Y5772D02*
Y5770D01*
X17131Y5766*
X17130Y5763*
X17128Y5762*
X17040Y5690*
X17128Y5618*
X17129Y5617*
X17130Y5615*
X17131*
Y5614*
X17132Y5609*
Y5608*
Y5484*
Y5481*
X17131Y5479*
X17130Y5476*
X17128Y5474*
X17027Y5392*
X17024Y5391*
Y5390*
X17022*
X17021*
X16817*
X16812Y5391*
X16810Y5392*
X16709Y5474*
X16706Y5477*
X16705Y5481*
X16706Y5485*
X16708Y5489*
X16711Y5492*
X16715Y5495*
X16719*
X16723Y5494*
X16821Y5414*
X17015*
X17108Y5490*
Y5602*
X17016Y5678*
X16916*
X16912Y5679*
X16909Y5681*
X16907Y5686*
X16906Y5690*
X16907Y5694*
X16909Y5698*
X16912Y5701*
X16916Y5702*
X17016*
X17108Y5778*
Y5890*
X17015Y5965*
X16821*
X16723Y5885*
X16719Y5884*
X16715Y5885*
X16711Y5887*
X16708Y5890*
X16706Y5894*
X16705Y5898*
X16706Y5902*
X16709Y5905*
X16810Y5987*
X16812Y5988*
X16814Y5989*
X16817Y5990*
X17019*
X17022Y5989*
X17023*
X17025Y5988*
X17027Y5987*
X17128Y5905*
X17130Y5902*
X17131Y5900*
X17132Y5898*
Y5896*
Y5772*
X17280Y18380D02*
X14720D01*
Y18552*
Y18380*
X17280*
Y24091*
Y18380*
Y24169D02*
Y24620D01*
X16662*
X17280*
Y24169*
X17309Y25170D02*
Y25172D01*
Y25296*
Y25298*
X17308Y25300*
X17307Y25302*
X17305Y25305*
X17204Y25387*
X17202Y25388*
X17200Y25389*
X17199*
X17196Y25390*
X16994*
X16991Y25389*
X16989Y25388*
X16987Y25387*
X16886Y25305*
X16883Y25302*
X16882Y25298*
X16883Y25294*
X16885Y25290*
X16888Y25287*
X16892Y25285*
X16896Y25284*
X16900Y25285*
X16998Y25365*
X17192*
X17285Y25290*
Y25178*
X17193Y25102*
X17093*
X17089Y25101*
X17086Y25098*
X17084Y25094*
X17083Y25090*
X17084Y25086*
X17086Y25081*
X17089Y25079*
X17093Y25078*
X17193*
X17285Y25002*
Y24890*
X17192Y24814*
X16998*
X16900Y24894*
X16896Y24895*
X16892*
X16888Y24892*
X16885Y24889*
X16883Y24885*
X16882Y24881*
X16883Y24877*
X16886Y24874*
X16987Y24792*
X16989Y24791*
X16994Y24790*
X17198*
X17199*
X17201*
Y24791*
X17204Y24792*
X17305Y24874*
X17307Y24876*
X17308Y24879*
X17309Y24881*
Y24884*
Y25008*
Y25009*
X17308Y25014*
Y25015*
X17307*
X17306Y25017*
X17305Y25018*
X17217Y25090*
X17305Y25162*
X17307Y25163*
X17308Y25166*
X17309Y25170*
Y25172D02*
Y25170D01*
X17308Y25166*
X17307Y25163*
X17305Y25162*
X17217Y25090*
X17305Y25018*
X17306Y25017*
X17307Y25015*
X17308*
Y25014*
X17309Y25009*
Y25008*
Y24884*
Y24881*
X17308Y24879*
X17307Y24876*
X17305Y24874*
X17204Y24792*
X17201Y24791*
Y24790*
X17199*
X17198*
X16994*
X16989Y24791*
X16987Y24792*
X16886Y24874*
X16883Y24877*
X16882Y24881*
X16883Y24885*
X16885Y24889*
X16888Y24892*
X16892Y24895*
X16896*
X16900Y24894*
X16998Y24814*
X17192*
X17285Y24890*
Y25002*
X17193Y25078*
X17093*
X17089Y25079*
X17086Y25081*
X17084Y25086*
X17083Y25090*
X17084Y25094*
X17086Y25098*
X17089Y25101*
X17093Y25102*
X17193*
X17285Y25178*
Y25290*
X17192Y25365*
X16998*
X16900Y25285*
X16896Y25284*
X16892Y25285*
X16888Y25287*
X16885Y25290*
X16883Y25294*
X16882Y25298*
X16883Y25302*
X16886Y25305*
X16987Y25387*
X16989Y25388*
X16991Y25389*
X16994Y25390*
X17196*
X17199Y25389*
X17200*
X17202Y25388*
X17204Y25387*
X17305Y25305*
X17307Y25302*
X17308Y25300*
X17309Y25298*
Y25296*
Y25172*
X17495Y17234D02*
X17494Y17231D01*
X17493Y17229*
X17492Y17226*
X17491Y17224*
X17444Y17187*
X17491Y17224*
X17492Y17226*
X17493Y17229*
X17494Y17231*
X17495Y17234*
Y17728*
X17494Y17732*
X17491Y17736*
X17487Y17737*
X17483Y17738*
X17479Y17737*
X17474Y17736*
X17471Y17732*
Y17728*
Y17240*
X17377Y17164*
X17183*
X17091Y17240*
Y17728*
X17090Y17732*
X17087Y17736*
X17083Y17737*
X17078Y17738*
X17074Y17737*
X17070Y17736*
X17067Y17732*
X17066Y17728*
Y17234*
Y17231*
X17068Y17229*
X17069Y17226*
X17071Y17224*
X17173Y17142*
X17174Y17141*
X17179Y17140*
X17364*
X17179*
X17174Y17141*
X17173Y17142*
X17071Y17224*
X17069Y17226*
X17068Y17229*
X17066Y17231*
Y17234*
Y17728*
X17067Y17732*
X17070Y17736*
X17074Y17737*
X17078Y17738*
X17083Y17737*
X17087Y17736*
X17090Y17732*
X17091Y17728*
Y17240*
X17183Y17164*
X17377*
X17471Y17240*
Y17728*
Y17732*
X17474Y17736*
X17479Y17737*
X17483Y17738*
X17487Y17737*
X17491Y17736*
X17494Y17732*
X17495Y17728*
Y17234*
X17782Y13280D02*
X17750D01*
Y13306*
Y13280*
X17782*
X17959Y17164D02*
X18013Y17219D01*
Y17397*
X17995Y17448*
X17713*
X17696Y17397*
Y17219*
X17750Y17164*
X17959*
X17990Y16500D02*
G03X17950Y16540I40D01*
X17910Y16500J40*
X17950Y16460I40*
X17990Y16500J40*
X17950Y16540I40*
X17910Y16500J40*
X17950Y16460I40*
X17990Y16500J40*
G01X17995Y17472D02*
X18013Y17524D01*
Y17660*
X17959Y17715*
X17750*
X17696Y17660*
Y17524*
X17713Y17472*
X17995*
X18013Y17219D02*
X17959Y17164D01*
X17750*
X17696Y17219*
Y17397*
X17713Y17448*
X17995*
X18013Y17397*
Y17219*
Y17524D02*
X17995Y17472D01*
X17713*
X17696Y17524*
Y17660*
X17750Y17715*
X17959*
X18013Y17660*
Y17524*
X18036Y17519D02*
X18037Y17520D01*
Y17667*
X18035Y17671*
X18033Y17675*
X17973Y17737*
X17971Y17739*
X17967*
X17965Y17740*
X17743*
X17741Y17739*
X17738*
X17736Y17737*
X17676Y17675*
X17674Y17672*
X17672Y17669*
Y17519*
X17673Y17518*
X17692Y17461*
X17673Y17403*
X17672*
Y17210*
X17674Y17208*
X17676Y17205*
X17736Y17143*
X17738Y17141*
X17741Y17140*
X17743*
X17965*
X17967*
X17971Y17141*
X17973Y17143*
X18033Y17205*
X18035Y17208*
X18036Y17210*
X18037Y17212*
Y17399*
X18036Y17401*
Y17403*
X18017Y17461*
X18036Y17518*
Y17519*
X18037Y17520D02*
X18036Y17519D01*
Y17518*
X18017Y17461*
X18036Y17403*
Y17401*
X18037Y17399*
Y17212*
X18036Y17210*
X18035Y17208*
X18033Y17205*
X17973Y17143*
X17971Y17141*
X17967Y17140*
X17965*
X17743*
X17741*
X17738Y17141*
X17736Y17143*
X17676Y17205*
X17674Y17208*
X17672Y17210*
Y17403*
X17673*
X17692Y17461*
X17673Y17518*
X17672Y17519*
Y17669*
X17674Y17672*
X17676Y17675*
X17736Y17737*
X17738Y17739*
X17741*
X17743Y17740*
X17965*
X17967Y17739*
X17971*
X17973Y17737*
X18033Y17675*
X18035Y17671*
X18037Y17667*
Y17520*
X18044Y16720D02*
X17750D01*
Y13694*
Y16720*
X18044*
X18750Y13280D02*
X18095D01*
X18750*
Y16720*
X18456*
X18750*
Y13280*
X20368Y9811D02*
X20818Y10114D01*
X20786Y10130*
X20644Y10144*
X20563*
X20420Y10133*
X20374Y10106*
X20334Y10046*
X20328Y9992*
Y9914*
X20334Y9861*
X20368Y9811*
X20426Y10137D02*
X20427Y10142D01*
Y10146*
X20424Y10150*
X20422Y10153*
X20418Y10156*
X20417*
X20415*
X20410Y10155*
X20408Y10153*
X20406Y10148*
Y10144*
Y10139*
X20409Y10136*
X20412Y10133*
X20417Y10132*
X20420Y10133*
X20423Y10134*
X20426Y10137*
X20470Y18948D02*
Y20588D01*
Y18948*
X20500Y820D02*
X25800D01*
Y5180*
X20500*
Y820*
X20710Y24250D02*
G03X20670Y24290I40D01*
X20630Y24250J40*
X20670Y24210I40*
X20710Y24250J40*
X20670Y24290I40*
X20630Y24250J40*
X20670Y24210I40*
X20710Y24250J40*
G01X20872Y9860D02*
X20879Y9914D01*
Y9992*
X20872Y10046*
X20837Y10099*
X20388Y9796*
X20419Y9778*
X20565Y9764*
X20644*
X20785Y9776*
X20833Y9805*
X20872Y9860*
X20879Y9914D02*
X20872Y9860D01*
X20833Y9805*
X20785Y9776*
X20644Y9764*
X20565*
X20419Y9778*
X20388Y9796*
X20837Y10099*
X20872Y10046*
X20879Y9992*
Y9914*
X20896Y9856D02*
X20904Y9912D01*
Y9997*
X20896Y10052*
Y10054*
X20895*
X20894Y10057*
X20852Y10121*
X20850Y10123*
X20847Y10126*
X20795Y10153*
X20793Y10154*
X20790*
X20647Y10168*
X20560*
X20417Y10156*
X20418*
X20422Y10153*
X20424Y10150*
X20427Y10146*
Y10142*
X20426Y10137*
X20423Y10134*
X20420Y10133*
X20563Y10144*
X20644*
X20786Y10130*
X20818Y10114*
X20368Y9811*
X20334Y9861*
X20328Y9914*
Y9992*
X20334Y10046*
X20374Y10106*
X20420Y10133*
X20417Y10132*
X20412Y10133*
X20409Y10136*
X20406Y10139*
Y10144*
Y10148*
X20408Y10153*
X20410Y10155*
X20415Y10156*
X20417*
X20414Y10157*
X20410Y10156*
X20358Y10126*
X20357Y10125*
Y10124*
X20354Y10121*
X20313Y10057*
X20312Y10055*
X20311Y10052*
X20304Y9997*
Y9912*
X20311Y9856*
X20312Y9853*
X20313Y9850*
X20354Y9787*
X20356Y9785*
X20359Y9784*
X20410Y9756*
X20412Y9755*
X20414Y9754*
X20560Y9740*
X20647*
X20790Y9752*
X20793*
X20796Y9754*
X20848Y9784*
X20850Y9786*
X20852Y9790*
X20893Y9850*
X20895Y9851*
X20896Y9856*
X20901Y11219D02*
X20902Y11224D01*
X20901Y11228*
X20899Y11233*
X20896Y11235*
X20892Y11236*
X20442*
X20440Y11237*
X20437Y11236*
X20377Y11224*
X20374Y11222*
X20373Y11221*
X20371Y11219*
X20345Y11191*
Y11190*
X20342Y11186*
X20312Y11124*
Y11123*
X20311Y11122*
Y11120*
X20304Y11065*
Y10980*
X20311Y10924*
X20312Y10922*
Y10920*
X20342Y10856*
X20343Y10855*
X20344Y10853*
X20345Y10852*
X20371Y10824*
X20373Y10823*
X20377Y10820*
X20437Y10808*
X20892*
X20896Y10809*
X20899Y10811*
X20901Y10816*
X20902Y10820*
X20901Y10824*
X20899Y10828*
X20896Y10831*
X20892Y10832*
X20442*
X20386Y10844*
X20364Y10867*
X20334Y10928*
X20328Y10982*
Y11060*
X20334Y11116*
X20364Y11176*
X20386Y11200*
X20442Y11212*
X20892*
X20896Y11213*
X20899Y11215*
X20901Y11219*
Y10488D02*
X20902Y10491D01*
Y10493*
X20901Y10496*
X20899Y10498*
X20734Y10606*
X20730Y10607*
X20726*
X20722Y10605*
X20719Y10602*
X20717Y10598*
X20716Y10595*
Y10591*
X20719Y10588*
X20854Y10500*
X20316*
X20311Y10499*
X20308Y10496*
X20306Y10493*
X20305Y10490*
X20306Y10486*
X20308Y10482*
X20311Y10479*
X20316Y10478*
X20892*
X20896Y10479*
X20899Y10481*
X20901Y10484*
Y10488*
X20902Y11224D02*
X20901Y11219D01*
X20899Y11215*
X20896Y11213*
X20892Y11212*
X20442*
X20386Y11200*
X20364Y11176*
X20334Y11116*
X20328Y11060*
Y10982*
X20334Y10928*
X20364Y10867*
X20386Y10844*
X20442Y10832*
X20892*
X20896Y10831*
X20899Y10828*
X20901Y10824*
X20902Y10820*
X20901Y10816*
X20899Y10811*
X20896Y10809*
X20892Y10808*
X20437*
X20377Y10820*
X20373Y10823*
X20371Y10824*
X20345Y10852*
X20344Y10853*
X20343Y10855*
X20342Y10856*
X20312Y10920*
Y10922*
X20311Y10924*
X20304Y10980*
Y11065*
X20311Y11120*
Y11122*
X20312Y11123*
Y11124*
X20342Y11186*
X20345Y11190*
Y11191*
X20371Y11219*
X20373Y11221*
X20374Y11222*
X20377Y11224*
X20437Y11236*
X20440Y11237*
X20442Y11236*
X20892*
X20896Y11235*
X20899Y11233*
X20901Y11228*
X20902Y11224*
Y10491D02*
X20901Y10488D01*
Y10484*
X20899Y10481*
X20896Y10479*
X20892Y10478*
X20316*
X20311Y10479*
X20308Y10482*
X20306Y10486*
X20305Y10490*
X20306Y10493*
X20308Y10496*
X20311Y10499*
X20316Y10500*
X20854*
X20719Y10588*
X20716Y10591*
Y10595*
X20717Y10598*
X20719Y10602*
X20722Y10605*
X20726Y10607*
X20730*
X20734Y10606*
X20899Y10498*
X20901Y10496*
X20902Y10493*
Y10491*
X20904Y9912D02*
X20896Y9856D01*
X20895Y9851*
X20893Y9850*
X20852Y9790*
X20850Y9786*
X20848Y9784*
X20796Y9754*
X20793Y9752*
X20790*
X20647Y9740*
X20560*
X20414Y9754*
X20412Y9755*
X20410Y9756*
X20359Y9784*
X20356Y9785*
X20354Y9787*
X20313Y9850*
X20312Y9853*
X20311Y9856*
X20304Y9912*
Y9997*
X20311Y10052*
X20312Y10055*
X20313Y10057*
X20354Y10121*
X20357Y10124*
Y10125*
X20358Y10126*
X20410Y10156*
X20414Y10157*
X20417Y10156*
X20560Y10168*
X20647*
X20790Y10154*
X20793*
X20795Y10153*
X20847Y10126*
X20850Y10123*
X20852Y10121*
X20894Y10057*
X20895Y10054*
X20896*
Y10052*
X20904Y9997*
Y9912*
X21120Y9420D02*
X24880D01*
Y11580*
X21120*
Y9420*
X21481Y24620D02*
X20470D01*
Y20912*
Y24620*
X21481*
X21540Y9620D02*
G03X21500Y9660I40D01*
X21460Y9620J40*
X21500Y9580I40*
X21540Y9620J40*
X21500Y9660I40*
X21460Y9620J40*
X21500Y9580I40*
X21540Y9620J40*
G01X22492Y24881D02*
Y24884D01*
Y25378*
X22491Y25382*
X22488Y25386*
X22485Y25387*
X22480Y25388*
X22476Y25387*
X22472Y25386*
X22469Y25382*
X22468Y25378*
Y24890*
X22375Y24814*
X22181*
X22089Y24890*
Y25378*
X22087Y25382*
X22084Y25386*
X22080Y25387*
X22075Y25388*
X22071Y25387*
X22068Y25386*
X22065Y25382*
X22063Y25378*
Y24884*
X22064Y24881*
X22065Y24879*
X22066Y24876*
X22069Y24874*
X22170Y24792*
X22172Y24791*
X22177Y24790*
X22381*
X22383*
X22384Y24791*
X22387Y24792*
X22488Y24874*
X22490Y24876*
X22491Y24879*
X22492Y24881*
Y24884D02*
Y24881D01*
X22491Y24879*
X22490Y24876*
X22488Y24874*
X22387Y24792*
X22384Y24791*
X22383Y24790*
X22381*
X22177*
X22172Y24791*
X22170Y24792*
X22069Y24874*
X22066Y24876*
X22065Y24879*
X22064Y24881*
X22063Y24884*
Y25378*
X22065Y25382*
X22068Y25386*
X22071Y25387*
X22075Y25388*
X22080Y25387*
X22084Y25386*
X22087Y25382*
X22089Y25378*
Y24890*
X22181Y24814*
X22375*
X22468Y24890*
Y25378*
X22469Y25382*
X22472Y25386*
X22476Y25387*
X22480Y25388*
X22485Y25387*
X22488Y25386*
X22491Y25382*
X22492Y25378*
Y24884*
X22672Y25008D02*
X22995D01*
Y25330*
X22672Y25008*
X22995D02*
X22672D01*
X22995Y25330*
Y25008*
X23030Y18380D02*
X20470D01*
Y18552*
Y18380*
X23030*
Y23588*
Y18380*
Y23912D02*
Y24620D01*
X22019*
X23030*
Y23912*
X23057Y24991D02*
X23058Y24996D01*
X23057Y25000*
X23055Y25005*
X23052Y25008*
X23047*
X23019*
Y25361*
Y25364*
X23017Y25366*
X23014Y25369*
X23011Y25371*
X23008Y25372*
X23004*
X23001*
X22998Y25369*
X22634Y25005*
X22632Y25002*
X22630Y24998*
X22631Y24994*
X22633Y24990*
X22635Y24987*
X22637Y24985*
X22639Y24984*
X22642*
X22995*
Y24802*
X22996Y24797*
X22999Y24794*
X23003Y24792*
X23007*
X23011*
X23015Y24794*
X23018Y24797*
X23019Y24802*
Y24984*
X23047*
X23052Y24985*
X23055Y24987*
X23057Y24991*
X23058Y24996D02*
X23057Y24991D01*
X23055Y24987*
X23052Y24985*
X23047Y24984*
X23019*
Y24802*
X23018Y24797*
X23015Y24794*
X23011Y24792*
X23007*
X23003*
X22999Y24794*
X22996Y24797*
X22995Y24802*
Y24984*
X22642*
X22639*
X22637Y24985*
X22635Y24987*
X22633Y24990*
X22631Y24994*
X22630Y24998*
X22632Y25002*
X22634Y25005*
X22998Y25369*
X23001Y25372*
X23004*
X23008*
X23011Y25371*
X23014Y25369*
X23017Y25366*
X23019Y25364*
Y25361*
Y25008*
X23047*
X23052*
X23055Y25005*
X23057Y25000*
X23058Y24996*
X24880Y9420D02*
X21120D01*
Y11580*
X24880*
Y9420*
X25350Y21054D02*
X25351Y21057D01*
Y21060*
X25349Y21062*
X25347Y21064*
X25183Y21181*
X25178Y21183*
X25175*
X25171Y21181*
X25168Y21178*
X25165Y21175*
X25164Y21171*
X25165Y21166*
X25168Y21163*
X25303Y21067*
X24777*
Y21172*
X24776Y21177*
X24773Y21180*
X24769Y21181*
X24764Y21182*
X24760Y21181*
X24756Y21180*
X24753Y21177*
X24752Y21172*
Y20938*
X24753Y20934*
X24756Y20931*
X24760Y20929*
X24764Y20928*
X24769Y20929*
X24773Y20931*
X24776Y20934*
X24777Y20938*
Y21044*
X25340*
X25345Y21045*
X25348Y21046*
X25349Y21049*
X25350Y21054*
X25351Y21057D02*
X25350Y21054D01*
X25349Y21049*
X25348Y21046*
X25345Y21045*
X25340Y21044*
X24777*
Y20938*
X24776Y20934*
X24773Y20931*
X24769Y20929*
X24764Y20928*
X24760Y20929*
X24756Y20931*
X24753Y20934*
X24752Y20938*
Y21172*
X24753Y21177*
X24756Y21180*
X24760Y21181*
X24764Y21182*
X24769Y21181*
X24773Y21180*
X24776Y21177*
X24777Y21172*
Y21067*
X25303*
X25168Y21163*
X25165Y21166*
X25164Y21171*
X25165Y21175*
X25168Y21178*
X25171Y21181*
X25175Y21183*
X25178*
X25183Y21181*
X25347Y21064*
X25349Y21062*
X25351Y21060*
Y21057*
X25352Y21507D02*
Y21510D01*
Y21712*
Y21714*
X25351Y21715*
Y21717*
X25350Y21718*
X25268Y21819*
X25266Y21821*
X25265Y21822*
X25264Y21823*
X25261Y21824*
X25258Y21825*
X24847*
X24844Y21824*
X24841Y21823*
X24839Y21822*
X24837Y21819*
X24755Y21718*
X24754Y21717*
X24752Y21712*
Y21508*
X24753Y21507*
Y21505*
X24754Y21504*
X24755Y21502*
X24837Y21400*
X24840Y21398*
X24844Y21397*
X24848*
X24851Y21399*
X24854Y21400*
X24856Y21403*
X24858Y21406*
X24859Y21409*
Y21412*
X24857Y21415*
X24777Y21514*
Y21708*
X24853Y21800*
X25252*
X25328Y21708*
Y21514*
X25248Y21415*
X25246Y21412*
Y21409*
X25247Y21406*
X25249Y21403*
X25251Y21400*
X25254Y21399*
X25257Y21397*
X25260*
X25265Y21398*
X25268Y21400*
X25350Y21502*
X25351Y21504*
Y21505*
X25352Y21507*
Y21510D02*
Y21507D01*
X25351Y21505*
Y21504*
X25350Y21502*
X25268Y21400*
X25265Y21398*
X25260Y21397*
X25257*
X25254Y21399*
X25251Y21400*
X25249Y21403*
X25247Y21406*
X25246Y21409*
Y21412*
X25248Y21415*
X25328Y21514*
Y21708*
X25252Y21800*
X24853*
X24777Y21708*
Y21514*
X24857Y21415*
X24859Y21412*
Y21409*
X24858Y21406*
X24856Y21403*
X24854Y21400*
X24851Y21399*
X24848Y21397*
X24844*
X24840Y21398*
X24837Y21400*
X24755Y21502*
X24754Y21504*
X24753Y21505*
Y21507*
X24752Y21508*
Y21712*
X24754Y21717*
X24755Y21718*
X24837Y21819*
X24839Y21822*
X24841Y21823*
X24844Y21824*
X24847Y21825*
X25258*
X25261Y21824*
X25264Y21823*
X25265Y21822*
X25266Y21821*
X25268Y21819*
X25350Y21718*
X25351Y21717*
Y21715*
X25352Y21714*
Y21712*
Y21510*
X25800Y820D02*
X20500D01*
Y2040*
X18895*
X20500*
Y3960*
X18895*
X20500*
Y5180*
X25800*
Y820*
X26444Y20900D02*
X25750D01*
Y18600*
X26000*
Y11050*
X25750*
Y8750*
X26433*
X25750*
Y11050*
X26000*
Y18600*
X25750*
Y20900*
X26444*
X26650Y2703D02*
X26651Y2706D01*
Y2709*
X26649Y2711*
X26647Y2714*
X26483Y2831*
X26478Y2833*
X26475*
X26471Y2831*
X26468Y2828*
X26465Y2824*
X26464Y2820*
X26465Y2816*
X26468Y2813*
X26603Y2717*
X26077*
Y2822*
X26076Y2827*
X26073Y2829*
X26069Y2831*
X26064*
X26060*
X26056Y2829*
X26053Y2827*
X26052Y2822*
Y2588*
X26053Y2584*
X26056Y2580*
X26060Y2578*
X26064*
X26069*
X26073Y2580*
X26076Y2584*
X26077Y2588*
Y2693*
X26640*
X26645Y2694*
X26648Y2696*
X26649Y2699*
X26650Y2703*
X26651Y3457D02*
Y3458D01*
Y3461*
Y3465*
X26648Y3469*
X26645Y3472*
X26641Y3474*
X26637Y3475*
X26633Y3473*
X26348Y3273*
X26064*
X26060Y3272*
X26057Y3269*
X26055Y3265*
X26054Y3261*
X26055Y3257*
X26057Y3253*
X26060Y3250*
X26064Y3249*
X26348*
X26633Y3049*
X26637Y3047*
X26641*
X26645Y3050*
X26648Y3053*
X26651Y3057*
Y3061*
Y3063*
Y3065*
X26648Y3068*
X26374Y3261*
X26648Y3453*
X26651Y3457*
Y2706D02*
X26650Y2703D01*
X26649Y2699*
X26648Y2696*
X26645Y2694*
X26640Y2693*
X26077*
Y2588*
X26076Y2584*
X26073Y2580*
X26069Y2578*
X26064*
X26060*
X26056Y2580*
X26053Y2584*
X26052Y2588*
Y2822*
X26053Y2827*
X26056Y2829*
X26060Y2831*
X26064*
X26069*
X26073Y2829*
X26076Y2827*
X26077Y2822*
Y2717*
X26603*
X26468Y2813*
X26465Y2816*
X26464Y2820*
X26465Y2824*
X26468Y2828*
X26471Y2831*
X26475Y2833*
X26478*
X26483Y2831*
X26647Y2714*
X26649Y2711*
X26651Y2709*
Y2706*
Y3458D02*
Y3457D01*
X26648Y3453*
X26374Y3261*
X26648Y3068*
X26651Y3065*
Y3063*
Y3061*
Y3057*
X26648Y3053*
X26645Y3050*
X26641Y3047*
X26637*
X26633Y3049*
X26348Y3249*
X26064*
X26060Y3250*
X26057Y3253*
X26055Y3257*
X26054Y3261*
X26055Y3265*
X26057Y3269*
X26060Y3272*
X26064Y3273*
X26348*
X26633Y3473*
X26637Y3475*
X26641Y3474*
X26645Y3472*
X26648Y3469*
X26651Y3465*
Y3461*
Y3458*
X27060Y3270D02*
X30440D01*
Y7230*
X27060*
Y3270*
X27336Y498D02*
X27337Y502D01*
Y1222*
X27335Y1227*
X27331Y1232*
X27327Y1234*
X27322Y1235*
X27317Y1234*
X27311Y1232*
X27308Y1227*
X27307Y1222*
Y557*
X27082Y922*
X27079Y924*
X27076Y926*
X27073Y927*
X27065*
X27062Y926*
X27059Y924*
X27056Y922*
X26832Y557*
Y1222*
X26830Y1227*
X26827Y1232*
X26821Y1234*
X26816Y1235*
X26810Y1234*
X26806Y1232*
X26802Y1227*
X26801Y1222*
Y502*
X26802Y497*
X26804Y494*
X26809Y492*
X26813Y490*
X26819Y489*
X26822*
X26826Y491*
X26830Y495*
X27069Y883*
X27309Y495*
X27312Y491*
X27315Y489*
X27319*
X27324Y490*
X27329Y492*
X27334Y494*
X27336Y498*
X27337Y502D02*
X27336Y498D01*
X27334Y494*
X27329Y492*
X27324Y490*
X27320Y489*
X27319*
X27315*
X27312Y491*
X27309Y495*
X27069Y883*
X26830Y495*
X26826Y491*
X26822Y489*
X26819*
X26818*
X26813Y490*
X26809Y492*
X26804Y494*
X26802Y497*
X26800Y502*
Y1222*
X26802Y1228*
X26806Y1232*
X26810Y1234*
X26815Y1235*
X26816*
X26822Y1234*
X26827Y1232*
X26831Y1228*
X26832Y1222*
Y557*
X27055Y922*
X27059Y925*
X27062Y926*
X27065Y927*
X27073*
X27076Y926*
X27080Y925*
X27083Y922*
X27307Y557*
Y1222*
Y1228*
X27311Y1232*
X27316Y1234*
X27322Y1235*
X27327Y1234*
X27332Y1232*
X27335Y1228*
X27337Y1222*
Y502*
X27440Y21820D02*
X25560D01*
Y22074*
Y21820*
X27440*
Y22074*
Y21820*
Y22426D02*
Y22680D01*
X25560*
Y22426*
Y22680*
X27440*
Y22426*
X27541Y724D02*
X28015D01*
Y806*
X27779Y1204*
X27541Y806*
Y724*
X28016D02*
X27541D01*
Y806*
X27778Y1204*
X27779*
X28016Y806*
Y724*
X28044Y497D02*
X28045Y502D01*
Y813*
Y815*
X28044Y816*
X28043Y819*
X27801Y1229*
X27799Y1230*
X27793Y1234*
X27791Y1236*
X27788*
X27771*
X27769*
X27766Y1234*
X27761Y1233*
X27758Y1229*
X27512Y819*
Y816*
X27511Y815*
X27510Y813*
Y502*
X27512Y497*
X27515Y493*
X27520Y490*
X27525*
X27531*
X27536Y493*
X27539Y497*
X27541Y502*
Y694*
X28016*
Y502*
X28017Y497*
X28020Y493*
X28025Y490*
X28031*
X28036*
X28041Y493*
X28044Y497*
X28046Y502D02*
X28044Y497D01*
X28041Y492*
X28036Y490*
X28031Y489*
X28030*
X28025Y490*
X28020Y492*
X28017Y497*
X28015Y502*
Y693*
X27541*
Y502*
X27539Y497*
X27536Y492*
X27531Y490*
X27525Y489*
X27520Y490*
X27514Y492*
X27511Y497*
X27510Y502*
Y814*
X27511Y815*
Y817*
X27512Y820*
X27757Y1229*
X27761Y1233*
X27766Y1234*
X27769Y1236*
X27771Y1237*
X27788*
X27791Y1236*
X27794Y1234*
X27799Y1231*
X27801Y1229*
X28043Y820*
X28044Y817*
X28045Y815*
X28046Y814*
Y502*
X28755Y1014D02*
X28756Y1017D01*
Y1119*
X28755Y1122*
X28753Y1125*
Y1128*
X28750Y1131*
X28624Y1234*
X28621Y1235*
X28619Y1236*
X28618*
X28615Y1237*
X28362*
X28359Y1236*
X28358*
X28356Y1235*
X28353Y1234*
X28227Y1131*
X28223Y1128*
Y1125*
Y1123*
Y1117*
X28229Y1108*
X28234Y1106*
X28239Y1105*
X28244Y1107*
X28366Y1207*
X28367*
X28609*
X28726Y1112*
Y1024*
X28227Y618*
X28226Y616*
X28224Y615*
X28223Y612*
X28221Y607*
X28220Y605*
Y502*
X28222Y496*
X28226Y493*
X28229Y489*
X28235Y487*
X28741*
X28746Y489*
X28750Y492*
X28753Y497*
Y502*
Y508*
X28750Y513*
X28746Y516*
X28741Y518*
X28251*
Y598*
X28750Y1004*
X28753Y1006*
Y1009*
X28755Y1014*
X28756Y1017D02*
X28755Y1014D01*
X28754Y1009*
X28753Y1005*
X28751Y1004*
X28251Y598*
Y518*
X28741*
X28746Y517*
X28751Y514*
X28753Y508*
X28754Y502*
X28753Y497*
X28751Y492*
X28746Y489*
X28741Y487*
X28235*
X28229Y489*
X28225Y492*
X28222Y496*
X28220Y502*
Y605*
X28221Y607*
X28222Y613*
X28224Y615*
X28225Y616*
X28227Y618*
X28726Y1024*
Y1112*
X28609Y1206*
X28367*
X28244Y1107*
X28239Y1105*
X28234Y1106*
X28229Y1108*
X28223Y1117*
X28222Y1122*
Y1126*
X28223Y1128*
X28227Y1132*
X28353Y1234*
X28356Y1235*
X28358Y1236*
X28359Y1237*
X28362*
X28615*
X28618*
X28619*
Y1236*
X28622Y1235*
X28625Y1234*
X28751Y1132*
X28753Y1128*
X28754Y1125*
X28755Y1123*
X28756Y1120*
Y1017*
X29004Y575D02*
X29367Y1167D01*
X29317Y1206*
X29075*
X28960Y1112*
Y613*
X29004Y575*
X29367Y1167D02*
X29004Y575D01*
X28960Y612*
Y613*
Y1112*
X29075Y1207*
X29317*
X29318*
X29367Y1167*
X29435Y613D02*
Y612D01*
X29318Y518*
X29317*
X29075*
X29028Y555*
Y556*
X29386Y1140*
X29028Y556*
X29075Y518*
X29317*
X29434Y613*
Y722*
X29435*
Y613*
X29465Y605D02*
X29464Y603D01*
X29462Y597*
Y596*
X29459Y593*
X29333Y490*
X29330Y489*
X29329*
X29327Y488*
X29326Y487*
X29071*
X29065Y489*
X29062Y490*
X28936Y593*
X28934Y594*
X28933Y595*
X28931Y597*
X28930Y603*
X28929Y605*
Y1120*
X28930Y1123*
X28931Y1125*
X28933Y1128*
X28936Y1132*
X29062Y1234*
X29065Y1235*
X29067Y1236*
X29068Y1237*
X29071*
X29323*
X29324*
X29327*
X29328Y1236*
X29330Y1235*
X29333Y1234*
X29397Y1182*
X29333Y1234*
X29330Y1235*
X29328Y1236*
X29327*
X29326*
X29323Y1237*
X29071*
X29068Y1236*
X29067*
X29065Y1235*
X29062Y1234*
X28936Y1131*
X28933Y1128*
X28931Y1125*
X28930Y1122*
X28929Y1119*
Y605*
X28930Y603*
X28931Y598*
X28933Y595*
X28934*
X28936Y593*
X29062Y490*
X29065Y489*
X29071Y487*
X29326*
X29327Y488*
X29329Y489*
X29330Y490*
X29333*
X29459Y593*
X29461Y596*
X29462Y598*
X29464Y603*
Y605*
Y668*
X29465*
Y605*
X30440Y3280D02*
X31040D01*
Y4180*
X30440*
Y3280*
X30881Y1219D02*
Y1218D01*
X30880Y1215*
X30476Y495*
X30472Y491*
X30467Y489*
X30462Y490*
X30457Y492*
X30453Y495*
X30449Y499*
X30448Y504*
Y505*
X30450Y510*
X30841Y1206*
X30595*
Y1207*
X30842*
Y1206*
X30450Y510*
X30449Y504*
Y499*
X30453Y495*
X30457Y492*
X30462Y490*
X30467*
X30472Y491*
X30475Y496*
X30880Y1215*
X30881Y1219*
Y1224*
X30880Y1227*
X30877Y1232*
X30874Y1235*
X30871Y1236*
X30867Y1237*
X30584*
X30867*
X30871*
X30875Y1235*
X30878Y1232*
X30880Y1228*
X30881Y1225*
Y1219*
X31040Y3280D02*
X30440D01*
Y3270*
X27060*
Y7230*
X30440*
Y4180*
X31040*
Y3280*
X31142Y5881D02*
X31218Y5974D01*
Y6261*
X30954*
Y5974*
X31031Y5881*
X31142*
X31218Y5974D02*
X31142Y5881D01*
X31031*
X30954Y5974*
Y6261*
X31218*
Y5974*
X31242Y5401D02*
Y5404D01*
Y5606*
Y5609*
X31241*
Y5611*
X31240Y5613*
X31158Y5714*
X31155Y5717*
X31153Y5718*
X31151*
X31147Y5717*
X31143Y5715*
X31139Y5712*
X31137Y5708*
Y5704*
X31138Y5700*
X31218Y5602*
Y5408*
X31142Y5315*
X31031*
X30954Y5407*
Y5507*
X30953Y5511*
X30951Y5514*
X30947Y5516*
X30942Y5517*
X30938Y5516*
X30934Y5514*
X30932Y5511*
X30930Y5507*
Y5407*
X30854Y5315*
X30743*
X30667Y5408*
Y5602*
X30747Y5700*
X30748Y5704*
X30747Y5708*
X30746Y5712*
X30742Y5715*
X30738Y5717*
X30734Y5718*
X30732*
X30730Y5717*
X30727Y5714*
X30645Y5613*
X30644Y5611*
X30642Y5606*
Y5402*
X30643*
Y5399*
X30644*
X30645Y5396*
X30727Y5295*
X30729Y5293*
X30731Y5292*
X30734Y5291*
X30737*
X30860*
X30862*
X30866Y5292*
X30867*
X30868Y5293*
X30869Y5294*
X30870Y5295*
X30942Y5383*
X31014Y5295*
X31016Y5293*
X31019Y5292*
X31023Y5291*
X31025*
X31148*
X31151*
X31152Y5292*
X31155Y5293*
X31158Y5295*
X31240Y5396*
X31241Y5398*
Y5400*
X31242Y5401*
Y5968D02*
Y5971D01*
Y6273*
X31241Y6279*
X31238Y6282*
X31235Y6285*
X31230Y6287*
X30654*
X30650Y6285*
X30647Y6282*
X30645Y6279*
X30644Y6275*
X30645Y6270*
X30647Y6266*
X30650Y6263*
X30654Y6261*
X30930*
Y5979*
X30651Y5881*
X30647Y5879*
X30644Y5874*
Y5870*
X30645Y5866*
X30647Y5862*
X30650Y5859*
X30654Y5858*
X30659Y5859*
X30938Y5957*
X31014Y5861*
X31016Y5859*
X31019*
X31022Y5857*
X31151*
X31153Y5859*
X31155*
X31156Y5860*
X31158Y5861*
X31240Y5963*
X31241Y5966*
X31242Y5968*
Y5404D02*
Y5401D01*
X31241Y5400*
Y5398*
X31240Y5396*
X31158Y5295*
X31155Y5293*
X31152Y5292*
X31151Y5291*
X31148*
X31025*
X31023*
X31019Y5292*
X31016Y5293*
X31014Y5295*
X30942Y5383*
X30870Y5295*
X30869Y5294*
X30868Y5293*
X30867Y5292*
X30866*
X30862Y5291*
X30860*
X30737*
X30734*
X30731Y5292*
X30729Y5293*
X30727Y5295*
X30645Y5396*
X30644Y5399*
X30643*
Y5402*
X30642*
Y5606*
X30644Y5611*
X30645Y5613*
X30727Y5714*
X30730Y5717*
X30732Y5718*
X30734*
X30738Y5717*
X30742Y5715*
X30746Y5712*
X30747Y5708*
X30748Y5704*
X30747Y5700*
X30667Y5602*
Y5408*
X30743Y5315*
X30854*
X30930Y5407*
Y5507*
X30932Y5511*
X30934Y5514*
X30938Y5516*
X30942Y5517*
X30947Y5516*
X30951Y5514*
X30953Y5511*
X30954Y5507*
Y5407*
X31031Y5315*
X31142*
X31218Y5408*
Y5602*
X31138Y5700*
X31137Y5704*
Y5708*
X31139Y5712*
X31143Y5715*
X31147Y5717*
X31151Y5718*
X31153*
X31155Y5717*
X31158Y5714*
X31240Y5613*
X31241Y5611*
Y5609*
X31242*
Y5606*
Y5404*
Y5971D02*
Y5968D01*
X31241Y5966*
X31240Y5963*
X31158Y5861*
X31156Y5860*
X31155Y5859*
X31153*
X31151Y5857*
X31022*
X31019Y5859*
X31016*
X31014Y5861*
X30938Y5957*
X30659Y5859*
X30654Y5858*
X30650Y5859*
X30647Y5862*
X30645Y5866*
X30644Y5870*
Y5874*
X30647Y5879*
X30651Y5881*
X30930Y5979*
Y6261*
X30654*
X30650Y6263*
X30647Y6266*
X30645Y6270*
X30644Y6275*
X30645Y6279*
X30647Y6282*
X30650Y6285*
X30654Y6287*
X31230*
X31235Y6285*
X31238Y6282*
X31241Y6279*
X31242Y6273*
Y5971*
X36100Y11500D02*
X33750D01*
Y8750*
X28687*
X33750*
Y11500*
X36100*
Y18150*
X33750*
Y20900*
X28676*
X33750*
Y18150*
X36100*
Y11500*
G54D11*
X25791Y15806D02*
X25829Y15857D01*
Y16144*
X25566*
Y15857*
X25602Y15807*
X25661Y15765*
X25735*
X25791Y15806*
X25829Y15857D02*
X25791Y15806D01*
X25735Y15765*
X25661*
X25602Y15807*
X25566Y15857*
Y16144*
X25829*
Y15857*
X25851Y15421D02*
X25852Y15424D01*
Y15426*
X25851Y15429*
X25849Y15431*
X25684Y15538*
X25680Y15540*
X25676*
X25672Y15538*
X25669Y15535*
X25667Y15531*
X25666Y15528*
Y15524*
X25669Y15521*
X25804Y15433*
X25266*
X25261Y15432*
X25258Y15429*
X25256Y15426*
X25255Y15423*
X25256Y15418*
X25258Y15415*
X25261Y15412*
X25266Y15411*
X25842*
X25846Y15412*
X25849Y15414*
X25851Y15417*
Y15421*
X25852Y15424D02*
X25851Y15421D01*
Y15417*
X25849Y15414*
X25846Y15412*
X25842Y15411*
X25266*
X25261Y15412*
X25258Y15415*
X25256Y15418*
X25255Y15423*
X25256Y15426*
X25258Y15429*
X25261Y15432*
X25266Y15433*
X25804*
X25669Y15521*
X25666Y15524*
Y15528*
X25667Y15531*
X25669Y15535*
X25672Y15538*
X25676Y15540*
X25680*
X25684Y15538*
X25849Y15431*
X25851Y15429*
X25852Y15426*
Y15424*
X25853Y15851D02*
X25854Y15854D01*
Y16157*
X25852Y16162*
X25849Y16165*
X25846Y16168*
X25842Y16169*
X25266*
X25261Y16168*
X25258Y16165*
X25256Y16161*
X25255Y16157*
X25256Y16152*
X25258Y16148*
X25261Y16146*
X25266Y16144*
X25542*
Y15850*
Y15849*
X25543Y15846*
X25584Y15790*
X25586Y15788*
X25590Y15786*
X25649Y15742*
X25650*
X25651*
X25652Y15741*
X25653*
X25654*
X25739*
X25741*
X25743*
X25744Y15742*
X25746*
X25807Y15787*
X25809Y15789*
X25810*
X25851Y15846*
X25852Y15849*
X25853Y15851*
X25854Y15854D02*
X25853Y15851D01*
X25852Y15849*
X25851Y15846*
X25810Y15789*
X25809*
X25807Y15787*
X25746Y15742*
X25744*
X25743Y15741*
X25741*
X25739*
X25654*
X25653*
X25652*
X25651Y15742*
X25650*
X25649*
X25590Y15786*
X25586Y15788*
X25584Y15790*
X25543Y15846*
X25542Y15849*
Y15850*
Y16144*
X25266*
X25261Y16146*
X25258Y16148*
X25256Y16152*
X25255Y16157*
X25256Y16161*
X25258Y16165*
X25261Y16168*
X25266Y16169*
X25842*
X25846Y16168*
X25849Y16165*
X25852Y16162*
X25854Y16157*
Y15854*
M02*
