*
G04 Job   : C:\MGTraining\projects\DEMO\PCB\DEMO.pcb*
G04 User  : FLO-JOES-LT2:joes*
G04 Layer : GeneratedSilkscreenBottom.gdo*
G04 Date  : Thu Jan 24 16:50:33 2008*
G04 VeriBest Example Gerber Output Definition*
%ICAS*%
%MOIN*%
%FSLAX24Y24*%
%OFA0.0000B0.0000*%
G90*
G74*
%ADD10C,0.00800*%
%ADD11C,0.01000*%
G01*
G54D10*
X-1279Y12806D02*
Y12805D01*
X-1281Y12801*
X-1286Y12799*
X-1290*
X-1295*
X-1299Y12801*
X-1302Y12805*
X-1299Y12801*
X-1295Y12799*
X-1290*
X-1286*
X-1281Y12801*
X-1279Y12805*
Y12806*
X-1273Y18194D02*
Y18214D01*
X-1274Y18218*
X-1277Y18221*
X-1281Y18223*
X-1286Y18224*
X-1290Y18223*
X-1294Y18221*
X-1296Y18218*
X-1298Y18214*
Y18195*
Y18214*
X-1296Y18218*
X-1294Y18221*
X-1290Y18223*
X-1286Y18224*
X-1281Y18223*
X-1277Y18221*
X-1274Y18218*
X-1273Y18214*
Y18194*
X-1204Y17827D02*
X-1209Y17822D01*
X-1216*
X-1209*
X-1204Y17827*
X-757Y7378D02*
X-1079Y7055D01*
Y7270*
Y7055*
X-757Y7378*
X-979*
X-757*
Y7945D02*
X-1020Y7681D01*
X-757Y7945*
X-1079*
Y7730*
Y7945*
X-757*
X-715Y7387D02*
X-716Y7384D01*
X-718Y7381*
X-1082Y7017*
X-1086Y7015*
X-1089Y7013*
X-1093Y7014*
X-1097Y7016*
X-1100Y7018*
X-1102Y7020*
X-1103Y7022*
X-1104Y7025*
Y7256*
Y7025*
X-1103Y7022*
X-1102Y7020*
X-1100Y7018*
X-1097Y7016*
X-1093Y7014*
X-1089Y7013*
X-1086Y7015*
X-1082Y7017*
X-718Y7381*
X-716Y7384*
X-715Y7387*
X-716Y7391*
X-717Y7394*
X-719Y7397*
X-721Y7400*
X-723Y7402*
X-726*
X-968*
X-726*
X-723*
X-721Y7400*
X-719Y7397*
X-717Y7394*
X-716Y7391*
X-715Y7387*
Y7954D02*
X-716Y7951D01*
X-718Y7948*
X-1004Y7662*
X-718Y7948*
X-716Y7951*
X-715Y7954*
X-716Y7958*
X-717Y7961*
X-719Y7964*
X-721Y7967*
X-723Y7969*
X-726*
X-1079*
Y7997*
X-1080Y8002*
X-1083Y8005*
X-1087Y8007*
X-1092Y8008*
X-1096Y8007*
X-1100Y8005*
X-1103Y8002*
X-1104Y7997*
Y7969*
X-1286*
X-1290Y7968*
X-1293Y7965*
X-1295Y7961*
X-1296Y7957*
X-1295Y7953*
X-1293Y7949*
X-1290Y7946*
X-1286Y7945*
X-1104*
Y7744*
Y7945*
X-1286*
X-1290Y7946*
X-1293Y7949*
X-1295Y7953*
X-1296Y7957*
X-1295Y7961*
X-1293Y7965*
X-1290Y7968*
X-1286Y7969*
X-1104*
Y7997*
X-1103Y8002*
X-1100Y8005*
X-1096Y8007*
X-1092Y8008*
X-1087Y8007*
X-1083Y8005*
X-1080Y8002*
X-1079Y7997*
Y7969*
X-726*
X-723*
X-721Y7967*
X-719Y7964*
X-717Y7961*
X-716Y7958*
X-715Y7954*
X-702Y12338D02*
X-703Y12334D01*
X-706Y12330*
X-710Y12328*
X-714*
X-719*
X-723Y12330*
X-726Y12334*
X-727Y12338*
Y12443*
X-1108*
X-727*
Y12338*
X-726Y12334*
X-723Y12330*
X-719Y12328*
X-714*
X-710*
X-706Y12330*
X-703Y12334*
X-702Y12338*
Y12572*
X-703Y12577*
X-706Y12579*
X-710Y12581*
X-714*
X-719*
X-723Y12579*
X-726Y12577*
X-727Y12572*
Y12467*
X-1103*
X-727*
Y12572*
X-726Y12577*
X-723Y12579*
X-719Y12581*
X-714*
X-710*
X-706Y12579*
X-703Y12577*
X-702Y12572*
Y12338*
Y13011D02*
X-703Y13008D01*
X-705Y13005*
Y13004*
X-706Y13003*
X-707*
X-708Y13001*
X-790Y12941*
X-792Y12940*
X-794Y12939*
X-795Y12938*
X-1110*
X-795*
X-794Y12939*
X-792Y12940*
X-790Y12941*
X-708Y13001*
X-707Y13003*
X-706*
X-705Y13004*
Y13005*
X-703Y13008*
X-702Y13011*
Y13134*
X-704Y13136*
Y13139*
X-706Y13142*
X-788Y13222*
X-792Y13225*
X-797*
X-801Y13223*
X-804Y13220*
X-807Y13217*
X-809Y13212*
Y13208*
X-806Y13204*
X-728Y13127*
Y13017*
X-801Y12962*
X-1104*
X-801*
X-728Y13017*
Y13127*
X-806Y13204*
X-809Y13208*
Y13212*
X-807Y13217*
X-804Y13220*
X-801Y13223*
X-797Y13225*
X-792*
X-788Y13222*
X-706Y13142*
X-704Y13139*
Y13136*
X-702Y13134*
Y13011*
X-698Y17911D02*
Y17908D01*
X-699Y17907*
Y17906*
X-700Y17903*
X-782Y17803*
X-783Y17801*
X-785Y17800*
X-787Y17799*
X-789Y17798*
X-793Y17800*
X-797Y17801*
X-801Y17804*
X-803Y17808*
Y17812*
X-802Y17816*
X-722Y17914*
Y18108*
X-798Y18202*
X-868*
X-1193Y17803*
X-1194Y17801*
X-1196Y17800*
X-1197Y17799*
X-1202Y17798*
X-1203Y17797*
X-1286*
X-1290Y17798*
X-1293Y17801*
X-1296Y17804*
X-1297Y17805*
X-1296Y17804*
X-1293Y17801*
X-1290Y17798*
X-1286Y17797*
X-1203*
X-1202Y17798*
X-1197Y17799*
X-1196Y17800*
X-1194Y17801*
X-1193Y17803*
X-868Y18202*
X-798*
X-722Y18108*
Y17914*
X-802Y17816*
X-803Y17812*
Y17808*
X-801Y17804*
X-797Y17801*
X-793Y17800*
X-789Y17798*
X-787Y17799*
X-785Y17800*
X-783Y17801*
X-782Y17803*
X-700Y17903*
X-699Y17906*
Y17907*
X-698Y17908*
Y17911*
Y18113*
Y18115*
X-699Y18116*
Y18118*
X-700Y18121*
X-782Y18221*
X-785Y18223*
X-788Y18224*
X-789Y18225*
X-792Y18226*
X-874*
X-876Y18225*
X-880Y18224*
X-883Y18223*
X-884Y18221*
X-1107Y17947*
X-884Y18221*
X-883Y18223*
X-880Y18224*
X-876Y18225*
X-874Y18226*
X-792*
X-789Y18225*
X-788Y18224*
X-785Y18223*
X-782Y18221*
X-700Y18121*
X-699Y18118*
Y18116*
X-698Y18115*
Y18113*
Y17911*
X1940Y9320D02*
X60D01*
Y10180*
X1374*
X60*
Y9320*
X1940*
Y10180*
X1726*
X1940*
Y9320*
X2749Y9754D02*
X2751Y9757D01*
Y9760*
X2750Y9763*
X2749Y9767*
X2748Y9770*
X2745Y9772*
X2740*
X2177*
Y9878*
X2176Y9882*
X2173Y9886*
X2169Y9887*
X2164Y9888*
X2160Y9887*
X2156Y9886*
X2153Y9882*
X2152Y9878*
Y9644*
X2153Y9639*
X2156Y9636*
X2160Y9635*
X2164Y9634*
X2169Y9635*
X2173Y9636*
X2176Y9639*
X2177Y9644*
Y9749*
X2703*
X2568Y9653*
X2565Y9650*
X2564Y9646*
X2565Y9641*
X2568Y9638*
X2571Y9635*
X2575Y9633*
X2577Y9632*
X2578*
X2581Y9634*
X2583Y9635*
X2747Y9752*
X2749Y9754*
X2751Y9757D02*
X2749Y9754D01*
X2747Y9752*
X2583Y9635*
X2581Y9634*
X2578Y9632*
X2577*
X2575Y9633*
X2571Y9635*
X2568Y9638*
X2565Y9641*
X2564Y9646*
X2565Y9650*
X2568Y9653*
X2703Y9749*
X2177*
Y9644*
X2176Y9639*
X2173Y9636*
X2169Y9635*
X2164Y9634*
X2160Y9635*
X2156Y9636*
X2153Y9639*
X2152Y9644*
Y9878*
X2153Y9882*
X2156Y9886*
X2160Y9887*
X2164Y9888*
X2169Y9887*
X2173Y9886*
X2176Y9882*
X2177Y9878*
Y9772*
X2740*
X2745*
X2748Y9770*
X2749Y9767*
X2750Y9763*
X2751Y9760*
Y9757*
X2752Y10214D02*
Y10216D01*
Y10418*
Y10421*
X2751Y10423*
Y10424*
X2750Y10426*
X2668Y10528*
X2665Y10529*
X2662Y10530*
X2661Y10531*
X2658Y10532*
X2535*
X2533Y10531*
X2529Y10530*
X2526Y10529*
X2524Y10528*
X2452Y10439*
X2380Y10528*
X2379*
X2378Y10529*
X2377Y10530*
X2376*
X2372Y10531*
X2370Y10532*
X2247*
X2244Y10531*
X2241Y10530*
X2239Y10529*
X2237Y10528*
X2155Y10426*
X2154Y10424*
X2153Y10423*
Y10421*
X2152Y10420*
Y10216*
X2154Y10211*
X2155Y10210*
X2237Y10108*
X2238Y10106*
X2240Y10105*
X2244*
X2248*
X2252Y10108*
X2256Y10111*
X2257Y10114*
X2258Y10118*
X2257Y10123*
X2177Y10220*
Y10414*
X2253Y10508*
X2364*
X2440Y10415*
Y10316*
X2442Y10311*
X2444Y10308*
X2448Y10306*
X2452*
X2457*
X2461Y10308*
X2463Y10311*
X2464Y10316*
Y10415*
X2541Y10508*
X2652*
X2728Y10414*
Y10220*
X2648Y10123*
X2647Y10118*
Y10114*
X2649Y10111*
X2653Y10108*
X2657Y10105*
X2661*
X2665*
X2667Y10106*
X2668Y10108*
X2750Y10210*
X2751Y10211*
Y10213*
X2752Y10214*
Y9104D02*
Y9102D01*
X2751Y9101*
Y9100*
X2750Y9098*
X2668Y8996*
X2666Y8995*
X2665*
X2664Y8993*
X2661Y8992*
X2658*
X2247*
X2244*
X2241Y8993*
X2239Y8994*
X2237Y8997*
X2185Y9060*
X2237Y8997*
X2239Y8994*
X2241Y8993*
X2244Y8992*
X2247*
X2658*
X2661*
X2664Y8993*
X2665Y8995*
X2666*
X2668Y8996*
X2750Y9098*
X2751Y9100*
Y9101*
X2752Y9102*
Y9104*
Y9307*
Y9310*
X2751Y9311*
Y9312*
X2750Y9314*
X2668Y9416*
X2665Y9418*
X2660Y9419*
X2657*
X2654Y9418*
X2651Y9416*
X2649Y9413*
X2647Y9410*
X2646Y9407*
Y9404*
X2648Y9401*
X2728Y9302*
Y9109*
X2652Y9016*
X2253*
X2177Y9109*
Y9302*
X2257Y9401*
X2259Y9404*
Y9407*
X2258Y9410*
X2256Y9413*
X2254Y9416*
X2251Y9418*
X2248Y9419*
X2244*
X2240Y9418*
X2237Y9416*
X2155Y9314*
X2154Y9312*
X2153Y9311*
Y9309*
X2152Y9308*
Y9122*
Y9308*
X2153Y9309*
Y9311*
X2154Y9312*
X2155Y9314*
X2237Y9416*
X2240Y9418*
X2244Y9419*
X2248*
X2251Y9418*
X2254Y9416*
X2256Y9413*
X2258Y9410*
X2259Y9407*
Y9404*
X2257Y9401*
X2177Y9302*
Y9109*
X2253Y9016*
X2652*
X2728Y9109*
Y9302*
X2648Y9401*
X2646Y9404*
Y9407*
X2647Y9410*
X2649Y9413*
X2651Y9416*
X2654Y9418*
X2657Y9419*
X2660*
X2665Y9418*
X2668Y9416*
X2750Y9314*
X2751Y9312*
Y9311*
X2752Y9310*
Y9307*
Y9104*
Y10216D02*
Y10214D01*
X2751Y10213*
Y10211*
X2750Y10210*
X2668Y10108*
X2667Y10106*
X2665Y10105*
X2661*
X2657*
X2653Y10108*
X2649Y10111*
X2647Y10114*
Y10118*
X2648Y10123*
X2728Y10220*
Y10414*
X2652Y10508*
X2541*
X2464Y10415*
Y10316*
X2463Y10311*
X2461Y10308*
X2457Y10306*
X2452*
X2448*
X2444Y10308*
X2442Y10311*
X2440Y10316*
Y10415*
X2364Y10508*
X2253*
X2177Y10414*
Y10220*
X2257Y10123*
X2258Y10118*
X2257Y10114*
X2256Y10111*
X2252Y10108*
X2248Y10105*
X2244*
X2240*
X2238Y10106*
X2237Y10108*
X2155Y10210*
X2154Y10211*
X2152Y10216*
Y10420*
X2153Y10421*
Y10423*
X2154Y10424*
X2155Y10426*
X2237Y10528*
X2239Y10529*
X2241Y10530*
X2244Y10531*
X2247Y10532*
X2370*
X2372Y10531*
X2376Y10530*
X2377*
X2378Y10529*
X2379Y10528*
X2380*
X2452Y10439*
X2524Y10528*
X2526Y10529*
X2529Y10530*
X2533Y10531*
X2535Y10532*
X2658*
X2661Y10531*
X2662Y10530*
X2665Y10529*
X2668Y10528*
X2750Y10426*
X2751Y10424*
Y10423*
X2752Y10421*
Y10418*
Y10216*
X3574Y16690D02*
X3320D01*
Y14810*
X3574*
X3320*
Y16690*
X3574*
X3824Y24440D02*
X3570D01*
Y22560*
X3824*
X3570*
Y24440*
X3824*
X3895Y7323D02*
Y7327D01*
Y7332*
X3893Y7336*
X3889Y7339*
X3885Y7340*
X3480*
X3477Y7339*
X3474Y7338*
X3472Y7336*
X3470Y7332*
X3469Y7330*
Y7325*
X3470Y7322*
X3793Y6746*
X3796Y6743*
X3800Y6742*
X3804*
X3808Y6743*
X3812Y6746*
X3814Y6749*
X3815Y6754*
X3814Y6758*
X3501Y7315*
X3885*
X3889Y7316*
X3893Y7319*
X3895Y7323*
Y7327D02*
Y7323D01*
X3893Y7319*
X3889Y7316*
X3885Y7315*
X3501*
X3814Y6758*
X3815Y6754*
X3814Y6749*
X3812Y6746*
X3808Y6743*
X3804Y6742*
X3800*
X3796Y6743*
X3793Y6746*
X3470Y7322*
X3469Y7325*
Y7330*
X3470Y7332*
X3472Y7336*
X3474Y7338*
X3477Y7339*
X3480Y7340*
X3885*
X3889Y7339*
X3893Y7336*
X3895Y7332*
Y7327*
X3918Y21944D02*
Y21948D01*
Y21950*
Y21952*
X3917Y21954*
X3915Y21955*
X3813Y22037*
X3812Y22038*
X3810Y22039*
X3809*
X3807Y22040*
X3605*
X3602Y22039*
X3600*
X3599Y22038*
X3597Y22037*
X3495Y21955*
X3494Y21952*
X3493Y21950*
X3492Y21948*
X3491Y21946*
Y21822*
X3492Y21820*
X3493Y21816*
X3494Y21813*
X3495Y21812*
X3584Y21740*
X3495Y21668*
Y21667*
X3494Y21665*
X3493*
Y21664*
X3492Y21659*
X3491Y21658*
Y21534*
X3492Y21531*
X3493Y21529*
X3494Y21526*
X3495Y21524*
X3597Y21442*
X3599Y21441*
X3600Y21440*
X3602*
X3807*
X3812Y21441*
X3813Y21442*
X3915Y21524*
X3917Y21526*
X3918Y21527*
Y21529*
Y21531*
Y21535*
X3915Y21539*
X3912Y21542*
X3909Y21545*
X3905*
X3900Y21544*
X3803Y21464*
X3609*
X3515Y21540*
Y21652*
X3608Y21728*
X3707*
X3712Y21729*
X3715Y21731*
X3717Y21736*
Y21740*
Y21744*
X3715Y21748*
X3712Y21751*
X3707Y21752*
X3608*
X3515Y21828*
Y21940*
X3609Y22015*
X3803*
X3900Y21935*
X3905Y21934*
X3909Y21935*
X3912Y21937*
X3915Y21940*
X3918Y21944*
Y21948D02*
Y21944D01*
X3915Y21940*
X3912Y21937*
X3909Y21935*
X3905Y21934*
X3900Y21935*
X3803Y22015*
X3609*
X3515Y21940*
Y21828*
X3608Y21752*
X3707*
X3712Y21751*
X3715Y21748*
X3717Y21744*
Y21740*
Y21736*
X3715Y21731*
X3712Y21729*
X3707Y21728*
X3608*
X3515Y21652*
Y21540*
X3609Y21464*
X3803*
X3900Y21544*
X3905Y21545*
X3909*
X3912Y21542*
X3915Y21539*
X3918Y21535*
Y21531*
Y21529*
Y21527*
X3917Y21526*
X3915Y21524*
X3813Y21442*
X3812Y21441*
X3807Y21440*
X3602*
X3600*
X3599Y21441*
X3597Y21442*
X3495Y21524*
X3494Y21526*
X3493Y21529*
X3492Y21531*
X3491Y21534*
Y21658*
X3492Y21659*
X3493Y21664*
Y21665*
X3494*
X3495Y21667*
Y21668*
X3584Y21740*
X3495Y21812*
X3494Y21813*
X3493Y21816*
X3492Y21820*
X3491Y21822*
Y21946*
X3492Y21948*
X3493Y21950*
X3494Y21952*
X3495Y21955*
X3597Y22037*
X3599Y22038*
X3600Y22039*
X3602*
X3605Y22040*
X3807*
X3809Y22039*
X3810*
X3812Y22038*
X3813Y22037*
X3915Y21955*
X3917Y21954*
X3918Y21952*
Y21950*
Y21948*
X4180Y14810D02*
X3926D01*
X4180*
Y16690*
X3926*
X4180*
Y14810*
X4365Y7158D02*
X4367Y7162D01*
Y7166*
X4366Y7168*
X4365Y7170*
X4248Y7334*
X4246Y7337*
X4243Y7338*
X4240*
X4237Y7337*
X4233*
X4230Y7335*
X4228Y7332*
Y7328*
Y6764*
X4122*
X4118Y6763*
X4114Y6761*
X4113Y6757*
X4112Y6752*
X4113Y6748*
X4114Y6743*
X4118Y6740*
X4122*
X4356*
X4361*
X4364Y6743*
X4365Y6748*
X4366Y6752*
X4365Y6757*
X4364Y6761*
X4361Y6763*
X4356Y6764*
X4251*
Y7290*
X4347Y7156*
X4350Y7152*
X4352Y7151*
X4354*
X4359Y7153*
X4362Y7155*
X4365Y7158*
X4367Y7162D02*
X4365Y7158D01*
X4362Y7155*
X4359Y7153*
X4354Y7151*
X4352*
X4350Y7152*
X4347Y7156*
X4251Y7290*
Y6764*
X4356*
X4361Y6763*
X4364Y6761*
X4365Y6757*
X4366Y6752*
X4365Y6748*
X4364Y6743*
X4361Y6740*
X4356*
X4122*
X4118*
X4114Y6743*
X4113Y6748*
X4112Y6752*
X4113Y6757*
X4114Y6761*
X4118Y6763*
X4122Y6764*
X4228*
Y7328*
Y7332*
X4230Y7335*
X4233Y7337*
X4237*
X4240Y7338*
X4243*
X4246Y7337*
X4248Y7334*
X4365Y7170*
X4366Y7168*
X4367Y7166*
Y7162*
X4418Y14577D02*
Y14573D01*
X4416Y14569*
X4412Y14566*
X4408Y14565*
X4024*
X4337Y14008*
X4338Y14004*
X4337Y13999*
X4335Y13996*
X4331Y13993*
X4327Y13992*
X4323*
X4319Y13993*
X4316Y13996*
X4012Y14539*
X4316Y13996*
X4319Y13993*
X4323Y13992*
X4327*
X4331Y13993*
X4335Y13996*
X4337Y13999*
X4338Y14004*
X4337Y14008*
X4024Y14565*
X4408*
X4412Y14566*
X4416Y14569*
X4418Y14573*
Y14577*
Y14582*
X4416Y14586*
X4412Y14589*
X4408Y14590*
X4020*
X4408*
X4412Y14589*
X4416Y14586*
X4418Y14582*
Y14577*
X4430Y22560D02*
X4176D01*
X4430*
Y24440*
X4176*
X4430*
Y22560*
X4485Y21531D02*
Y21534D01*
Y21946*
Y21949*
X4484Y21951*
X4482Y21952*
Y21953*
X4481Y21955*
X4379Y22037*
X4377Y22038*
X4376Y22039*
X4375*
X4373Y22040*
X4170*
X4167Y22039*
X4166*
X4164Y22038*
X4163Y22037*
X4061Y21955*
X4059Y21952*
X4058Y21947*
Y21944*
X4059Y21941*
X4061Y21938*
X4064Y21936*
X4067Y21934*
X4070*
X4073*
X4076Y21935*
X4175Y22015*
X4368*
X4461Y21940*
Y21540*
X4368Y21464*
X4175*
X4076Y21544*
X4073Y21545*
X4070Y21546*
X4067Y21545*
X4064Y21544*
X4061Y21541*
X4059Y21538*
X4058Y21535*
Y21531*
X4059Y21527*
X4061Y21524*
X4163Y21442*
X4165Y21441*
X4166Y21440*
X4167*
X4168*
X4373*
X4377Y21441*
X4379Y21442*
X4480Y21524*
X4483Y21526*
X4484Y21529*
X4485Y21531*
Y21534D02*
Y21531D01*
X4484Y21529*
X4483Y21526*
X4480Y21524*
X4379Y21442*
X4377Y21441*
X4373Y21440*
X4168*
X4167*
X4166*
X4165Y21441*
X4163Y21442*
X4061Y21524*
X4059Y21527*
X4058Y21531*
Y21535*
X4059Y21538*
X4061Y21541*
X4064Y21544*
X4067Y21545*
X4070Y21546*
X4073Y21545*
X4076Y21544*
X4175Y21464*
X4368*
X4461Y21540*
Y21940*
X4368Y22015*
X4175*
X4076Y21935*
X4073Y21934*
X4070*
X4067*
X4064Y21936*
X4061Y21938*
X4059Y21941*
X4058Y21944*
Y21947*
X4059Y21952*
X4061Y21955*
X4163Y22037*
X4164Y22038*
X4166Y22039*
X4167*
X4170Y22040*
X4373*
X4375Y22039*
X4376*
X4377Y22038*
X4379Y22037*
X4481Y21955*
X4482Y21953*
Y21952*
X4484Y21951*
X4485Y21949*
Y21946*
Y21534*
X4680Y4310D02*
X3820D01*
Y6190*
X4095*
X3820*
Y4310*
X4680*
Y6190*
X4405*
X4680*
Y4310*
X4985Y14081D02*
Y14084D01*
Y14496*
Y14499*
X4984Y14501*
X4982Y14502*
Y14503*
X4981Y14505*
X4879Y14587*
X4877Y14588*
X4876Y14589*
X4875*
X4873Y14590*
X4670*
X4667Y14589*
X4666*
X4664Y14588*
X4663Y14587*
X4561Y14505*
X4559Y14502*
X4558Y14497*
Y14494*
X4559Y14491*
X4561Y14488*
X4564Y14486*
X4567Y14484*
X4570*
X4573*
X4576Y14485*
X4675Y14565*
X4868*
X4961Y14490*
Y14090*
X4868Y14014*
X4675*
X4576Y14094*
X4573Y14095*
X4570Y14096*
X4567Y14095*
X4564Y14094*
X4561Y14091*
X4559Y14088*
X4558Y14085*
Y14081*
X4559Y14077*
X4561Y14074*
X4663Y13992*
X4665Y13991*
X4666Y13990*
X4667*
X4668*
X4873*
X4877Y13991*
X4879Y13992*
X4980Y14074*
X4983Y14076*
X4984Y14079*
X4985Y14081*
Y14084D02*
Y14081D01*
X4984Y14079*
X4983Y14076*
X4980Y14074*
X4879Y13992*
X4877Y13991*
X4873Y13990*
X4668*
X4667*
X4666*
X4665Y13991*
X4663Y13992*
X4561Y14074*
X4559Y14077*
X4558Y14081*
Y14085*
X4559Y14088*
X4561Y14091*
X4564Y14094*
X4567Y14095*
X4570Y14096*
X4573Y14095*
X4576Y14094*
X4675Y14014*
X4868*
X4961Y14090*
Y14490*
X4868Y14565*
X4675*
X4576Y14485*
X4573Y14484*
X4570*
X4567*
X4564Y14486*
X4561Y14488*
X4559Y14491*
X4558Y14494*
Y14497*
X4559Y14502*
X4561Y14505*
X4663Y14587*
X4664Y14588*
X4666Y14589*
X4667*
X4670Y14590*
X4873*
X4875Y14589*
X4876*
X4877Y14588*
X4879Y14587*
X4981Y14505*
X4982Y14503*
Y14502*
X4984Y14501*
X4985Y14499*
Y14496*
Y14084*
X5008Y6831D02*
Y6834D01*
Y7246*
Y7249*
X5007Y7251*
X5005Y7252*
Y7253*
X5004Y7255*
X4902Y7337*
X4900Y7338*
X4899Y7339*
X4898*
X4896Y7340*
X4693*
X4690Y7339*
X4689*
X4687Y7338*
X4686Y7337*
X4584Y7255*
X4582Y7252*
X4581Y7247*
Y7244*
X4582Y7241*
X4584Y7238*
X4587Y7236*
X4590Y7234*
X4593*
X4596*
X4599Y7235*
X4698Y7315*
X4891*
X4984Y7240*
Y6840*
X4891Y6764*
X4698*
X4599Y6844*
X4596Y6845*
X4593Y6846*
X4590Y6845*
X4587Y6844*
X4584Y6841*
X4582Y6838*
X4581Y6835*
Y6831*
X4582Y6827*
X4584Y6824*
X4686Y6742*
X4688Y6741*
X4689Y6740*
X4690*
X4691*
X4896*
X4900Y6741*
X4902Y6742*
X5003Y6824*
X5006Y6826*
X5007Y6829*
X5008Y6831*
Y6834D02*
Y6831D01*
X5007Y6829*
X5006Y6826*
X5003Y6824*
X4902Y6742*
X4900Y6741*
X4896Y6740*
X4691*
X4690*
X4689*
X4688Y6741*
X4686Y6742*
X4584Y6824*
X4582Y6827*
X4581Y6831*
Y6835*
X4582Y6838*
X4584Y6841*
X4587Y6844*
X4590Y6845*
X4593Y6846*
X4596Y6845*
X4599Y6844*
X4698Y6764*
X4891*
X4984Y6840*
Y7240*
X4891Y7315*
X4698*
X4599Y7235*
X4596Y7234*
X4593*
X4590*
X4587Y7236*
X4584Y7238*
X4582Y7241*
X4581Y7244*
Y7247*
X4582Y7252*
X4584Y7255*
X4686Y7337*
X4687Y7338*
X4689Y7339*
X4690*
X4693Y7340*
X4896*
X4898Y7339*
X4899*
X4900Y7338*
X4902Y7337*
X5004Y7255*
X5005Y7253*
Y7252*
X5007Y7251*
X5008Y7249*
Y7246*
Y6834*
X8820Y14060D02*
X9680D01*
Y15940*
X8820*
Y14060*
X9050Y16164D02*
X9104Y16219D01*
Y16397*
X9088Y16448*
X8805*
X8788Y16397*
Y16219*
X8841Y16164*
X9050*
X9088Y16472D02*
X9104Y16524D01*
Y16660*
X9050Y16715*
X8841*
X8788Y16660*
Y16524*
X8805Y16472*
X9088*
X9104Y16219D02*
X9050Y16164D01*
X8841*
X8788Y16219*
Y16397*
X8805Y16448*
X9088*
X9104Y16397*
Y16219*
Y16524D02*
X9088Y16472D01*
X8805*
X8788Y16524*
Y16660*
X8841Y16715*
X9050*
X9104Y16660*
Y16524*
X9128Y16518D02*
Y16519D01*
Y16669*
Y16672*
X9125Y16675*
X9065Y16737*
X9062Y16739*
X9060*
X9058Y16740*
X8836*
X8834Y16739*
X8831*
X8828Y16737*
X8768Y16675*
X8765Y16671*
X8764Y16667*
Y16520*
X8765Y16519*
Y16518*
X8784Y16461*
X8765Y16403*
Y16401*
X8764Y16399*
Y16212*
X8765Y16210*
Y16208*
X8768Y16205*
X8828Y16143*
X8831Y16141*
X8834Y16140*
X8836*
X9058*
X9060*
X9062Y16141*
X9065Y16143*
X9125Y16205*
X9128Y16208*
Y16210*
Y16403*
X9108Y16461*
X9128Y16518*
Y16519D02*
Y16518D01*
X9108Y16461*
X9128Y16403*
Y16210*
Y16208*
X9125Y16205*
X9065Y16143*
X9062Y16141*
X9060Y16140*
X9058*
X8836*
X8834*
X8831Y16141*
X8828Y16143*
X8768Y16205*
X8765Y16208*
Y16210*
X8764Y16212*
Y16399*
X8765Y16401*
Y16403*
X8784Y16461*
X8765Y16518*
Y16519*
X8764Y16520*
Y16667*
X8765Y16671*
X8768Y16675*
X8828Y16737*
X8831Y16739*
X8834*
X8836Y16740*
X9058*
X9060Y16739*
X9062*
X9065Y16737*
X9125Y16675*
X9128Y16672*
Y16669*
Y16519*
X9555Y21658D02*
X9878D01*
X9555Y21980*
Y21658*
X9680Y14060D02*
X8820D01*
Y15940*
X9680*
Y14060*
X9732Y16231D02*
X9733Y16234D01*
Y16646*
X9732Y16649*
X9731Y16651*
X9730Y16652*
X9729Y16653*
X9728Y16655*
X9627Y16737*
X9625Y16738*
X9623Y16739*
X9620Y16740*
X9418*
X9415Y16739*
X9414*
X9412Y16738*
X9410Y16737*
X9309Y16655*
X9306Y16652*
X9305Y16647*
X9306Y16644*
X9307Y16641*
X9309Y16638*
X9312Y16636*
X9315Y16634*
X9318*
X9321*
X9323Y16635*
X9422Y16715*
X9616*
X9708Y16640*
Y16240*
X9616Y16164*
X9422*
X9323Y16244*
X9321Y16245*
X9318Y16246*
X9315Y16245*
X9312Y16244*
X9309Y16241*
X9307Y16238*
X9306Y16235*
X9305Y16231*
X9306Y16227*
X9309Y16224*
X9410Y16142*
X9413Y16141*
Y16140*
X9415*
X9416*
X9620*
X9625Y16141*
X9627Y16142*
X9728Y16224*
X9731Y16226*
Y16229*
X9732Y16231*
X9733Y16234D02*
X9732Y16231D01*
X9731Y16229*
Y16226*
X9728Y16224*
X9627Y16142*
X9625Y16141*
X9620Y16140*
X9416*
X9415*
X9413*
Y16141*
X9410Y16142*
X9309Y16224*
X9306Y16227*
X9305Y16231*
X9306Y16235*
X9307Y16238*
X9309Y16241*
X9312Y16244*
X9315Y16245*
X9318Y16246*
X9321Y16245*
X9323Y16244*
X9422Y16164*
X9616*
X9708Y16240*
Y16640*
X9616Y16715*
X9422*
X9323Y16635*
X9321Y16634*
X9318*
X9315*
X9312Y16636*
X9309Y16638*
X9307Y16641*
X9306Y16644*
X9305Y16647*
X9306Y16652*
X9309Y16655*
X9410Y16737*
X9412Y16738*
X9414Y16739*
X9415*
X9418Y16740*
X9620*
X9623Y16739*
X9625Y16738*
X9627Y16737*
X9728Y16655*
X9729Y16653*
X9730Y16652*
X9731Y16651*
X9732Y16649*
X9733Y16646*
Y16234*
X9824Y24440D02*
X9570D01*
Y22560*
X9824*
X9570*
Y24440*
X9824*
X9878Y21658D02*
X9555D01*
Y21980*
X9878Y21658*
X9920Y21644D02*
Y21648D01*
X9919Y21652*
X9917Y21655*
X9552Y22019*
X9549Y22022*
X9546*
X9543*
X9539Y22021*
X9536Y22019*
X9534Y22016*
X9532Y22014*
X9531Y22011*
Y21658*
X9503*
X9499*
X9495Y21655*
X9494Y21650*
X9493Y21646*
X9494Y21641*
X9495Y21637*
X9499Y21635*
X9503Y21634*
X9531*
Y21452*
X9533Y21447*
X9536Y21444*
X9539Y21442*
X9543*
X9548*
X9552Y21444*
X9555Y21447*
Y21452*
Y21634*
X9908*
X9911*
X9914Y21635*
X9916Y21637*
X9917Y21640*
X9920Y21644*
Y21648D02*
Y21644D01*
X9917Y21640*
X9916Y21637*
X9914Y21635*
X9911Y21634*
X9908*
X9555*
Y21452*
Y21447*
X9552Y21444*
X9548Y21442*
X9543*
X9539*
X9536Y21444*
X9533Y21447*
X9531Y21452*
Y21634*
X9503*
X9499Y21635*
X9495Y21637*
X9494Y21641*
X9493Y21646*
X9494Y21650*
X9495Y21655*
X9499Y21658*
X9503*
X9531*
Y22011*
X9532Y22014*
X9534Y22016*
X9536Y22019*
X9539Y22021*
X9543Y22022*
X9546*
X9549*
X9552Y22019*
X9917Y21655*
X9919Y21652*
X9920Y21648*
X10430Y22560D02*
X10176D01*
X10430*
Y24440*
X10176*
X10430*
Y22560*
X10485Y21531D02*
Y21534D01*
Y21946*
Y21949*
X10484Y21951*
X10482Y21952*
Y21953*
X10481Y21955*
X10379Y22037*
X10377Y22038*
X10376Y22039*
X10375*
X10373Y22040*
X10170*
X10167Y22039*
X10166*
X10164Y22038*
X10163Y22037*
X10061Y21955*
X10059Y21952*
X10058Y21947*
Y21944*
X10059Y21941*
X10061Y21938*
X10064Y21936*
X10067Y21934*
X10070*
X10073*
X10076Y21935*
X10175Y22015*
X10368*
X10461Y21940*
Y21540*
X10368Y21464*
X10175*
X10076Y21544*
X10073Y21545*
X10070Y21546*
X10067Y21545*
X10064Y21544*
X10061Y21541*
X10059Y21538*
X10058Y21535*
Y21531*
X10059Y21527*
X10061Y21524*
X10163Y21442*
X10165Y21441*
X10166Y21440*
X10167*
X10168*
X10373*
X10377Y21441*
X10379Y21442*
X10480Y21524*
X10483Y21526*
X10484Y21529*
X10485Y21531*
Y21534D02*
Y21531D01*
X10484Y21529*
X10483Y21526*
X10480Y21524*
X10379Y21442*
X10377Y21441*
X10373Y21440*
X10168*
X10167*
X10166*
X10165Y21441*
X10163Y21442*
X10061Y21524*
X10059Y21527*
X10058Y21531*
Y21535*
X10059Y21538*
X10061Y21541*
X10064Y21544*
X10067Y21545*
X10070Y21546*
X10073Y21545*
X10076Y21544*
X10175Y21464*
X10368*
X10461Y21540*
Y21940*
X10368Y22015*
X10175*
X10076Y21935*
X10073Y21934*
X10070*
X10067*
X10064Y21936*
X10061Y21938*
X10059Y21941*
X10058Y21944*
Y21947*
X10059Y21952*
X10061Y21955*
X10163Y22037*
X10164Y22038*
X10166Y22039*
X10167*
X10170Y22040*
X10373*
X10375Y22039*
X10376*
X10377Y22038*
X10379Y22037*
X10481Y21955*
X10482Y21953*
Y21952*
X10484Y21951*
X10485Y21949*
Y21946*
Y21534*
X12558Y658D02*
X12560Y662D01*
Y666*
Y668*
X12558Y670*
X12441Y834*
X12439Y837*
X12437Y838*
X12434*
X12431Y837*
X12426*
X12423Y835*
X12422Y832*
X12421Y828*
Y264*
X12315*
X12311Y263*
X12308Y261*
X12306Y257*
X12305Y252*
X12306Y248*
X12308Y243*
X12311Y240*
X12315*
X12549*
X12554*
X12557Y243*
X12558Y248*
X12559Y252*
X12558Y257*
X12557Y261*
X12554Y263*
X12549Y264*
X12444*
Y790*
X12540Y656*
X12543Y652*
X12545Y651*
X12548*
X12552Y653*
X12555Y655*
X12558Y658*
X12560Y662D02*
X12558Y658D01*
X12555Y655*
X12552Y653*
X12548Y651*
X12545*
X12543Y652*
X12540Y656*
X12444Y790*
Y264*
X12549*
X12554Y263*
X12557Y261*
X12558Y257*
X12559Y252*
X12558Y248*
X12557Y243*
X12554Y240*
X12549*
X12315*
X12311*
X12308Y243*
X12306Y248*
X12305Y252*
X12306Y257*
X12308Y261*
X12311Y263*
X12315Y264*
X12421*
Y828*
X12422Y832*
X12423Y835*
X12426Y837*
X12431*
X12434Y838*
X12437*
X12439Y837*
X12441Y834*
X12558Y670*
X12560Y668*
Y666*
Y662*
X12570Y1060D02*
X13430D01*
Y2940*
X12570*
Y1060*
X12748Y6008D02*
X12750Y6012D01*
Y6016*
X12749Y6018*
X12748Y6020*
X12631Y6184*
X12629Y6187*
X12626Y6188*
X12623*
X12620Y6187*
X12616*
X12613Y6185*
X12611Y6182*
Y6178*
Y5614*
X12505*
X12501Y5613*
X12497Y5611*
X12496Y5607*
X12495Y5602*
X12496Y5598*
X12497Y5593*
X12501Y5590*
X12505*
X12739*
X12744*
X12747Y5593*
X12748Y5598*
X12749Y5602*
X12748Y5607*
X12747Y5611*
X12744Y5613*
X12739Y5614*
X12634*
Y6140*
X12730Y6006*
X12733Y6002*
X12735Y6001*
X12737*
X12742Y6003*
X12745Y6005*
X12748Y6008*
X12750Y6012D02*
X12748Y6008D01*
X12745Y6005*
X12742Y6003*
X12737Y6001*
X12735*
X12733Y6002*
X12730Y6006*
X12634Y6140*
Y5614*
X12739*
X12744Y5613*
X12747Y5611*
X12748Y5607*
X12749Y5602*
X12748Y5598*
X12747Y5593*
X12744Y5590*
X12739*
X12505*
X12501*
X12497Y5593*
X12496Y5598*
X12495Y5602*
X12496Y5607*
X12497Y5611*
X12501Y5613*
X12505Y5614*
X12611*
Y6178*
Y6182*
X12613Y6185*
X12616Y6187*
X12620*
X12623Y6188*
X12626*
X12629Y6187*
X12631Y6184*
X12748Y6020*
X12749Y6018*
X12750Y6016*
Y6012*
X13104Y658D02*
X13106Y662D01*
Y666*
Y668*
X13104Y670*
X12987Y834*
X12985Y837*
X12983Y838*
X12980*
X12977Y837*
X12972*
X12969Y835*
X12968Y832*
X12967Y828*
Y264*
X12861*
X12857Y263*
X12854Y261*
X12852Y257*
X12851Y252*
X12852Y248*
X12854Y243*
X12857Y240*
X12861*
X13095*
X13100*
X13103Y243*
X13104Y248*
X13105Y252*
X13104Y257*
X13103Y261*
X13100Y263*
X13095Y264*
X12990*
Y790*
X13086Y656*
X13089Y652*
X13091Y651*
X13094*
X13098Y653*
X13101Y655*
X13104Y658*
X13106Y662D02*
X13104Y658D01*
X13101Y655*
X13098Y653*
X13094Y651*
X13091*
X13089Y652*
X13086Y656*
X12990Y790*
Y264*
X13095*
X13100Y263*
X13103Y261*
X13104Y257*
X13105Y252*
X13104Y248*
X13103Y243*
X13100Y240*
X13095*
X12861*
X12857*
X12854Y243*
X12852Y248*
X12851Y252*
X12852Y257*
X12854Y261*
X12857Y263*
X12861Y264*
X12967*
Y828*
X12968Y832*
X12969Y835*
X12972Y837*
X12977*
X12980Y838*
X12983*
X12985Y837*
X12987Y834*
X13104Y670*
X13106Y668*
Y666*
Y662*
X13233Y4120D02*
X12730D01*
Y4948*
Y4120*
X13233*
X13270Y4221D02*
Y5380D01*
X12730*
Y5052*
Y5380*
X13270*
Y4221*
X13391Y5597D02*
X13393Y5602D01*
Y5684*
X13392Y5686*
X13391Y5690*
X13390Y5692*
X13389Y5693*
X13387Y5694*
X12988Y6019*
Y6090*
X13082Y6165*
X13276*
X13373Y6085*
X13378Y6084*
X13382Y6085*
X13385Y6087*
X13388Y6090*
X13390Y6094*
X13391Y6098*
X13390Y6102*
X13389Y6104*
X13387Y6105*
X13286Y6187*
X13284Y6188*
X13283Y6189*
X13282*
X13279Y6190*
X13077*
X13075Y6189*
X13073*
X13072Y6188*
X13069Y6187*
X12968Y6105*
X12967Y6102*
X12966Y6100*
X12965Y6098*
X12964Y6096*
Y6013*
X12965Y6011*
X12966Y6007*
X12967Y6004*
X12968Y6003*
X13368Y5679*
Y5614*
X12976*
X12972Y5613*
X12968Y5611*
X12967Y5607*
X12966Y5602*
X12967Y5598*
X12968Y5593*
X12972Y5591*
X12976Y5590*
X13381*
X13385Y5591*
X13388Y5594*
X13391Y5597*
X13393Y5602D02*
X13391Y5597D01*
X13388Y5594*
X13385Y5591*
X13381Y5590*
X12976*
X12972Y5591*
X12968Y5593*
X12967Y5598*
X12966Y5602*
X12967Y5607*
X12968Y5611*
X12972Y5613*
X12976Y5614*
X13368*
Y5679*
X12968Y6003*
X12967Y6004*
X12966Y6007*
X12965Y6011*
X12964Y6013*
Y6096*
X12965Y6098*
X12966Y6100*
X12967Y6102*
X12968Y6105*
X13069Y6187*
X13072Y6188*
X13073Y6189*
X13075*
X13077Y6190*
X13279*
X13282Y6189*
X13283*
X13284Y6188*
X13286Y6187*
X13387Y6105*
X13389Y6104*
X13390Y6102*
X13391Y6098*
X13390Y6094*
X13388Y6090*
X13385Y6087*
X13382Y6085*
X13378Y6084*
X13373Y6085*
X13276Y6165*
X13082*
X12988Y6090*
Y6019*
X13387Y5694*
X13389Y5693*
X13390Y5692*
X13391Y5690*
X13392Y5686*
X13393Y5684*
Y5602*
X13430Y1060D02*
X12570D01*
Y2940*
X13430*
Y1060*
X13437Y552D02*
X13724D01*
Y815*
X13437*
X13344Y740*
Y628*
X13437Y552*
X13724D02*
X13437D01*
X13344Y628*
Y740*
X13437Y815*
X13724*
Y552*
X13748Y247D02*
X13749Y252D01*
Y828*
X13748Y832*
X13745Y836*
X13742Y839*
X13736Y840*
X13434*
X13429Y839*
X13426Y837*
X13324Y755*
X13323Y753*
X13322*
Y752*
Y750*
X13320Y749*
Y746*
Y622*
Y619*
X13322Y616*
Y613*
X13324Y612*
X13420Y536*
X13322Y256*
X13321Y251*
X13322Y247*
X13325Y244*
X13329Y242*
X13333Y241*
X13337Y242*
X13341Y244*
X13344Y248*
X13442Y528*
X13724*
Y252*
X13725Y247*
X13728Y244*
X13733Y242*
X13737*
X13742*
X13745Y244*
X13748Y247*
X13749Y252D02*
X13748Y247D01*
X13745Y244*
X13742Y242*
X13737*
X13733*
X13728Y244*
X13725Y247*
X13724Y252*
Y528*
X13442*
X13344Y248*
X13341Y244*
X13337Y242*
X13333Y241*
X13329Y242*
X13325Y244*
X13322Y247*
X13321Y251*
X13322Y256*
X13420Y536*
X13324Y612*
X13322Y613*
Y616*
X13320Y619*
Y622*
Y746*
Y749*
X13322Y750*
Y752*
Y753*
X13323*
X13324Y755*
X13426Y837*
X13429Y839*
X13434Y840*
X13736*
X13742Y839*
X13745Y836*
X13748Y832*
X13749Y828*
Y252*
X13958Y5681D02*
Y5684D01*
Y6096*
Y6099*
X13957Y6101*
X13955Y6102*
Y6103*
X13954Y6105*
X13852Y6187*
X13850Y6188*
X13849Y6189*
X13848*
X13846Y6190*
X13643*
X13640Y6189*
X13639*
X13637Y6188*
X13636Y6187*
X13534Y6105*
X13532Y6102*
X13531Y6097*
Y6094*
X13532Y6091*
X13534Y6088*
X13537Y6086*
X13540Y6084*
X13543*
X13546*
X13549Y6085*
X13648Y6165*
X13841*
X13934Y6090*
Y5690*
X13841Y5614*
X13648*
X13549Y5694*
X13546Y5695*
X13543Y5696*
X13540Y5695*
X13537Y5694*
X13534Y5691*
X13532Y5688*
X13531Y5685*
Y5681*
X13532Y5677*
X13534Y5674*
X13636Y5592*
X13638Y5591*
X13639Y5590*
X13640*
X13641*
X13846*
X13850Y5591*
X13852Y5592*
X13953Y5674*
X13956Y5676*
X13957Y5679*
X13958Y5681*
Y5684D02*
Y5681D01*
X13957Y5679*
X13956Y5676*
X13953Y5674*
X13852Y5592*
X13850Y5591*
X13846Y5590*
X13641*
X13640*
X13639*
X13638Y5591*
X13636Y5592*
X13534Y5674*
X13532Y5677*
X13531Y5681*
Y5685*
X13532Y5688*
X13534Y5691*
X13537Y5694*
X13540Y5695*
X13543Y5696*
X13546Y5695*
X13549Y5694*
X13648Y5614*
X13841*
X13934Y5690*
Y6090*
X13841Y6165*
X13648*
X13549Y6085*
X13546Y6084*
X13543*
X13540*
X13537Y6086*
X13534Y6088*
X13532Y6091*
X13531Y6094*
Y6097*
X13532Y6102*
X13534Y6105*
X13636Y6187*
X13637Y6188*
X13639Y6189*
X13640*
X13643Y6190*
X13846*
X13848Y6189*
X13849*
X13850Y6188*
X13852Y6187*
X13954Y6105*
X13955Y6103*
Y6102*
X13957Y6101*
X13958Y6099*
Y6096*
Y5684*
X14074Y16690D02*
X13820D01*
Y14810*
X14074*
X13820*
Y16690*
X14074*
X14532Y8208D02*
X14855D01*
X14532Y8530*
Y8208*
X14553Y14011D02*
X14645Y14087D01*
Y14240*
X14553Y14315*
X14359*
X14265Y14240*
Y14087*
X14359Y14011*
X14553*
X14645Y14087D02*
X14553Y14011D01*
X14359*
X14265Y14087*
Y14240*
X14359Y14315*
X14553*
X14645Y14240*
Y14087*
X14669Y14079D02*
X14670Y14081D01*
Y14246*
X14669Y14249*
X14668Y14251*
X14667Y14253*
X14666*
X14664Y14255*
X14563Y14337*
X14561Y14338*
X14560Y14339*
X14559*
X14556Y14340*
X14354*
X14352Y14339*
X14350*
X14349Y14338*
X14346Y14337*
X14245Y14255*
X14244Y14252*
X14243Y14250*
X14242Y14248*
X14241Y14246*
Y13834*
X14242Y13832*
X14243Y13828*
X14244Y13827*
X14245Y13824*
X14346Y13742*
X14349Y13741*
X14350Y13740*
X14352*
X14556*
X14561Y13741*
X14563Y13742*
X14664Y13824*
X14666Y13826*
X14667Y13827*
X14668Y13831*
X14667Y13835*
X14665Y13839*
X14662Y13842*
X14659Y13845*
X14655*
X14650Y13844*
X14553Y13764*
X14359*
X14265Y13840*
Y14055*
X14347Y13989*
X14349Y13988*
X14350*
X14352Y13987*
X14559*
X14562Y13988*
X14563Y13989*
X14664Y14071*
X14666Y14072*
X14667Y14073*
X14668Y14075*
X14669Y14079*
X14670Y14081D02*
X14669Y14079D01*
X14668Y14075*
X14667Y14073*
X14666Y14072*
X14664Y14071*
X14563Y13989*
X14562Y13988*
X14559Y13987*
X14352*
X14350Y13988*
X14349*
X14347Y13989*
X14265Y14055*
Y13840*
X14359Y13764*
X14553*
X14650Y13844*
X14655Y13845*
X14659*
X14662Y13842*
X14665Y13839*
X14667Y13835*
X14668Y13831*
X14667Y13827*
X14666Y13826*
X14664Y13824*
X14563Y13742*
X14561Y13741*
X14556Y13740*
X14352*
X14350*
X14349Y13741*
X14346Y13742*
X14245Y13824*
X14244Y13827*
X14243Y13828*
X14242Y13832*
X14241Y13834*
Y14246*
X14242Y14248*
X14243Y14250*
X14244Y14252*
X14245Y14255*
X14346Y14337*
X14349Y14338*
X14350Y14339*
X14352*
X14354Y14340*
X14556*
X14559Y14339*
X14560*
X14561Y14338*
X14563Y14337*
X14664Y14255*
X14666Y14253*
X14667*
X14668Y14251*
X14669Y14249*
X14670Y14246*
Y14081*
X14680Y14810D02*
X14426D01*
X14680*
Y16690*
X14426*
X14680*
Y14810*
X14855Y8208D02*
X14532D01*
Y8530*
X14855Y8208*
X14897Y8194D02*
Y8198D01*
X14896Y8202*
X14894Y8205*
X14529Y8569*
X14526Y8572*
X14523*
X14520*
X14516Y8571*
X14513Y8569*
X14511Y8566*
X14509Y8564*
X14508Y8561*
Y8208*
X14480*
X14476*
X14472Y8205*
X14471Y8200*
X14470Y8196*
X14471Y8191*
X14472Y8187*
X14476Y8185*
X14480Y8184*
X14508*
Y8002*
X14510Y7997*
X14513Y7994*
X14516Y7992*
X14520*
X14525*
X14529Y7994*
X14532Y7997*
Y8002*
Y8184*
X14885*
X14888*
X14891Y8185*
X14893Y8187*
X14894Y8190*
X14897Y8194*
Y8198D02*
Y8194D01*
X14894Y8190*
X14893Y8187*
X14891Y8185*
X14888Y8184*
X14885*
X14532*
Y8002*
Y7997*
X14529Y7994*
X14525Y7992*
X14520*
X14516*
X14513Y7994*
X14510Y7997*
X14508Y8002*
Y8184*
X14480*
X14476Y8185*
X14472Y8187*
X14471Y8191*
X14470Y8196*
X14471Y8200*
X14472Y8205*
X14476Y8208*
X14480*
X14508*
Y8561*
X14509Y8564*
X14511Y8566*
X14513Y8569*
X14516Y8571*
X14520Y8572*
X14523*
X14526*
X14529Y8569*
X14894Y8205*
X14896Y8202*
X14897Y8198*
X15228Y8204D02*
Y8410D01*
Y8204*
X15235Y13831D02*
Y13834D01*
Y14246*
Y14249*
X15234Y14251*
X15232Y14252*
Y14253*
X15231Y14255*
X15129Y14337*
X15127Y14338*
X15126Y14339*
X15125*
X15123Y14340*
X14920*
X14917Y14339*
X14916*
X14914Y14338*
X14913Y14337*
X14811Y14255*
X14809Y14252*
X14808Y14247*
Y14244*
X14809Y14241*
X14811Y14238*
X14814Y14236*
X14817Y14234*
X14820*
X14823*
X14826Y14235*
X14925Y14315*
X15118*
X15211Y14240*
Y13840*
X15118Y13764*
X14925*
X14826Y13844*
X14823Y13845*
X14820Y13846*
X14817Y13845*
X14814Y13844*
X14811Y13841*
X14809Y13838*
X14808Y13835*
Y13831*
X14809Y13827*
X14811Y13824*
X14913Y13742*
X14915Y13741*
X14916Y13740*
X14917*
X14918*
X15123*
X15127Y13741*
X15129Y13742*
X15230Y13824*
X15233Y13826*
X15234Y13829*
X15235Y13831*
Y13834D02*
Y13831D01*
X15234Y13829*
X15233Y13826*
X15230Y13824*
X15129Y13742*
X15127Y13741*
X15123Y13740*
X14918*
X14917*
X14916*
X14915Y13741*
X14913Y13742*
X14811Y13824*
X14809Y13827*
X14808Y13831*
Y13835*
X14809Y13838*
X14811Y13841*
X14814Y13844*
X14817Y13845*
X14820Y13846*
X14823Y13845*
X14826Y13844*
X14925Y13764*
X15118*
X15211Y13840*
Y14240*
X15118Y14315*
X14925*
X14826Y14235*
X14823Y14234*
X14820*
X14817*
X14814Y14236*
X14811Y14238*
X14809Y14241*
X14808Y14244*
Y14247*
X14809Y14252*
X14811Y14255*
X14913Y14337*
X14914Y14338*
X14916Y14339*
X14917*
X14920Y14340*
X15123*
X15125Y14339*
X15126*
X15127Y14338*
X15129Y14337*
X15231Y14255*
X15232Y14253*
Y14252*
X15234Y14251*
X15235Y14249*
Y14246*
Y13834*
X15367Y8412D02*
X15365Y8408D01*
X15362Y8405*
X15359Y8403*
X15354Y8401*
X15352*
X15350Y8402*
X15347Y8406*
X15251Y8540*
Y8205*
Y8540*
X15347Y8406*
X15350Y8402*
X15352Y8401*
X15354*
X15359Y8403*
X15362Y8405*
X15365Y8408*
X15367Y8412*
Y8416*
X15366Y8418*
X15365Y8420*
X15248Y8584*
X15246Y8587*
X15243Y8588*
X15240*
X15237Y8587*
X15233*
X15230Y8585*
X15233Y8587*
X15237*
X15240Y8588*
X15243*
X15246Y8587*
X15248Y8584*
X15365Y8420*
X15366Y8418*
X15367Y8416*
Y8412*
X15680Y3310D02*
X15426D01*
X15680*
Y5190*
X14820*
Y3310*
X15074*
X14820*
Y5190*
X15680*
Y3310*
Y8810D02*
X14820D01*
Y10690*
X15129*
X14820*
Y8810*
X15680*
Y10690*
X15480*
X15680*
Y8810*
X15824Y24440D02*
X15570D01*
Y22560*
X15824*
X15570*
Y24440*
X15824*
X15920Y21735D02*
Y21739D01*
Y22028*
X15919Y22032*
X15916Y22036*
X15912Y22039*
X15908Y22040*
X15503*
X15499Y22039*
X15495Y22036*
X15494Y22032*
X15493Y22027*
X15494Y22023*
X15495Y22019*
X15499Y22016*
X15503Y22015*
X15895*
Y21765*
X15813Y21831*
X15811Y21832*
X15809Y21833*
X15807*
X15605*
X15600Y21832*
X15597Y21831*
X15495Y21749*
Y21748*
X15494Y21747*
X15493Y21746*
Y21745*
X15492Y21742*
X15491Y21739*
Y21534*
X15492Y21532*
X15493Y21528*
X15494Y21527*
X15495Y21525*
X15597Y21442*
X15599Y21441*
X15600*
X15602Y21440*
X15603*
X15807*
X15809Y21441*
X15812*
X15813Y21442*
X15915Y21525*
X15917Y21526*
X15918Y21528*
Y21530*
X15919Y21532*
X15918Y21536*
X15915Y21541*
X15912Y21544*
X15908Y21546*
X15905*
X15900Y21544*
X15803Y21465*
X15609*
X15515Y21540*
Y21733*
X15609Y21809*
X15803*
X15900Y21730*
X15903Y21728*
X15906Y21727*
X15909Y21728*
X15911Y21729*
X15915Y21730*
X15918Y21732*
X15920Y21735*
Y21739D02*
Y21735D01*
X15918Y21732*
X15915Y21730*
X15911Y21729*
X15909Y21728*
X15906Y21727*
X15903Y21728*
X15900Y21730*
X15803Y21809*
X15609*
X15515Y21733*
Y21540*
X15609Y21465*
X15803*
X15900Y21544*
X15905Y21546*
X15908*
X15912Y21544*
X15915Y21541*
X15918Y21536*
X15919Y21532*
X15918Y21530*
Y21528*
X15917Y21526*
X15915Y21525*
X15813Y21442*
X15812Y21441*
X15809*
X15807Y21440*
X15603*
X15602*
X15600Y21441*
X15599*
X15597Y21442*
X15495Y21525*
X15494Y21527*
X15493Y21528*
X15492Y21532*
X15491Y21534*
Y21739*
X15492Y21742*
X15493Y21745*
Y21746*
X15494Y21747*
X15495Y21748*
Y21749*
X15597Y21831*
X15600Y21832*
X15605Y21833*
X15807*
X15809*
X15811Y21832*
X15813Y21831*
X15895Y21765*
Y22015*
X15503*
X15499Y22016*
X15495Y22019*
X15494Y22023*
X15493Y22027*
X15494Y22032*
X15495Y22036*
X15499Y22039*
X15503Y22040*
X15908*
X15912Y22039*
X15916Y22036*
X15919Y22032*
X15920Y22028*
Y21739*
X16008Y8081D02*
Y8084D01*
Y8496*
Y8499*
X16007Y8501*
X16005Y8502*
Y8503*
X16004Y8505*
X15902Y8587*
X15900Y8588*
X15899Y8589*
X15898*
X15896Y8590*
X15693*
X15690Y8589*
X15689*
X15687Y8588*
X15686Y8587*
X15584Y8505*
X15582Y8502*
X15581Y8497*
Y8494*
X15582Y8491*
X15584Y8488*
X15587Y8486*
X15590Y8484*
X15593*
X15596*
X15599Y8485*
X15698Y8565*
X15891*
X15984Y8490*
Y8090*
X15891Y8014*
X15698*
X15599Y8094*
X15596Y8095*
X15593Y8096*
X15590Y8095*
X15587Y8094*
X15584Y8091*
X15582Y8088*
X15581Y8085*
Y8081*
X15582Y8077*
X15584Y8074*
X15686Y7992*
X15688Y7991*
X15689Y7990*
X15690*
X15691*
X15896*
X15900Y7991*
X15902Y7992*
X16003Y8074*
X16006Y8076*
X16007Y8079*
X16008Y8081*
Y8084D02*
Y8081D01*
X16007Y8079*
X16006Y8076*
X16003Y8074*
X15902Y7992*
X15900Y7991*
X15896Y7990*
X15691*
X15690*
X15689*
X15688Y7991*
X15686Y7992*
X15584Y8074*
X15582Y8077*
X15581Y8081*
Y8085*
X15582Y8088*
X15584Y8091*
X15587Y8094*
X15590Y8095*
X15593Y8096*
X15596Y8095*
X15599Y8094*
X15698Y8014*
X15891*
X15984Y8090*
Y8490*
X15891Y8565*
X15698*
X15599Y8485*
X15596Y8484*
X15593*
X15590*
X15587Y8486*
X15584Y8488*
X15582Y8491*
X15581Y8494*
Y8497*
X15582Y8502*
X15584Y8505*
X15686Y8587*
X15687Y8588*
X15689Y8589*
X15690*
X15693Y8590*
X15896*
X15898Y8589*
X15899*
X15900Y8588*
X15902Y8587*
X16004Y8505*
X16005Y8503*
Y8502*
X16007Y8501*
X16008Y8499*
Y8496*
Y8084*
X16035Y2497D02*
X16036Y2502D01*
Y2584*
Y2586*
X16035Y2590*
X16033Y2592*
Y2593*
X16031Y2594*
X15632Y2919*
Y2990*
X15726Y3065*
X15919*
X16017Y2985*
X16021Y2984*
X16026Y2985*
X16029Y2987*
X16032Y2990*
X16034Y2994*
X16035Y2998*
X16034Y3002*
X16033Y3004*
X16031Y3005*
X15930Y3087*
X15928Y3088*
X15927Y3089*
X15925*
X15923Y3090*
X15721*
X15718Y3089*
X15717*
X15715Y3088*
X15713Y3087*
X15612Y3005*
X15610Y3002*
Y3000*
X15609Y2998*
X15608Y2996*
Y2913*
X15609Y2911*
X15610Y2907*
Y2904*
X15612Y2903*
X16012Y2579*
Y2514*
X15620*
X15616Y2513*
X15612Y2511*
X15610Y2507*
Y2502*
Y2498*
X15612Y2493*
X15616Y2491*
X15620Y2490*
X16024*
X16029Y2491*
X16032Y2494*
X16035Y2497*
X16036Y2502D02*
X16035Y2497D01*
X16032Y2494*
X16029Y2491*
X16024Y2490*
X15620*
X15616Y2491*
X15612Y2493*
X15610Y2498*
Y2502*
Y2507*
X15612Y2511*
X15616Y2513*
X15620Y2514*
X16012*
Y2579*
X15612Y2903*
X15610Y2904*
Y2907*
X15609Y2911*
X15608Y2913*
Y2996*
X15609Y2998*
X15610Y3000*
Y3002*
X15612Y3005*
X15713Y3087*
X15715Y3088*
X15717Y3089*
X15718*
X15721Y3090*
X15923*
X15925Y3089*
X15927*
X15928Y3088*
X15930Y3087*
X16031Y3005*
X16033Y3004*
X16034Y3002*
X16035Y2998*
X16034Y2994*
X16032Y2990*
X16029Y2987*
X16026Y2985*
X16021Y2984*
X16017Y2985*
X15919Y3065*
X15726*
X15632Y2990*
Y2919*
X16031Y2594*
X16033Y2593*
Y2592*
X16035Y2590*
X16036Y2586*
Y2584*
Y2502*
X16321Y24440D02*
X16176D01*
X16321*
X16430Y22560D02*
X16176D01*
X16430*
Y24324*
Y22560*
X16485Y21531D02*
Y21534D01*
Y21946*
Y21949*
X16484Y21951*
X16482Y21952*
Y21953*
X16481Y21955*
X16379Y22037*
X16377Y22038*
X16376Y22039*
X16375*
X16373Y22040*
X16170*
X16167Y22039*
X16166*
X16164Y22038*
X16163Y22037*
X16061Y21955*
X16059Y21952*
X16058Y21947*
Y21944*
X16059Y21941*
X16061Y21938*
X16064Y21936*
X16067Y21934*
X16070*
X16073*
X16076Y21935*
X16175Y22015*
X16368*
X16461Y21940*
Y21540*
X16368Y21464*
X16175*
X16076Y21544*
X16073Y21545*
X16070Y21546*
X16067Y21545*
X16064Y21544*
X16061Y21541*
X16059Y21538*
X16058Y21535*
Y21531*
X16059Y21527*
X16061Y21524*
X16163Y21442*
X16165Y21441*
X16166Y21440*
X16167*
X16168*
X16373*
X16377Y21441*
X16379Y21442*
X16480Y21524*
X16483Y21526*
X16484Y21529*
X16485Y21531*
Y21534D02*
Y21531D01*
X16484Y21529*
X16483Y21526*
X16480Y21524*
X16379Y21442*
X16377Y21441*
X16373Y21440*
X16168*
X16167*
X16166*
X16165Y21441*
X16163Y21442*
X16061Y21524*
X16059Y21527*
X16058Y21531*
Y21535*
X16059Y21538*
X16061Y21541*
X16064Y21544*
X16067Y21545*
X16070Y21546*
X16073Y21545*
X16076Y21544*
X16175Y21464*
X16368*
X16461Y21540*
Y21940*
X16368Y22015*
X16175*
X16076Y21935*
X16073Y21934*
X16070*
X16067*
X16064Y21936*
X16061Y21938*
X16059Y21941*
X16058Y21944*
Y21947*
X16059Y21952*
X16061Y21955*
X16163Y22037*
X16164Y22038*
X16166Y22039*
X16167*
X16170Y22040*
X16373*
X16375Y22039*
X16376*
X16377Y22038*
X16379Y22037*
X16481Y21955*
X16482Y21953*
Y21952*
X16484Y21951*
X16485Y21949*
Y21946*
Y21534*
X16602Y2497D02*
X16603Y2502D01*
Y2584*
Y2586*
X16602Y2590*
X16600Y2592*
Y2593*
X16598Y2594*
X16199Y2919*
Y2990*
X16293Y3065*
X16486*
X16584Y2985*
X16588Y2984*
X16593Y2985*
X16596Y2987*
X16599Y2990*
X16601Y2994*
X16602Y2998*
X16601Y3002*
X16600Y3004*
X16598Y3005*
X16497Y3087*
X16495Y3088*
X16494Y3089*
X16492*
X16490Y3090*
X16288*
X16285Y3089*
X16284*
X16282Y3088*
X16280Y3087*
X16179Y3005*
X16177Y3002*
Y3000*
X16176Y2998*
X16175Y2996*
Y2913*
X16176Y2911*
X16177Y2907*
Y2904*
X16179Y2903*
X16579Y2579*
Y2514*
X16187*
X16183Y2513*
X16179Y2511*
X16177Y2507*
Y2502*
Y2498*
X16179Y2493*
X16183Y2491*
X16187Y2490*
X16591*
X16596Y2491*
X16599Y2494*
X16602Y2497*
X16603Y2502D02*
X16602Y2497D01*
X16599Y2494*
X16596Y2491*
X16591Y2490*
X16187*
X16183Y2491*
X16179Y2493*
X16177Y2498*
Y2502*
Y2507*
X16179Y2511*
X16183Y2513*
X16187Y2514*
X16579*
Y2579*
X16179Y2903*
X16177Y2904*
Y2907*
X16176Y2911*
X16175Y2913*
Y2996*
X16176Y2998*
X16177Y3000*
Y3002*
X16179Y3005*
X16280Y3087*
X16282Y3088*
X16284Y3089*
X16285*
X16288Y3090*
X16490*
X16492Y3089*
X16494*
X16495Y3088*
X16497Y3087*
X16598Y3005*
X16600Y3004*
X16601Y3002*
X16602Y2998*
X16601Y2994*
X16599Y2990*
X16596Y2987*
X16593Y2985*
X16588Y2984*
X16584Y2985*
X16486Y3065*
X16293*
X16199Y2990*
Y2919*
X16598Y2594*
X16600Y2593*
Y2592*
X16602Y2590*
X16603Y2586*
Y2584*
Y2502*
X17169Y2581D02*
Y2584D01*
Y2996*
Y2999*
X17167Y3001*
X17166Y3002*
Y3003*
X17164Y3005*
X17063Y3087*
X17061Y3088*
X17059Y3089*
X17056Y3090*
X16854*
X16851Y3089*
X16850*
X16848Y3088*
X16846Y3087*
X16745Y3005*
X16743Y3002*
X16741Y2997*
X16742Y2994*
X16743Y2991*
X16745Y2988*
X16748Y2986*
X16751Y2984*
X16754*
X16757*
X16759Y2985*
X16858Y3065*
X17052*
X17145Y2990*
Y2590*
X17052Y2514*
X16858*
X16759Y2594*
X16757Y2595*
X16754Y2596*
X16751Y2595*
X16748Y2594*
X16745Y2591*
X16743Y2588*
X16742Y2585*
X16741Y2581*
X16743Y2577*
X16745Y2574*
X16846Y2492*
X16849Y2491*
Y2490*
X16851*
X16852*
X17056*
X17061Y2491*
X17063Y2492*
X17164Y2574*
X17167Y2576*
Y2579*
X17169Y2581*
Y2584D02*
Y2581D01*
X17167Y2579*
Y2576*
X17164Y2574*
X17063Y2492*
X17061Y2491*
X17056Y2490*
X16852*
X16851*
X16849*
Y2491*
X16846Y2492*
X16745Y2574*
X16743Y2577*
X16741Y2581*
X16742Y2585*
X16743Y2588*
X16745Y2591*
X16748Y2594*
X16751Y2595*
X16754Y2596*
X16757Y2595*
X16759Y2594*
X16858Y2514*
X17052*
X17145Y2590*
Y2990*
X17052Y3065*
X16858*
X16759Y2985*
X16757Y2984*
X16754*
X16751*
X16748Y2986*
X16745Y2988*
X16743Y2991*
X16742Y2994*
X16741Y2997*
X16743Y3002*
X16745Y3005*
X16846Y3087*
X16848Y3088*
X16850Y3089*
X16851*
X16854Y3090*
X17056*
X17059Y3089*
X17061Y3088*
X17063Y3087*
X17164Y3005*
X17166Y3003*
Y3002*
X17167Y3001*
X17169Y2999*
Y2996*
Y2584*
X17217Y4473D02*
X17218Y4477D01*
X17217Y4482*
X17215Y4486*
X17212Y4489*
X17208Y4490*
X16803*
X16800Y4489*
X16797Y4488*
X16794Y4486*
X16792Y4482*
X16791Y4480*
Y4475*
X16792Y4472*
X17116Y3896*
X17119Y3893*
X17122Y3892*
X17127*
X17131Y3893*
X17134Y3896*
X17137Y3899*
Y3904*
X17136Y3908*
X16823Y4465*
X17208*
X17212Y4466*
X17215Y4469*
X17217Y4473*
X17218Y4477D02*
X17217Y4473D01*
X17215Y4469*
X17212Y4466*
X17208Y4465*
X16823*
X17136Y3908*
X17137Y3904*
Y3899*
X17134Y3896*
X17131Y3893*
X17127Y3892*
X17122*
X17119Y3893*
X17116Y3896*
X16792Y4472*
X16791Y4475*
Y4480*
X16792Y4482*
X16794Y4486*
X16797Y4488*
X16800Y4489*
X16803Y4490*
X17208*
X17212Y4489*
X17215Y4486*
X17217Y4482*
X17218Y4477*
X17271Y1155D02*
X17593Y1478D01*
X17271*
Y1155*
X17475Y4202D02*
X17761D01*
Y4465*
X17475*
X17381Y4390*
Y4278*
X17475Y4202*
X17593Y1478D02*
X17271Y1155D01*
Y1478*
X17593*
X17634Y1484D02*
X17635Y1487D01*
X17634Y1490*
X17633Y1494*
X17631Y1497*
X17629Y1499*
X17627Y1501*
X17624Y1502*
X17271*
Y1530*
X17270Y1534*
X17267Y1538*
X17263Y1540*
X17258*
X17254*
X17250Y1538*
X17247Y1534*
X17246Y1530*
Y1502*
X17064*
X17060Y1501*
X17057Y1498*
X17055Y1493*
X17054Y1490*
X17055Y1486*
X17057Y1481*
X17060Y1478*
X17064*
X17246*
Y1125*
X17247Y1122*
X17248Y1120*
X17250Y1117*
X17253Y1116*
X17257Y1114*
X17261Y1113*
X17264Y1114*
X17268Y1117*
X17632Y1481*
X17634Y1484*
X17635Y1487D02*
X17634Y1484D01*
X17632Y1481*
X17268Y1117*
X17264Y1114*
X17261Y1113*
X17257Y1114*
X17253Y1116*
X17250Y1117*
X17248Y1120*
X17247Y1122*
X17246Y1125*
Y1478*
X17064*
X17060*
X17057Y1481*
X17055Y1486*
X17054Y1490*
X17055Y1493*
X17057Y1498*
X17060Y1501*
X17064Y1502*
X17246*
Y1530*
X17247Y1534*
X17250Y1538*
X17254Y1540*
X17258*
X17263*
X17267Y1538*
X17270Y1534*
X17271Y1530*
Y1502*
X17624*
X17627Y1501*
X17629Y1499*
X17631Y1497*
X17633Y1494*
X17634Y1490*
X17635Y1487*
X17652Y91D02*
Y94D01*
Y296*
Y299*
X17651Y300*
Y301*
X17650Y304*
X17568Y405*
X17565Y407*
X17560Y409*
X17557Y408*
X17554Y407*
X17551Y405*
X17549Y402*
X17547Y399*
X17546Y396*
Y393*
X17548Y391*
X17628Y292*
Y98*
X17552Y5*
X17153*
X17077Y98*
Y292*
X17157Y391*
X17159Y393*
Y396*
X17158Y399*
X17156Y402*
X17154Y405*
X17151Y407*
X17148Y408*
X17144Y409*
X17140Y407*
X17137Y405*
X17055Y304*
X17054Y301*
X17053*
Y298*
X17052*
Y94*
X17054Y89*
X17055Y87*
X17137Y-14*
X17139Y-17*
X17141*
X17144Y-19*
X17147*
X17558*
X17561*
X17564Y-17*
X17565Y-16*
X17566*
X17568Y-14*
X17650Y87*
X17651Y89*
Y91*
X17652*
Y658D02*
Y660D01*
Y862*
Y865*
X17651Y866*
Y868*
X17650Y870*
X17568Y971*
X17565Y973*
X17562*
X17561Y974*
X17558Y975*
X17476*
X17474Y974*
X17470Y973*
X17467*
X17466Y971*
X17141Y571*
X17077*
Y963*
X17076Y967*
X17073Y971*
X17069Y973*
X17064*
X17060*
X17056Y971*
X17054Y967*
X17052Y963*
Y559*
X17054Y554*
X17057Y551*
X17060Y548*
X17064Y547*
X17147*
X17148*
X17153Y548*
X17154Y550*
X17156*
X17157Y552*
X17482Y951*
X17552*
X17628Y857*
Y664*
X17548Y566*
X17547Y562*
Y557*
X17549Y554*
X17553Y551*
X17557Y549*
X17561Y548*
X17563*
X17565Y549*
X17567Y550*
X17568Y552*
X17650Y653*
X17651Y655*
Y656*
X17652Y658*
Y94D02*
Y91D01*
X17651*
Y89*
X17650Y87*
X17568Y-14*
X17566Y-16*
X17565*
X17564Y-17*
X17561Y-19*
X17558*
X17147*
X17144*
X17141Y-17*
X17139*
X17137Y-14*
X17055Y87*
X17054Y89*
X17052Y94*
Y298*
X17053*
Y301*
X17054*
X17055Y304*
X17137Y405*
X17140Y407*
X17144Y409*
X17148Y408*
X17151Y407*
X17154Y405*
X17156Y402*
X17158Y399*
X17159Y396*
Y393*
X17157Y391*
X17077Y292*
Y98*
X17153Y5*
X17552*
X17628Y98*
Y292*
X17548Y391*
X17546Y393*
Y396*
X17547Y399*
X17549Y402*
X17551Y405*
X17554Y407*
X17557Y408*
X17560Y409*
X17565Y407*
X17568Y405*
X17650Y304*
X17651Y301*
Y300*
X17652Y299*
Y296*
Y94*
Y660D02*
Y658D01*
X17651Y656*
Y655*
X17650Y653*
X17568Y552*
X17567Y550*
X17565Y549*
X17563Y548*
X17561*
X17557Y549*
X17553Y551*
X17549Y554*
X17547Y557*
Y562*
X17548Y566*
X17628Y664*
Y857*
X17552Y951*
X17482*
X17157Y552*
X17156Y550*
X17154*
X17153Y548*
X17148Y547*
X17147*
X17064*
X17060Y548*
X17057Y551*
X17054Y554*
X17052Y559*
Y963*
X17054Y967*
X17056Y971*
X17060Y973*
X17064*
X17069*
X17073Y971*
X17076Y967*
X17077Y963*
Y571*
X17141*
X17466Y971*
X17467Y973*
X17470*
X17474Y974*
X17476Y975*
X17558*
X17561Y974*
X17562Y973*
X17565*
X17568Y971*
X17650Y870*
X17651Y868*
Y866*
X17652Y865*
Y862*
Y660*
X17761Y4202D02*
X17475D01*
X17381Y4278*
Y4390*
X17475Y4465*
X17761*
Y4202*
X17780Y13764D02*
X17817Y13794D01*
X17528Y14268*
X17492Y14240*
Y13840*
X17586Y13764*
X17780*
X17785Y3897D02*
X17787Y3902D01*
Y4478*
X17785Y4482*
X17782Y4486*
X17779Y4489*
X17773Y4490*
X17471*
X17466Y4489*
X17463Y4487*
X17361Y4405*
Y4403*
X17359*
Y4402*
Y4400*
X17358Y4399*
X17357Y4396*
Y4272*
X17358Y4269*
X17359Y4266*
Y4263*
X17361Y4262*
X17457Y4186*
X17359Y3906*
X17358Y3901*
X17359Y3897*
X17362Y3894*
X17366Y3892*
X17370Y3891*
X17374Y3892*
X17379Y3894*
X17381Y3898*
X17479Y4178*
X17761*
Y3902*
X17763Y3897*
X17766Y3894*
X17770Y3892*
X17775*
X17779*
X17782Y3894*
X17785Y3897*
X17787Y3902D02*
X17785Y3897D01*
X17782Y3894*
X17779Y3892*
X17775*
X17770*
X17766Y3894*
X17763Y3897*
X17761Y3902*
Y4178*
X17479*
X17381Y3898*
X17379Y3894*
X17374Y3892*
X17370Y3891*
X17366Y3892*
X17362Y3894*
X17359Y3897*
X17358Y3901*
X17359Y3906*
X17457Y4186*
X17361Y4262*
X17359Y4263*
Y4266*
X17358Y4269*
X17357Y4272*
Y4396*
X17358Y4399*
X17359Y4400*
Y4402*
Y4403*
X17361*
Y4405*
X17463Y4487*
X17466Y4489*
X17471Y4490*
X17773*
X17779Y4489*
X17782Y4486*
X17785Y4482*
X17787Y4478*
Y3902*
X17817Y13794D02*
X17780Y13764D01*
X17586*
X17492Y13840*
Y14240*
X17528Y14268*
X17817Y13794*
X17837Y13810D02*
X17872Y13840D01*
Y14240*
X17780Y14315*
X17586*
X17546Y14283*
X17837Y13810*
X17872Y13840D02*
X17837Y13810D01*
X17546Y14283*
X17586Y14315*
X17780*
X17872Y14240*
Y13840*
X17896Y13832D02*
X17897Y13834D01*
Y14246*
X17896Y14248*
X17895Y14250*
X17894Y14252*
X17891Y14255*
X17790Y14337*
X17788Y14338*
X17787Y14339*
X17786*
X17783Y14340*
X17581*
X17579Y14339*
X17577*
X17576Y14338*
X17573Y14337*
X17472Y14255*
X17471Y14252*
X17470Y14250*
X17469Y14248*
X17468Y14246*
Y13834*
X17469Y13832*
X17470Y13828*
X17471Y13827*
X17472Y13824*
X17573Y13742*
X17576*
X17577Y13741*
X17578Y13740*
X17579*
X17783*
X17788Y13741*
X17790Y13742*
X17891Y13824*
X17893Y13826*
X17894*
X17895Y13828*
X17896Y13832*
X17897Y13834D02*
X17896Y13832D01*
X17895Y13828*
X17894Y13826*
X17893*
X17891Y13824*
X17790Y13742*
X17788Y13741*
X17783Y13740*
X17579*
X17578*
X17577Y13741*
X17576Y13742*
X17573*
X17472Y13824*
X17471Y13827*
X17470Y13828*
X17469Y13832*
X17468Y13834*
Y14246*
X17469Y14248*
X17470Y14250*
X17471Y14252*
X17472Y14255*
X17573Y14337*
X17576Y14338*
X17577Y14339*
X17579*
X17581Y14340*
X17783*
X17786Y14339*
X17787*
X17788Y14338*
X17790Y14337*
X17891Y14255*
X17894Y14252*
X17895Y14250*
X17896Y14248*
X17897Y14246*
Y13834*
X18074Y14810D02*
X17820D01*
Y15705*
Y14810*
X18074*
Y16690D02*
X17820D01*
Y15855*
Y16690*
X18074*
X18367Y14162D02*
X18365Y14158D01*
X18362Y14155*
X18359Y14153*
X18354Y14151*
X18352*
X18350Y14152*
X18347Y14156*
X18251Y14290*
Y13764*
X18356*
X18361Y13763*
X18364Y13761*
X18365Y13757*
X18366Y13752*
X18365Y13748*
X18364Y13743*
X18361Y13740*
X18356*
X18122*
X18118*
X18114Y13743*
X18113Y13748*
X18112Y13752*
X18113Y13757*
X18114Y13761*
X18118Y13763*
X18122Y13764*
X18228*
Y14328*
Y14332*
X18230Y14335*
X18231Y14336*
X18230Y14335*
X18228Y14332*
Y14328*
Y13764*
X18122*
X18118Y13763*
X18114Y13761*
X18113Y13757*
X18112Y13752*
X18113Y13748*
X18114Y13743*
X18118Y13740*
X18122*
X18356*
X18361*
X18364Y13743*
X18365Y13748*
X18366Y13752*
X18365Y13757*
X18364Y13761*
X18361Y13763*
X18356Y13764*
X18251*
Y14290*
X18347Y14156*
X18350Y14152*
X18352Y14151*
X18354*
X18359Y14153*
X18362Y14155*
X18365Y14158*
X18367Y14162*
Y14166*
X18366Y14168*
X18365Y14170*
X18248Y14334*
Y14335*
Y14334*
X18365Y14170*
X18366Y14168*
X18367Y14166*
Y14162*
X18680Y14810D02*
X18426D01*
X18680*
Y16690*
X18426*
X18680*
Y14810*
X19008Y13831D02*
Y13834D01*
Y14246*
Y14249*
X19007Y14251*
X19005Y14252*
Y14253*
X19004Y14255*
X18902Y14337*
X18900Y14338*
X18899Y14339*
X18898*
X18896Y14340*
X18693*
X18690Y14339*
X18689*
X18687Y14338*
X18686Y14337*
X18584Y14255*
X18582Y14252*
X18581Y14247*
Y14244*
X18582Y14241*
X18584Y14238*
X18587Y14236*
X18590Y14234*
X18593*
X18596*
X18599Y14235*
X18698Y14315*
X18891*
X18984Y14240*
Y13840*
X18891Y13764*
X18698*
X18599Y13844*
X18596Y13845*
X18593Y13846*
X18590Y13845*
X18587Y13844*
X18584Y13841*
X18582Y13838*
X18581Y13835*
Y13831*
X18582Y13827*
X18584Y13824*
X18686Y13742*
X18688Y13741*
X18689Y13740*
X18690*
X18691*
X18896*
X18900Y13741*
X18902Y13742*
X19003Y13824*
X19006Y13826*
X19007Y13829*
X19008Y13831*
Y13834D02*
Y13831D01*
X19007Y13829*
X19006Y13826*
X19003Y13824*
X18902Y13742*
X18900Y13741*
X18896Y13740*
X18691*
X18690*
X18689*
X18688Y13741*
X18686Y13742*
X18584Y13824*
X18582Y13827*
X18581Y13831*
Y13835*
X18582Y13838*
X18584Y13841*
X18587Y13844*
X18590Y13845*
X18593Y13846*
X18596Y13845*
X18599Y13844*
X18698Y13764*
X18891*
X18984Y13840*
Y14240*
X18891Y14315*
X18698*
X18599Y14235*
X18596Y14234*
X18593*
X18590*
X18587Y14236*
X18584Y14238*
X18582Y14241*
X18581Y14244*
Y14247*
X18582Y14252*
X18584Y14255*
X18686Y14337*
X18687Y14338*
X18689Y14339*
X18690*
X18693Y14340*
X18896*
X18898Y14339*
X18899*
X18900Y14338*
X18902Y14337*
X19004Y14255*
X19005Y14253*
Y14252*
X19007Y14251*
X19008Y14249*
Y14246*
Y13834*
X19130Y480D02*
X17870D01*
Y1020*
X18661*
X17870*
Y480*
X19130*
Y1020*
X19009*
X19130*
Y480*
Y5980D02*
X17870D01*
Y6520*
X18661*
X17870*
Y5980*
X19130*
Y6520*
X19009*
X19130*
Y5980*
X19154Y4820D02*
X18376D01*
X19154*
X19459Y7369D02*
X19511Y7385D01*
Y7668*
X19459Y7685*
X19282*
X19227Y7632*
Y7423*
X19282Y7369*
X19459*
X19511Y7385D02*
X19459Y7369D01*
X19282*
X19227Y7423*
Y7632*
X19282Y7685*
X19459*
X19511Y7668*
Y7385*
X19690Y4820D02*
X19446D01*
X19690*
Y5680*
X17810*
Y4820*
X18024*
X17810*
Y5680*
X19690*
Y4820*
X19723Y7369D02*
X19778Y7423D01*
Y7632*
X19723Y7685*
X19586*
X19535Y7668*
Y7385*
X19586Y7369*
X19723*
X19778Y7423D02*
X19723Y7369D01*
X19586*
X19535Y7385*
Y7668*
X19586Y7685*
X19723*
X19778Y7632*
Y7423*
X19799Y6956D02*
X19801Y6959D01*
Y6962*
X19800Y6965*
X19799Y6969*
X19798Y6972*
X19795Y6974*
X19790Y6975*
X19227*
Y7080*
X19226Y7084*
X19223Y7088*
X19219Y7090*
X19214*
X19210*
X19206Y7088*
X19203Y7084*
X19202Y7080*
Y6846*
X19203Y6841*
X19206Y6838*
X19210Y6837*
X19214*
X19219*
X19223Y6838*
X19226Y6841*
X19227Y6846*
Y6951*
X19753*
X19618Y6855*
X19615Y6852*
X19614Y6848*
X19615Y6844*
X19618Y6840*
X19621Y6837*
X19625Y6835*
X19627*
X19628*
X19631Y6836*
X19633Y6837*
X19797Y6954*
X19799Y6956*
X19801Y6959D02*
X19799Y6956D01*
X19797Y6954*
X19633Y6837*
X19631Y6836*
X19628Y6835*
X19627*
X19625*
X19621Y6837*
X19618Y6840*
X19615Y6844*
X19614Y6848*
X19615Y6852*
X19618Y6855*
X19753Y6951*
X19227*
Y6846*
X19226Y6841*
X19223Y6838*
X19219Y6837*
X19214*
X19210*
X19206Y6838*
X19203Y6841*
X19202Y6846*
Y7080*
X19203Y7084*
X19206Y7088*
X19210Y7090*
X19214*
X19219*
X19223Y7088*
X19226Y7084*
X19227Y7080*
Y6975*
X19790*
X19795Y6974*
X19798Y6972*
X19799Y6969*
X19800Y6965*
X19801Y6962*
Y6959*
X19802Y6304D02*
Y6307D01*
Y6509*
Y6512*
X19801Y6513*
Y6514*
X19800Y6517*
X19718Y6618*
X19715Y6621*
X19710Y6622*
X19707Y6621*
X19704Y6620*
X19701Y6618*
X19699Y6615*
X19697Y6612*
X19696Y6609*
Y6606*
X19698Y6604*
X19778Y6505*
Y6311*
X19702Y6219*
X19303*
X19227Y6311*
Y6505*
X19307Y6604*
X19309Y6606*
Y6609*
X19308Y6612*
X19306Y6615*
X19304Y6618*
X19301Y6620*
X19298Y6621*
X19294Y6622*
X19290Y6621*
X19287Y6618*
X19205Y6517*
X19204Y6514*
X19203*
Y6511*
X19202*
Y6307*
X19204Y6302*
X19205Y6300*
X19287Y6199*
X19289Y6196*
X19291*
X19294Y6195*
X19297Y6194*
X19708*
X19711Y6195*
X19714Y6196*
X19715Y6197*
X19716Y6198*
X19718Y6199*
X19800Y6300*
X19801Y6302*
Y6304*
X19802*
Y7413D02*
Y7414D01*
Y7637*
Y7639*
X19801Y7642*
X19799Y7645*
X19738Y7705*
X19734Y7708*
X19729Y7709*
X19583*
X19582Y7708*
X19581*
X19523Y7689*
X19466Y7708*
X19464*
X19462Y7709*
X19274*
X19273Y7708*
X19270*
X19268Y7705*
X19206Y7645*
X19204Y7642*
X19203Y7639*
X19202Y7637*
Y7414*
X19203Y7413*
X19204Y7411*
X19206Y7408*
X19268Y7348*
X19270Y7345*
X19273*
X19465*
X19466*
X19523Y7365*
X19581Y7345*
X19582*
X19732*
X19735*
X19738Y7348*
X19799Y7408*
X19801Y7411*
X19802Y7413*
Y6307D02*
Y6304D01*
X19801*
Y6302*
X19800Y6300*
X19718Y6199*
X19716Y6198*
X19715Y6197*
X19714Y6196*
X19711Y6195*
X19708Y6194*
X19297*
X19294Y6195*
X19291Y6196*
X19289*
X19287Y6199*
X19205Y6300*
X19204Y6302*
X19202Y6307*
Y6511*
X19203*
Y6514*
X19204*
X19205Y6517*
X19287Y6618*
X19290Y6621*
X19294Y6622*
X19298Y6621*
X19301Y6620*
X19304Y6618*
X19306Y6615*
X19308Y6612*
X19309Y6609*
Y6606*
X19307Y6604*
X19227Y6505*
Y6311*
X19303Y6219*
X19702*
X19778Y6311*
Y6505*
X19698Y6604*
X19696Y6606*
Y6609*
X19697Y6612*
X19699Y6615*
X19701Y6618*
X19704Y6620*
X19707Y6621*
X19710Y6622*
X19715Y6621*
X19718Y6618*
X19800Y6517*
X19801Y6514*
Y6513*
X19802Y6512*
Y6509*
Y6307*
Y7414D02*
Y7413D01*
X19801Y7411*
X19799Y7408*
X19738Y7348*
X19735Y7345*
X19732*
X19582*
X19581*
X19523Y7365*
X19466Y7345*
X19465*
X19273*
X19270*
X19268Y7348*
X19206Y7408*
X19204Y7411*
X19203Y7413*
X19202Y7414*
Y7637*
X19203Y7639*
X19204Y7642*
X19206Y7645*
X19268Y7705*
X19270Y7708*
X19273*
X19274Y7709*
X19462*
X19464Y7708*
X19466*
X19523Y7689*
X19581Y7708*
X19582*
X19583Y7709*
X19729*
X19734Y7708*
X19738Y7705*
X19799Y7645*
X19801Y7642*
X19802Y7639*
Y7637*
Y7414*
X20030Y8211D02*
X20122Y8287D01*
Y8440*
X20030Y8515*
X19836*
X19742Y8440*
Y8287*
X19836Y8211*
X20030*
X20055Y15358D02*
X20378D01*
X20055Y15680*
Y15358*
X20070Y6060D02*
X20930D01*
Y7940*
X20070*
Y6060*
Y13616D02*
Y14384D01*
Y13616*
X20122Y8287D02*
X20030Y8211D01*
X19836*
X19742Y8287*
Y8440*
X19836Y8515*
X20030*
X20122Y8440*
Y8287*
X20146Y8279D02*
X20147Y8281D01*
Y8446*
X20146Y8449*
X20145Y8451*
X20144Y8453*
X20143*
X20141Y8455*
X20040Y8537*
X20038Y8538*
X20037Y8539*
X20036*
X20033Y8540*
X19831*
X19829Y8539*
X19827*
X19826Y8538*
X19823Y8537*
X19722Y8455*
X19721Y8452*
X19720Y8450*
X19719Y8448*
X19718Y8446*
Y8034*
X19719Y8032*
X19720Y8028*
X19721Y8027*
X19722Y8024*
X19823Y7942*
X19826Y7941*
X19827Y7940*
X19829*
X20033*
X20038Y7941*
X20040Y7942*
X20141Y8024*
X20143Y8026*
X20144Y8027*
X20145Y8031*
X20144Y8035*
X20142Y8039*
X20139Y8042*
X20136Y8045*
X20132*
X20127Y8044*
X20030Y7964*
X19836*
X19742Y8040*
Y8255*
X19824Y8189*
X19826Y8188*
X19827*
X19829Y8187*
X20036*
X20039Y8188*
X20040Y8189*
X20141Y8271*
X20143Y8272*
X20144Y8273*
X20145Y8275*
X20146Y8279*
X20147Y8281D02*
X20146Y8279D01*
X20145Y8275*
X20144Y8273*
X20143Y8272*
X20141Y8271*
X20040Y8189*
X20039Y8188*
X20036Y8187*
X19829*
X19827Y8188*
X19826*
X19824Y8189*
X19742Y8255*
Y8040*
X19836Y7964*
X20030*
X20127Y8044*
X20132Y8045*
X20136*
X20139Y8042*
X20142Y8039*
X20144Y8035*
X20145Y8031*
X20144Y8027*
X20143Y8026*
X20141Y8024*
X20040Y7942*
X20038Y7941*
X20033Y7940*
X19829*
X19827*
X19826Y7941*
X19823Y7942*
X19722Y8024*
X19721Y8027*
X19720Y8028*
X19719Y8032*
X19718Y8034*
Y8446*
X19719Y8448*
X19720Y8450*
X19721Y8452*
X19722Y8455*
X19823Y8537*
X19826Y8538*
X19827Y8539*
X19829*
X19831Y8540*
X20033*
X20036Y8539*
X20037*
X20038Y8538*
X20040Y8537*
X20141Y8455*
X20143Y8453*
X20144*
X20145Y8451*
X20146Y8449*
X20147Y8446*
Y8281*
X20300Y5264D02*
X20354Y5319D01*
Y5497*
X20337Y5548*
X20055*
X20037Y5497*
Y5319*
X20091Y5264*
X20300*
X20337Y5572D02*
X20354Y5624D01*
Y5760*
X20300Y5815*
X20091*
X20037Y5760*
Y5624*
X20055Y5572*
X20337*
X20354Y5319D02*
X20300Y5264D01*
X20091*
X20037Y5319*
Y5497*
X20055Y5548*
X20337*
X20354Y5497*
Y5319*
Y5624D02*
X20337Y5572D01*
X20055*
X20037Y5624*
Y5760*
X20091Y5815*
X20300*
X20354Y5760*
Y5624*
X20355Y14940D02*
X20070D01*
Y14616*
Y14940*
X20355*
X20377Y5618D02*
X20378Y5619D01*
Y5769*
X20377Y5772*
X20374Y5775*
X20314Y5837*
X20312Y5839*
X20309*
X20307Y5840*
X20085*
X20083Y5839*
X20080*
X20077Y5837*
X20017Y5775*
X20015Y5771*
X20013Y5767*
Y5620*
X20014Y5619*
Y5618*
X20033Y5561*
X20014Y5503*
Y5501*
X20013Y5499*
Y5312*
X20014Y5310*
X20015Y5308*
X20017Y5305*
X20077Y5243*
X20080Y5241*
X20083Y5240*
X20085*
X20307*
X20309*
X20312Y5241*
X20314Y5243*
X20374Y5305*
X20377Y5308*
X20378Y5310*
Y5503*
X20377*
X20358Y5561*
X20377Y5618*
X20378Y5619D02*
X20377Y5618D01*
X20358Y5561*
X20377Y5503*
X20378*
Y5310*
X20377Y5308*
X20374Y5305*
X20314Y5243*
X20312Y5241*
X20309Y5240*
X20307*
X20085*
X20083*
X20080Y5241*
X20077Y5243*
X20017Y5305*
X20015Y5308*
X20014Y5310*
X20013Y5312*
Y5499*
X20014Y5501*
Y5503*
X20033Y5561*
X20014Y5618*
Y5619*
X20013Y5620*
Y5767*
X20015Y5771*
X20017Y5775*
X20077Y5837*
X20080Y5839*
X20083*
X20085Y5840*
X20307*
X20309Y5839*
X20312*
X20314Y5837*
X20374Y5775*
X20377Y5772*
X20378Y5769*
Y5619*
Y15358D02*
X20055D01*
Y15680*
X20378Y15358*
X20419Y15344D02*
X20420Y15348D01*
X20418Y15352*
X20416Y15355*
X20052Y15719*
X20049Y15722*
X20046*
X20042*
X20039Y15721*
X20036Y15719*
X20033Y15716*
X20031Y15714*
Y15711*
Y15358*
X20003*
X19998*
X19995Y15355*
X19993Y15350*
X19992Y15346*
X19993Y15341*
X19995Y15337*
X19998Y15335*
X20003Y15334*
X20031*
Y15152*
X20032Y15147*
X20035Y15144*
X20039Y15142*
X20043*
X20047*
X20051Y15144*
X20054Y15147*
X20055Y15152*
Y15334*
X20408*
X20411*
X20413Y15335*
X20415Y15337*
X20417Y15340*
X20419Y15344*
X20420Y15348D02*
X20419Y15344D01*
X20417Y15340*
X20415Y15337*
X20413Y15335*
X20411Y15334*
X20408*
X20055*
Y15152*
X20054Y15147*
X20051Y15144*
X20047Y15142*
X20043*
X20039*
X20035Y15144*
X20032Y15147*
X20031Y15152*
Y15334*
X20003*
X19998Y15335*
X19995Y15337*
X19993Y15341*
X19992Y15346*
X19993Y15350*
X19995Y15355*
X19998Y15358*
X20003*
X20031*
Y15711*
Y15714*
X20033Y15716*
X20036Y15719*
X20039Y15721*
X20042Y15722*
X20046*
X20049*
X20052Y15719*
X20416Y15355*
X20418Y15352*
X20420Y15348*
X20615Y8358D02*
X20617Y8362D01*
Y8366*
X20616Y8368*
X20615Y8370*
X20498Y8534*
X20496Y8537*
X20493Y8538*
X20490*
X20487Y8537*
X20483*
X20480Y8535*
X20478Y8532*
Y8528*
Y7964*
X20372*
X20368Y7963*
X20364Y7961*
X20363Y7957*
X20362Y7952*
X20363Y7948*
X20364Y7943*
X20368Y7940*
X20372*
X20606*
X20611*
X20614Y7943*
X20615Y7948*
X20616Y7952*
X20615Y7957*
X20614Y7961*
X20611Y7963*
X20606Y7964*
X20501*
Y8490*
X20597Y8356*
X20600Y8352*
X20602Y8351*
X20604*
X20609Y8353*
X20612Y8355*
X20615Y8358*
X20617Y8362D02*
X20615Y8358D01*
X20612Y8355*
X20609Y8353*
X20604Y8351*
X20602*
X20600Y8352*
X20597Y8356*
X20501Y8490*
Y7964*
X20606*
X20611Y7963*
X20614Y7961*
X20615Y7957*
X20616Y7952*
X20615Y7948*
X20614Y7943*
X20611Y7940*
X20606*
X20372*
X20368*
X20364Y7943*
X20363Y7948*
X20362Y7952*
X20363Y7957*
X20364Y7961*
X20368Y7963*
X20372Y7964*
X20478*
Y8528*
Y8532*
X20480Y8535*
X20483Y8537*
X20487*
X20490Y8538*
X20493*
X20496Y8537*
X20498Y8534*
X20615Y8370*
X20616Y8368*
X20617Y8366*
Y8362*
X20672Y5552D02*
X20959D01*
Y5815*
X20672*
X20579Y5740*
Y5628*
X20672Y5552*
X20675Y15452D02*
X20961D01*
Y15715*
X20675*
X20581Y15640*
Y15528*
X20675Y15452*
X20930Y6060D02*
X20070D01*
Y7940*
X20930*
Y6060*
Y13060D02*
X20070D01*
Y13384*
Y13060*
X20930*
Y14940*
X20645*
X20930*
Y13060*
X20959Y5552D02*
X20672D01*
X20579Y5628*
Y5740*
X20672Y5815*
X20959*
Y5552*
X20961Y15452D02*
X20675D01*
X20581Y15528*
Y15640*
X20675Y15715*
X20961*
Y15452*
X20983Y5247D02*
X20984Y5252D01*
Y5828*
X20983Y5832*
X20980Y5836*
X20976Y5839*
X20971Y5840*
X20669*
X20664Y5839*
X20661Y5837*
X20559Y5755*
X20558Y5753*
X20557*
X20556Y5752*
Y5750*
X20555Y5749*
Y5746*
Y5622*
Y5619*
X20556Y5616*
X20557Y5613*
X20559Y5612*
X20655Y5536*
X20556Y5256*
Y5251*
X20557Y5247*
X20560Y5244*
X20564Y5242*
X20568Y5241*
X20572Y5242*
X20576Y5244*
X20579Y5248*
X20677Y5528*
X20959*
Y5252*
X20960Y5247*
X20963Y5244*
X20967Y5242*
X20972*
X20976*
X20980Y5244*
X20983Y5247*
X20984Y5252D02*
X20983Y5247D01*
X20980Y5244*
X20976Y5242*
X20972*
X20967*
X20963Y5244*
X20960Y5247*
X20959Y5252*
Y5528*
X20677*
X20579Y5248*
X20576Y5244*
X20572Y5242*
X20568Y5241*
X20564Y5242*
X20560Y5244*
X20557Y5247*
X20556Y5251*
Y5256*
X20655Y5536*
X20559Y5612*
X20557Y5613*
X20556Y5616*
X20555Y5619*
Y5622*
Y5746*
Y5749*
X20556Y5750*
Y5752*
X20557Y5753*
X20558*
X20559Y5755*
X20661Y5837*
X20664Y5839*
X20669Y5840*
X20971*
X20976Y5839*
X20980Y5836*
X20983Y5832*
X20984Y5828*
Y5252*
X20987Y15152D02*
X20985Y15147D01*
X20982Y15144*
X20979Y15142*
X20975*
X20970*
X20966Y15144*
X20963Y15147*
X20961Y15152*
Y15428*
X20679*
X20610Y15231*
X20679Y15428*
X20961*
Y15152*
X20963Y15147*
X20966Y15144*
X20970Y15142*
X20975*
X20979*
X20982Y15144*
X20985Y15147*
X20987Y15152*
Y15728*
X20985Y15732*
X20982Y15736*
X20979Y15739*
X20973Y15740*
X20671*
X20666Y15739*
X20663Y15737*
X20561Y15655*
Y15653*
X20559*
Y15652*
Y15650*
X20558Y15649*
X20557Y15646*
Y15522*
X20558Y15519*
X20559Y15516*
Y15513*
X20561Y15512*
X20657Y15436*
X20589Y15243*
X20657Y15436*
X20561Y15512*
X20559Y15513*
Y15516*
X20558Y15519*
X20557Y15522*
Y15646*
X20558Y15649*
X20559Y15650*
Y15652*
Y15653*
X20561*
Y15655*
X20663Y15737*
X20666Y15739*
X20671Y15740*
X20973*
X20979Y15739*
X20982Y15736*
X20985Y15732*
X20987Y15728*
Y15152*
X21059Y16358D02*
X21061Y16362D01*
Y16366*
X21060Y16368*
X21059Y16370*
X20942Y16534*
X20940Y16537*
X20937Y16538*
X20934*
X20931Y16537*
X20927*
X20924Y16535*
X20922Y16532*
Y16528*
Y15964*
X20816*
X20812Y15963*
X20808Y15961*
X20806Y15957*
Y15952*
Y15948*
X20808Y15943*
X20812Y15940*
X20816*
X21050*
X21055*
X21058Y15943*
X21059Y15948*
X21060Y15952*
X21059Y15957*
X21058Y15961*
X21055Y15963*
X21050Y15964*
X20945*
Y16490*
X21041Y16356*
X21044Y16352*
X21046Y16351*
X21048*
X21052Y16353*
X21056Y16355*
X21059Y16358*
X21061Y16362D02*
X21059Y16358D01*
X21056Y16355*
X21052Y16353*
X21048Y16351*
X21046*
X21044Y16352*
X21041Y16356*
X20945Y16490*
Y15964*
X21050*
X21055Y15963*
X21058Y15961*
X21059Y15957*
X21060Y15952*
X21059Y15948*
X21058Y15943*
X21055Y15940*
X21050*
X20816*
X20812*
X20808Y15943*
X20806Y15948*
Y15952*
Y15957*
X20808Y15961*
X20812Y15963*
X20816Y15964*
X20922*
Y16528*
Y16532*
X20924Y16535*
X20927Y16537*
X20931*
X20934Y16538*
X20937*
X20940Y16537*
X20942Y16534*
X21059Y16370*
X21060Y16368*
X21061Y16366*
Y16362*
X21070Y9560D02*
X21930D01*
Y11440*
X21070*
Y9560*
X21105Y9293D02*
X21052Y9336D01*
X20859*
X20766Y9260*
Y8860*
X20859Y8785*
X21052*
X21105Y8827*
X21052Y8785*
X20859*
X20766Y8860*
Y9260*
X20859Y9336*
X21052*
X21105Y9293*
Y9325D02*
X21064Y9358D01*
X21062Y9359*
X21061Y9360*
X21059*
X21058*
X20854*
X20850Y9359*
X20848Y9358*
X20747Y9276*
X20744Y9274*
X20743Y9271*
X20742Y9269*
Y9266*
Y8854*
Y8851*
X20743Y8849*
X20745Y8847*
X20746Y8845*
X20848Y8763*
X20850Y8762*
X20851Y8761*
X20852*
X20854Y8760*
X21057*
X21060Y8761*
X21061*
X21063Y8762*
X21064Y8763*
X21105Y8796*
X21064Y8763*
X21063Y8762*
X21061Y8761*
X21060*
X21057Y8760*
X20854*
X20852Y8761*
X20851*
X20850Y8762*
X20848Y8763*
X20746Y8845*
X20745Y8847*
X20743Y8849*
X20742Y8851*
Y8854*
Y9266*
Y9269*
X20743Y9271*
X20744Y9274*
X20747Y9276*
X20848Y9358*
X20850Y9359*
X20854Y9360*
X21058*
X21059*
X21061*
X21062Y9359*
X21064Y9358*
X21105Y9325*
X21230Y6620D02*
X21770D01*
Y7880*
X21230*
Y6620*
Y13120D02*
X21770D01*
Y14380*
X21230*
Y13120*
X21258Y8031D02*
Y8034D01*
Y8446*
Y8449*
X21257Y8451*
X21255Y8452*
Y8453*
X21254Y8455*
X21152Y8537*
X21150Y8538*
X21149Y8539*
X21148*
X21146Y8540*
X20943*
X20940Y8539*
X20939*
X20937Y8538*
X20936Y8537*
X20834Y8455*
X20832Y8452*
X20831Y8447*
Y8444*
X20832Y8441*
X20834Y8438*
X20837Y8436*
X20840Y8434*
X20843*
X20846*
X20849Y8435*
X20948Y8515*
X21141*
X21234Y8440*
Y8040*
X21141Y7964*
X20948*
X20849Y8044*
X20846Y8045*
X20843Y8046*
X20840Y8045*
X20837Y8044*
X20834Y8041*
X20832Y8038*
X20831Y8035*
Y8031*
X20832Y8027*
X20834Y8024*
X20936Y7942*
X20938Y7941*
X20939Y7940*
X20940*
X20941*
X21146*
X21150Y7941*
X21152Y7942*
X21253Y8024*
X21256Y8026*
X21257Y8029*
X21258Y8031*
Y8034D02*
Y8031D01*
X21257Y8029*
X21256Y8026*
X21253Y8024*
X21152Y7942*
X21150Y7941*
X21146Y7940*
X20941*
X20940*
X20939*
X20938Y7941*
X20936Y7942*
X20834Y8024*
X20832Y8027*
X20831Y8031*
Y8035*
X20832Y8038*
X20834Y8041*
X20837Y8044*
X20840Y8045*
X20843Y8046*
X20846Y8045*
X20849Y8044*
X20948Y7964*
X21141*
X21234Y8040*
Y8440*
X21141Y8515*
X20948*
X20849Y8435*
X20846Y8434*
X20843*
X20840*
X20837Y8436*
X20834Y8438*
X20832Y8441*
X20831Y8444*
Y8447*
X20832Y8452*
X20834Y8455*
X20936Y8537*
X20937Y8538*
X20939Y8539*
X20940*
X20943Y8540*
X21146*
X21148Y8539*
X21149*
X21150Y8538*
X21152Y8537*
X21254Y8455*
X21255Y8453*
Y8452*
X21257Y8451*
X21258Y8449*
Y8446*
Y8034*
X21553Y21464D02*
X21645Y21540D01*
Y21693*
X21553Y21769*
X21359*
X21265Y21693*
Y21540*
X21359Y21464*
X21553*
X21574Y24440D02*
X21320D01*
Y22560*
X21574*
X21320*
Y24440*
X21574*
X21605Y16358D02*
X21607Y16362D01*
Y16366*
X21606Y16368*
X21605Y16370*
X21488Y16534*
X21486Y16537*
X21483Y16538*
X21480*
X21477Y16537*
X21473*
X21470Y16535*
X21468Y16532*
Y16528*
Y15964*
X21362*
X21358Y15963*
X21354Y15961*
X21352Y15957*
Y15952*
Y15948*
X21354Y15943*
X21358Y15940*
X21362*
X21596*
X21601*
X21604Y15943*
X21605Y15948*
X21606Y15952*
X21605Y15957*
X21604Y15961*
X21601Y15963*
X21596Y15964*
X21491*
Y16490*
X21587Y16356*
X21590Y16352*
X21592Y16351*
X21594*
X21598Y16353*
X21602Y16355*
X21605Y16358*
X21607Y16362D02*
X21605Y16358D01*
X21602Y16355*
X21598Y16353*
X21594Y16351*
X21592*
X21590Y16352*
X21587Y16356*
X21491Y16490*
Y15964*
X21596*
X21601Y15963*
X21604Y15961*
X21605Y15957*
X21606Y15952*
X21605Y15948*
X21604Y15943*
X21601Y15940*
X21596*
X21362*
X21358*
X21354Y15943*
X21352Y15948*
Y15952*
Y15957*
X21354Y15961*
X21358Y15963*
X21362Y15964*
X21468*
Y16528*
Y16532*
X21470Y16535*
X21473Y16537*
X21477*
X21480Y16538*
X21483*
X21486Y16537*
X21488Y16534*
X21605Y16370*
X21606Y16368*
X21607Y16366*
Y16362*
X21645Y21540D02*
X21553Y21464D01*
X21359*
X21265Y21540*
Y21693*
X21359Y21769*
X21553*
X21645Y21693*
Y21540*
X21669Y21532D02*
X21670Y21534D01*
Y21946*
X21669Y21949*
X21668Y21951*
X21667Y21952*
X21666Y21953*
X21664Y21955*
X21563Y22037*
X21561Y22038*
X21560Y22039*
X21559*
X21556Y22040*
X21354*
X21352Y22039*
X21350*
X21349Y22038*
X21346Y22037*
X21245Y21955*
X21243Y21952*
X21242Y21947*
Y21944*
X21244Y21941*
X21245Y21938*
X21248Y21936*
X21251Y21934*
X21254*
X21257*
X21260Y21935*
X21358Y22015*
X21553*
X21645Y21940*
Y21724*
X21563Y21791*
X21561*
X21560Y21792*
X21559*
Y21793*
X21556*
X21354*
X21352*
Y21792*
X21350*
X21349Y21791*
X21347*
X21245Y21709*
Y21707*
X21244*
X21243Y21706*
Y21705*
X21242Y21701*
X21241Y21699*
Y21534*
X21242Y21531*
X21243Y21529*
X21244Y21526*
X21245Y21524*
X21346Y21442*
X21349Y21441*
X21350Y21440*
X21352*
X21556*
X21561Y21441*
X21563Y21442*
X21664Y21524*
X21666Y21526*
X21667*
X21668Y21528*
X21669Y21532*
X21670Y21534D02*
X21669Y21532D01*
X21668Y21528*
X21667Y21526*
X21666*
X21664Y21524*
X21563Y21442*
X21561Y21441*
X21556Y21440*
X21352*
X21350*
X21349Y21441*
X21346Y21442*
X21245Y21524*
X21244Y21526*
X21243Y21529*
X21242Y21531*
X21241Y21534*
Y21699*
X21242Y21701*
X21243Y21705*
Y21706*
X21244Y21707*
X21245*
Y21709*
X21347Y21791*
X21349*
X21350Y21792*
X21352*
Y21793*
X21354*
X21556*
X21559*
Y21792*
X21560*
X21561Y21791*
X21563*
X21645Y21724*
Y21940*
X21553Y22015*
X21358*
X21260Y21935*
X21257Y21934*
X21254*
X21251*
X21248Y21936*
X21245Y21938*
X21244Y21941*
X21242Y21944*
Y21947*
X21243Y21952*
X21245Y21955*
X21346Y22037*
X21349Y22038*
X21350Y22039*
X21352*
X21354Y22040*
X21556*
X21559Y22039*
X21560*
X21561Y22038*
X21563Y22037*
X21664Y21955*
X21666Y21953*
X21667Y21952*
X21668Y21951*
X21669Y21949*
X21670Y21946*
Y21534*
X21770Y6620D02*
X21230D01*
Y7880*
X21770*
Y6620*
Y13120D02*
X21230D01*
Y14380*
X21770*
Y13120*
X21819Y4864D02*
X21857Y4894D01*
X21567Y5368*
X21532Y5340*
Y4940*
X21626Y4864*
X21819*
X21857Y4894D02*
X21819Y4864D01*
X21626*
X21532Y4940*
Y5340*
X21567Y5368*
X21857Y4894*
X21876Y4910D02*
X21912Y4940D01*
Y5340*
X21819Y5415*
X21626*
X21586Y5383*
X21876Y4910*
X21912Y4940D02*
X21876Y4910D01*
X21586Y5383*
X21626Y5415*
X21819*
X21912Y5340*
Y4940*
X21930Y9560D02*
X21070D01*
Y11440*
X21930*
Y9560*
X21936Y4932D02*
Y4934D01*
Y5346*
Y5348*
X21935Y5350*
X21934Y5352*
X21931Y5355*
X21830Y5437*
X21828Y5438*
X21827Y5439*
X21825*
X21823Y5440*
X21621*
X21618Y5439*
X21617*
X21615Y5438*
X21613Y5437*
X21512Y5355*
X21510Y5352*
Y5350*
X21509Y5348*
X21508Y5346*
Y4934*
X21509Y4932*
X21510Y4928*
Y4927*
X21512Y4924*
X21613Y4842*
X21615*
X21617Y4841*
X21618Y4840*
X21619*
X21823*
X21828Y4841*
X21830Y4842*
X21931Y4924*
X21933Y4926*
X21935Y4928*
X21936Y4932*
Y4934D02*
Y4932D01*
X21935Y4928*
X21933Y4926*
X21931Y4924*
X21830Y4842*
X21828Y4841*
X21823Y4840*
X21619*
X21618*
X21617Y4841*
X21615Y4842*
X21613*
X21512Y4924*
X21510Y4927*
Y4928*
X21509Y4932*
X21508Y4934*
Y5346*
X21509Y5348*
X21510Y5350*
Y5352*
X21512Y5355*
X21613Y5437*
X21615Y5438*
X21617Y5439*
X21618*
X21621Y5440*
X21823*
X21825Y5439*
X21827*
X21828Y5438*
X21830Y5437*
X21931Y5355*
X21934Y5352*
X21935Y5350*
X21936Y5348*
Y5346*
Y4934*
X22105Y8991D02*
X21970D01*
X21895Y9052*
X21970Y8991*
X22105*
X22106Y8967D02*
X21966D01*
X21964*
X21962Y8968*
X21960Y8969*
X21895Y9021*
X21960Y8969*
X21962Y8968*
X21964Y8967*
X21966*
X22106*
X22169Y8785D02*
X21895D01*
X22169*
X22180Y22560D02*
X21926D01*
X22180*
Y24440*
X21926*
X22180*
Y22560*
X22186Y8760D02*
X21895D01*
X22186*
X22227Y9285D02*
X22164Y9335D01*
X21970*
X21895Y9273*
X21970Y9335*
X22164*
X22227Y9285*
X22230Y6620D02*
X22770D01*
Y7880*
X22230*
Y6620*
X22235Y21531D02*
Y21534D01*
Y21946*
Y21949*
X22234Y21951*
X22232Y21952*
Y21953*
X22231Y21955*
X22129Y22037*
X22127Y22038*
X22126Y22039*
X22125*
X22123Y22040*
X21920*
X21917Y22039*
X21916*
X21914Y22038*
X21913Y22037*
X21811Y21955*
X21809Y21952*
X21808Y21947*
Y21944*
X21809Y21941*
X21811Y21938*
X21814Y21936*
X21817Y21934*
X21820*
X21823*
X21826Y21935*
X21925Y22015*
X22118*
X22211Y21940*
Y21540*
X22118Y21464*
X21925*
X21826Y21544*
X21823Y21545*
X21820Y21546*
X21817Y21545*
X21814Y21544*
X21811Y21541*
X21809Y21538*
X21808Y21535*
Y21531*
X21809Y21527*
X21811Y21524*
X21913Y21442*
X21915Y21441*
X21916Y21440*
X21917*
X21918*
X22123*
X22127Y21441*
X22129Y21442*
X22230Y21524*
X22233Y21526*
X22234Y21529*
X22235Y21531*
Y21534D02*
Y21531D01*
X22234Y21529*
X22233Y21526*
X22230Y21524*
X22129Y21442*
X22127Y21441*
X22123Y21440*
X21918*
X21917*
X21916*
X21915Y21441*
X21913Y21442*
X21811Y21524*
X21809Y21527*
X21808Y21531*
Y21535*
X21809Y21538*
X21811Y21541*
X21814Y21544*
X21817Y21545*
X21820Y21546*
X21823Y21545*
X21826Y21544*
X21925Y21464*
X22118*
X22211Y21540*
Y21940*
X22118Y22015*
X21925*
X21826Y21935*
X21823Y21934*
X21820*
X21817*
X21814Y21936*
X21811Y21938*
X21809Y21941*
X21808Y21944*
Y21947*
X21809Y21952*
X21811Y21955*
X21913Y22037*
X21914Y22038*
X21916Y22039*
X21917*
X21920Y22040*
X22123*
X22125Y22039*
X22126*
X22127Y22038*
X22129Y22037*
X22231Y21955*
X22232Y21953*
Y21952*
X22234Y21951*
X22235Y21949*
Y21946*
Y21534*
X22245Y9302D02*
X22176Y9358D01*
X22174Y9359*
X22173*
X22171Y9360*
X22170*
X21966*
X21964Y9359*
X21961*
X21960Y9358*
X21895Y9305*
X21960Y9358*
X21961Y9359*
X21964*
X21966Y9360*
X22170*
X22171*
X22173Y9359*
X22174*
X22176Y9358*
X22245Y9302*
X22248Y16031D02*
Y16034D01*
Y16446*
Y16449*
X22246Y16451*
X22245Y16452*
Y16453*
X22243Y16455*
X22142Y16537*
X22140Y16538*
X22138Y16539*
X22135Y16540*
X21933*
X21930Y16539*
X21929*
X21927Y16538*
X21925Y16537*
X21824Y16455*
X21822Y16452*
X21820Y16447*
X21821Y16444*
X21822Y16441*
X21824Y16438*
X21827Y16436*
X21830Y16434*
X21833*
X21836*
X21838Y16435*
X21937Y16515*
X22131*
X22224Y16440*
Y16040*
X22131Y15964*
X21937*
X21838Y16044*
X21836Y16045*
X21833Y16046*
X21830Y16045*
X21827Y16044*
X21824Y16041*
X21822Y16038*
X21821Y16035*
X21820Y16031*
X21822Y16027*
X21824Y16024*
X21925Y15942*
X21928Y15941*
Y15940*
X21930*
X21931*
X22135*
X22140Y15941*
X22142Y15942*
X22243Y16024*
X22246Y16026*
Y16029*
X22248Y16031*
Y16034D02*
Y16031D01*
X22246Y16029*
Y16026*
X22243Y16024*
X22142Y15942*
X22140Y15941*
X22135Y15940*
X21931*
X21930*
X21928*
Y15941*
X21925Y15942*
X21824Y16024*
X21822Y16027*
X21820Y16031*
X21821Y16035*
X21822Y16038*
X21824Y16041*
X21827Y16044*
X21830Y16045*
X21833Y16046*
X21836Y16045*
X21838Y16044*
X21937Y15964*
X22131*
X22224Y16040*
Y16440*
X22131Y16515*
X21937*
X21838Y16435*
X21836Y16434*
X21833*
X21830*
X21827Y16436*
X21824Y16438*
X21822Y16441*
X21821Y16444*
X21820Y16447*
X21822Y16452*
X21824Y16455*
X21925Y16537*
X21927Y16538*
X21929Y16539*
X21930*
X21933Y16540*
X22135*
X22138Y16539*
X22140Y16538*
X22142Y16537*
X22243Y16455*
X22245Y16453*
Y16452*
X22246Y16451*
X22248Y16449*
Y16446*
Y16034*
X22420Y15439D02*
X22419Y15435D01*
X22417Y15432*
X22415Y15430*
X22411Y15429*
X22408Y15428*
X22405Y15427*
X22402Y15428*
X22400Y15430*
X22302Y15509*
X22108*
X22015Y15433*
Y15240*
X22108Y15165*
X22302*
X22400Y15244*
X22404Y15246*
X22408*
X22412Y15244*
X22408Y15246*
X22404*
X22400Y15244*
X22302Y15165*
X22108*
X22015Y15240*
Y15433*
X22108Y15509*
X22302*
X22400Y15430*
X22402Y15428*
X22405Y15427*
X22408Y15428*
X22411Y15429*
X22415Y15430*
X22417Y15432*
X22419Y15435*
X22420Y15439*
Y15728*
X22418Y15732*
X22415Y15736*
X22412Y15739*
X22408Y15740*
X22003*
X21998Y15739*
X21995Y15736*
X21993Y15732*
X21992Y15727*
X21993Y15723*
X21995Y15719*
X21998Y15716*
X22003Y15715*
X22394*
Y15465*
X22313Y15531*
X22310Y15532*
X22309Y15533*
X22306*
X22104*
X22099Y15532*
X22096Y15531*
X21995Y15449*
X21994Y15448*
Y15447*
X21992Y15446*
Y15445*
X21991Y15442*
Y15439*
Y15234*
Y15232*
X21992Y15228*
X21993Y15227*
X21995Y15225*
X22096Y15142*
X22099Y15141*
X22100*
X22101Y15140*
X22102*
X22103*
X22306*
X22309Y15141*
X22311*
X22313Y15142*
X22322Y15150*
X22313Y15142*
X22311Y15141*
X22309*
X22306Y15140*
X22103*
X22102*
X22101*
X22100Y15141*
X22099*
X22096Y15142*
X21995Y15225*
X21993Y15227*
X21992Y15228*
X21991Y15232*
Y15234*
Y15439*
Y15442*
X21992Y15445*
Y15446*
X21994Y15447*
Y15448*
X21995Y15449*
X22096Y15531*
X22099Y15532*
X22104Y15533*
X22306*
X22309*
X22310Y15532*
X22313Y15531*
X22394Y15465*
Y15715*
X22003*
X21998Y15716*
X21995Y15719*
X21993Y15723*
X21992Y15727*
X21993Y15732*
X21995Y15736*
X21998Y15739*
X22003Y15740*
X22408*
X22412Y15739*
X22415Y15736*
X22418Y15732*
X22420Y15728*
Y15439*
X22502Y4847D02*
X22503Y4852D01*
Y4934*
Y4936*
X22502Y4940*
X22500Y4942*
Y4943*
X22498Y4944*
X22099Y5269*
Y5340*
X22193Y5415*
X22386*
X22484Y5335*
X22488Y5334*
X22493Y5335*
X22496Y5337*
X22499Y5340*
X22501Y5344*
X22502Y5348*
X22501Y5352*
X22500Y5354*
X22498Y5355*
X22397Y5437*
X22395Y5438*
X22394Y5439*
X22392*
X22390Y5440*
X22188*
X22185Y5439*
X22184*
X22182Y5438*
X22180Y5437*
X22079Y5355*
X22077Y5352*
Y5350*
X22076Y5348*
X22075Y5346*
Y5263*
X22076Y5261*
X22077Y5257*
Y5254*
X22079Y5253*
X22479Y4929*
Y4864*
X22087*
X22083Y4863*
X22079Y4861*
X22077Y4857*
Y4852*
Y4848*
X22079Y4843*
X22083Y4841*
X22087Y4840*
X22491*
X22496Y4841*
X22499Y4844*
X22502Y4847*
X22503Y4852D02*
X22502Y4847D01*
X22499Y4844*
X22496Y4841*
X22491Y4840*
X22087*
X22083Y4841*
X22079Y4843*
X22077Y4848*
Y4852*
Y4857*
X22079Y4861*
X22083Y4863*
X22087Y4864*
X22479*
Y4929*
X22079Y5253*
X22077Y5254*
Y5257*
X22076Y5261*
X22075Y5263*
Y5346*
X22076Y5348*
X22077Y5350*
Y5352*
X22079Y5355*
X22180Y5437*
X22182Y5438*
X22184Y5439*
X22185*
X22188Y5440*
X22390*
X22392Y5439*
X22394*
X22395Y5438*
X22397Y5437*
X22498Y5355*
X22500Y5354*
X22501Y5352*
X22502Y5348*
X22501Y5344*
X22499Y5340*
X22496Y5337*
X22493Y5335*
X22488Y5334*
X22484Y5335*
X22386Y5415*
X22193*
X22099Y5340*
Y5269*
X22498Y4944*
X22500Y4943*
Y4942*
X22502Y4940*
X22503Y4936*
Y4934*
Y4852*
X22675Y15452D02*
X22961D01*
Y15715*
X22675*
X22581Y15640*
Y15528*
X22675Y15452*
X22770Y6620D02*
X22230D01*
Y7880*
X22770*
Y6620*
X22930Y13060D02*
X22070D01*
Y14940*
X22355*
X22070*
Y13060*
X22930*
Y14940*
X22645*
X22930*
Y13060*
X22961Y15452D02*
X22675D01*
X22581Y15528*
Y15640*
X22675Y15715*
X22961*
Y15452*
X22987Y15152D02*
X22985Y15147D01*
X22982Y15144*
X22979Y15142*
X22975*
X22970*
X22966Y15144*
X22963Y15147*
X22961Y15152*
Y15428*
X22679*
X22610Y15231*
X22679Y15428*
X22961*
Y15152*
X22963Y15147*
X22966Y15144*
X22970Y15142*
X22975*
X22979*
X22982Y15144*
X22985Y15147*
X22987Y15152*
Y15728*
X22985Y15732*
X22982Y15736*
X22979Y15739*
X22973Y15740*
X22671*
X22666Y15739*
X22663Y15737*
X22561Y15655*
Y15653*
X22559*
Y15652*
Y15650*
X22558Y15649*
X22557Y15646*
Y15522*
X22558Y15519*
X22559Y15516*
Y15513*
X22561Y15512*
X22657Y15436*
X22589Y15243*
X22657Y15436*
X22561Y15512*
X22559Y15513*
Y15516*
X22558Y15519*
X22557Y15522*
Y15646*
X22558Y15649*
X22559Y15650*
Y15652*
Y15653*
X22561*
Y15655*
X22663Y15737*
X22666Y15739*
X22671Y15740*
X22973*
X22979Y15739*
X22982Y15736*
X22985Y15732*
X22987Y15728*
Y15152*
X23069Y4931D02*
Y4934D01*
Y5346*
Y5349*
X23067Y5351*
X23066Y5352*
Y5353*
X23064Y5355*
X22963Y5437*
X22961Y5438*
X22959Y5439*
X22956Y5440*
X22754*
X22751Y5439*
X22750*
X22748Y5438*
X22746Y5437*
X22645Y5355*
X22643Y5352*
X22641Y5347*
X22642Y5344*
X22643Y5341*
X22645Y5338*
X22648Y5336*
X22651Y5334*
X22654*
X22657*
X22659Y5335*
X22758Y5415*
X22952*
X23045Y5340*
Y4940*
X22952Y4864*
X22758*
X22659Y4944*
X22657Y4945*
X22654Y4946*
X22651Y4945*
X22648Y4944*
X22645Y4941*
X22643Y4938*
X22642Y4935*
X22641Y4931*
X22643Y4927*
X22645Y4924*
X22746Y4842*
X22749Y4841*
Y4840*
X22751*
X22752*
X22956*
X22961Y4841*
X22963Y4842*
X23064Y4924*
X23067Y4926*
Y4929*
X23069Y4931*
Y4934D02*
Y4931D01*
X23067Y4929*
Y4926*
X23064Y4924*
X22963Y4842*
X22961Y4841*
X22956Y4840*
X22752*
X22751*
X22749*
Y4841*
X22746Y4842*
X22645Y4924*
X22643Y4927*
X22641Y4931*
X22642Y4935*
X22643Y4938*
X22645Y4941*
X22648Y4944*
X22651Y4945*
X22654Y4946*
X22657Y4945*
X22659Y4944*
X22758Y4864*
X22952*
X23045Y4940*
Y5340*
X22952Y5415*
X22758*
X22659Y5335*
X22657Y5334*
X22654*
X22651*
X22648Y5336*
X22645Y5338*
X22643Y5341*
X22642Y5344*
X22641Y5347*
X22643Y5352*
X22645Y5355*
X22746Y5437*
X22748Y5438*
X22750Y5439*
X22751*
X22754Y5440*
X22956*
X22959Y5439*
X22961Y5438*
X22963Y5437*
X23064Y5355*
X23066Y5353*
Y5352*
X23067Y5351*
X23069Y5349*
Y5346*
Y4934*
X23145Y15947D02*
X23147Y15952D01*
Y16034*
X23146Y16036*
X23145Y16040*
X23144Y16042*
X23143Y16043*
X23141Y16044*
X22742Y16369*
Y16440*
X22836Y16515*
X23030*
X23127Y16435*
X23132Y16434*
X23136Y16435*
X23139Y16437*
X23142Y16440*
X23144Y16444*
X23145Y16448*
X23144Y16452*
X23143Y16454*
X23141Y16455*
X23040Y16537*
X23038Y16538*
X23037Y16539*
X23036*
X23033Y16540*
X22831*
X22829Y16539*
X22827*
X22826Y16538*
X22823Y16537*
X22722Y16455*
X22721Y16452*
X22720Y16450*
X22719Y16448*
X22718Y16446*
Y16363*
X22719Y16361*
X22720Y16357*
X22721Y16354*
X22722Y16353*
X23122Y16029*
Y15964*
X22730*
X22726Y15963*
X22722Y15961*
X22721Y15957*
X22720Y15952*
X22721Y15948*
X22722Y15943*
X22726Y15941*
X22730Y15940*
X23135*
X23139Y15941*
X23142Y15944*
X23145Y15947*
X23147Y15952D02*
X23145Y15947D01*
X23142Y15944*
X23139Y15941*
X23135Y15940*
X22730*
X22726Y15941*
X22722Y15943*
X22721Y15948*
X22720Y15952*
X22721Y15957*
X22722Y15961*
X22726Y15963*
X22730Y15964*
X23122*
Y16029*
X22722Y16353*
X22721Y16354*
X22720Y16357*
X22719Y16361*
X22718Y16363*
Y16446*
X22719Y16448*
X22720Y16450*
X22721Y16452*
X22722Y16455*
X22823Y16537*
X22826Y16538*
X22827Y16539*
X22829*
X22831Y16540*
X23033*
X23036Y16539*
X23037*
X23038Y16538*
X23040Y16537*
X23141Y16455*
X23143Y16454*
X23144Y16452*
X23145Y16448*
X23144Y16444*
X23142Y16440*
X23139Y16437*
X23136Y16435*
X23132Y16434*
X23127Y16435*
X23030Y16515*
X22836*
X22742Y16440*
Y16369*
X23141Y16044*
X23143Y16043*
X23144Y16042*
X23145Y16040*
X23146Y16036*
X23147Y16034*
Y15952*
X23230Y13120D02*
X23770D01*
Y14380*
X23230*
Y13120*
X23615Y16358D02*
X23617Y16362D01*
Y16366*
X23616Y16368*
X23615Y16370*
X23498Y16534*
X23496Y16537*
X23493Y16538*
X23490*
X23487Y16537*
X23483*
X23480Y16535*
X23478Y16532*
Y16528*
Y15964*
X23372*
X23368Y15963*
X23364Y15961*
X23363Y15957*
X23362Y15952*
X23363Y15948*
X23364Y15943*
X23368Y15940*
X23372*
X23606*
X23611*
X23614Y15943*
X23615Y15948*
X23616Y15952*
X23615Y15957*
X23614Y15961*
X23611Y15963*
X23606Y15964*
X23501*
Y16490*
X23597Y16356*
X23600Y16352*
X23602Y16351*
X23604*
X23609Y16353*
X23612Y16355*
X23615Y16358*
X23617Y16362D02*
X23615Y16358D01*
X23612Y16355*
X23609Y16353*
X23604Y16351*
X23602*
X23600Y16352*
X23597Y16356*
X23501Y16490*
Y15964*
X23606*
X23611Y15963*
X23614Y15961*
X23615Y15957*
X23616Y15952*
X23615Y15948*
X23614Y15943*
X23611Y15940*
X23606*
X23372*
X23368*
X23364Y15943*
X23363Y15948*
X23362Y15952*
X23363Y15957*
X23364Y15961*
X23368Y15963*
X23372Y15964*
X23478*
Y16528*
Y16532*
X23480Y16535*
X23483Y16537*
X23487*
X23490Y16538*
X23493*
X23496Y16537*
X23498Y16534*
X23615Y16370*
X23616Y16368*
X23617Y16366*
Y16362*
X23702Y5111D02*
X23794Y5187D01*
Y5340*
X23702Y5415*
X23508*
X23415Y5340*
Y5187*
X23508Y5111*
X23702*
X23770Y13120D02*
X23230D01*
Y14380*
X23770*
Y13120*
X23794Y5187D02*
X23702Y5111D01*
X23508*
X23415Y5187*
Y5340*
X23508Y5415*
X23702*
X23794Y5340*
Y5187*
X23818Y5179D02*
X23819Y5181D01*
Y5346*
X23818Y5349*
X23817Y5351*
X23816Y5353*
X23815*
X23814Y5355*
X23713Y5437*
X23710Y5438*
X23709Y5439*
X23708*
X23706Y5440*
X23503*
X23501Y5439*
X23500*
X23498Y5438*
X23496Y5437*
X23395Y5355*
X23393Y5352*
X23392Y5350*
X23391Y5348*
Y5346*
Y4934*
Y4932*
X23392Y4928*
X23393Y4927*
X23395Y4924*
X23496Y4842*
X23499Y4841*
Y4840*
X23501*
X23502*
X23706*
X23710Y4841*
X23713Y4842*
X23814Y4924*
X23815Y4926*
X23817Y4927*
Y4931*
Y4935*
X23815Y4939*
X23812Y4942*
X23808Y4945*
X23804*
X23800Y4944*
X23702Y4864*
X23508*
X23415Y4940*
Y5155*
X23496Y5089*
X23499Y5088*
X23501Y5087*
X23708*
X23712Y5088*
X23713Y5089*
X23814Y5171*
X23815Y5172*
X23816Y5173*
X23817Y5175*
X23818Y5179*
X23819Y5181D02*
X23818Y5179D01*
X23817Y5175*
X23816Y5173*
X23815Y5172*
X23814Y5171*
X23713Y5089*
X23712Y5088*
X23708Y5087*
X23501*
X23499Y5088*
X23496Y5089*
X23415Y5155*
Y4940*
X23508Y4864*
X23702*
X23800Y4944*
X23804Y4945*
X23808*
X23812Y4942*
X23815Y4939*
X23817Y4935*
Y4931*
Y4927*
X23815Y4926*
X23814Y4924*
X23713Y4842*
X23710Y4841*
X23706Y4840*
X23502*
X23501*
X23499*
Y4841*
X23496Y4842*
X23395Y4924*
X23393Y4927*
X23392Y4928*
X23391Y4932*
Y4934*
Y5346*
Y5348*
X23392Y5350*
X23393Y5352*
X23395Y5355*
X23496Y5437*
X23498Y5438*
X23500Y5439*
X23501*
X23503Y5440*
X23706*
X23708Y5439*
X23709*
X23710Y5438*
X23713Y5437*
X23814Y5355*
X23815Y5353*
X23816*
X23817Y5351*
X23818Y5349*
X23819Y5346*
Y5181*
X23930Y6060D02*
X23676D01*
X23930*
Y7940*
X23070*
Y6060*
X23324*
X23070*
Y7940*
X23930*
Y6060*
X24070D02*
X24930D01*
Y7940*
X24070*
Y6060*
Y9560D02*
X24930D01*
Y11440*
X24070*
Y9560*
X24075Y5152D02*
X24361D01*
Y5415*
X24075*
X23981Y5340*
Y5228*
X24075Y5152*
X24141Y12164D02*
X24052Y12236D01*
X23859*
X23832Y12214*
X23859Y12236*
X24052*
X24141Y12164*
X24152Y12187D02*
X24064Y12258D01*
X24062Y12259*
X24061Y12260*
X24059*
X24058*
X23854*
X23850Y12259*
X23848Y12258*
X23818Y12234*
X23848Y12258*
X23850Y12259*
X23854Y12260*
X24058*
X24059*
X24061*
X24062Y12259*
X24064Y12258*
X24152Y12187*
X24169Y11753D02*
X24168Y11748D01*
X24166Y11745*
X24064Y11663*
X24063Y11662*
X24061Y11661*
X24060*
X24057Y11660*
X23854*
X23852Y11661*
X23851*
X23850Y11662*
X23848Y11663*
X23778Y11719*
X23848Y11663*
X23850Y11662*
X23851Y11661*
X23852*
X23854Y11660*
X24057*
X24060Y11661*
X24061*
X24063Y11662*
X24064Y11663*
X24166Y11745*
X24168Y11748*
X24169Y11753*
Y11756*
X24168Y11759*
X24166Y11762*
X24163Y11764*
X24160Y11766*
X24157*
X24154*
X24151Y11765*
X24052Y11685*
X23859*
X23795Y11737*
X23859Y11685*
X24052*
X24151Y11765*
X24154Y11766*
X24157*
X24160*
X24163Y11764*
X24166Y11762*
X24168Y11759*
X24169Y11756*
Y11753*
X24258Y16031D02*
Y16034D01*
Y16446*
Y16449*
X24257Y16451*
X24255Y16452*
Y16453*
X24254Y16455*
X24152Y16537*
X24150Y16538*
X24149Y16539*
X24148*
X24146Y16540*
X23943*
X23940Y16539*
X23939*
X23937Y16538*
X23936Y16537*
X23834Y16455*
X23832Y16452*
X23831Y16447*
Y16444*
X23832Y16441*
X23834Y16438*
X23837Y16436*
X23840Y16434*
X23843*
X23846*
X23849Y16435*
X23948Y16515*
X24141*
X24234Y16440*
Y16040*
X24141Y15964*
X23948*
X23849Y16044*
X23846Y16045*
X23843Y16046*
X23840Y16045*
X23837Y16044*
X23834Y16041*
X23832Y16038*
X23831Y16035*
Y16031*
X23832Y16027*
X23834Y16024*
X23936Y15942*
X23938Y15941*
X23939Y15940*
X23940*
X23941*
X24146*
X24150Y15941*
X24152Y15942*
X24253Y16024*
X24256Y16026*
X24257Y16029*
X24258Y16031*
Y16034D02*
Y16031D01*
X24257Y16029*
X24256Y16026*
X24253Y16024*
X24152Y15942*
X24150Y15941*
X24146Y15940*
X23941*
X23940*
X23939*
X23938Y15941*
X23936Y15942*
X23834Y16024*
X23832Y16027*
X23831Y16031*
Y16035*
X23832Y16038*
X23834Y16041*
X23837Y16044*
X23840Y16045*
X23843Y16046*
X23846Y16045*
X23849Y16044*
X23948Y15964*
X24141*
X24234Y16040*
Y16440*
X24141Y16515*
X23948*
X23849Y16435*
X23846Y16434*
X23843*
X23840*
X23837Y16436*
X23834Y16438*
X23832Y16441*
X23831Y16444*
Y16447*
X23832Y16452*
X23834Y16455*
X23936Y16537*
X23937Y16538*
X23939Y16539*
X23940*
X23943Y16540*
X24146*
X24148Y16539*
X24149*
X24150Y16538*
X24152Y16537*
X24254Y16455*
X24255Y16453*
Y16452*
X24257Y16451*
X24258Y16449*
Y16446*
Y16034*
X24302Y15164D02*
X24394Y15240D01*
Y15393*
X24302Y15469*
X24108*
X24015Y15393*
Y15240*
X24108Y15164*
X24302*
X24361Y5152D02*
X24075D01*
X23981Y5228*
Y5340*
X24075Y5415*
X24361*
Y5152*
X24385Y4847D02*
X24387Y4852D01*
Y5428*
X24385Y5432*
X24382Y5436*
X24379Y5439*
X24373Y5440*
X24071*
X24066Y5439*
X24063Y5437*
X23961Y5355*
Y5353*
X23959*
Y5352*
Y5350*
X23958Y5349*
X23957Y5346*
Y5222*
X23958Y5219*
X23959Y5216*
Y5213*
X23961Y5212*
X24057Y5136*
X23959Y4856*
X23958Y4851*
X23959Y4847*
X23962Y4844*
X23966Y4842*
X23970Y4841*
X23974Y4842*
X23979Y4844*
X23981Y4848*
X24079Y5128*
X24361*
Y4852*
X24363Y4847*
X24366Y4844*
X24370Y4842*
X24375*
X24379*
X24382Y4844*
X24385Y4847*
X24387Y4852D02*
X24385Y4847D01*
X24382Y4844*
X24379Y4842*
X24375*
X24370*
X24366Y4844*
X24363Y4847*
X24361Y4852*
Y5128*
X24079*
X23981Y4848*
X23979Y4844*
X23974Y4842*
X23970Y4841*
X23966Y4842*
X23962Y4844*
X23959Y4847*
X23958Y4851*
X23959Y4856*
X24057Y5136*
X23961Y5212*
X23959Y5213*
Y5216*
X23958Y5219*
X23957Y5222*
Y5346*
X23958Y5349*
X23959Y5350*
Y5352*
Y5353*
X23961*
Y5355*
X24063Y5437*
X24066Y5439*
X24071Y5440*
X24373*
X24379Y5439*
X24382Y5436*
X24385Y5432*
X24387Y5428*
Y4852*
X24394Y15240D02*
X24302Y15164D01*
X24108*
X24015Y15240*
Y15393*
X24108Y15469*
X24302*
X24394Y15393*
Y15240*
X24418Y15232D02*
X24419Y15234D01*
Y15646*
X24418Y15649*
X24417Y15651*
X24416Y15652*
X24415Y15653*
X24414Y15655*
X24313Y15737*
X24310Y15738*
X24309Y15739*
X24308*
X24306Y15740*
X24103*
X24101Y15739*
X24100*
X24098Y15738*
X24096Y15737*
X23995Y15655*
X23992Y15652*
X23991Y15647*
X23992Y15644*
X23993Y15641*
X23995Y15638*
X23998Y15636*
X24001Y15634*
X24004*
X24007*
X24009Y15635*
X24108Y15715*
X24302*
X24394Y15640*
Y15424*
X24313Y15491*
X24310*
X24309Y15492*
Y15493*
X24306*
X24103*
X24101*
Y15492*
X24100*
X24098Y15491*
X24096*
X23995Y15409*
X23994Y15407*
X23993*
X23992Y15406*
Y15405*
X23991Y15401*
Y15399*
Y15234*
Y15231*
X23992Y15229*
X23993Y15226*
X23995Y15224*
X24096Y15142*
X24099Y15141*
Y15140*
X24101*
X24102*
X24306*
X24310Y15141*
X24313Y15142*
X24414Y15224*
X24415Y15226*
X24416*
X24417Y15228*
X24418Y15232*
X24419Y15234D02*
X24418Y15232D01*
X24417Y15228*
X24416Y15226*
X24415*
X24414Y15224*
X24313Y15142*
X24310Y15141*
X24306Y15140*
X24102*
X24101*
X24099*
Y15141*
X24096Y15142*
X23995Y15224*
X23993Y15226*
X23992Y15229*
X23991Y15231*
Y15234*
Y15399*
Y15401*
X23992Y15405*
Y15406*
X23993Y15407*
X23994*
X23995Y15409*
X24096Y15491*
X24098*
X24100Y15492*
X24101*
Y15493*
X24103*
X24306*
X24309*
Y15492*
X24310Y15491*
X24313*
X24394Y15424*
Y15640*
X24302Y15715*
X24108*
X24009Y15635*
X24007Y15634*
X24004*
X24001*
X23998Y15636*
X23995Y15638*
X23993Y15641*
X23992Y15644*
X23991Y15647*
X23992Y15652*
X23995Y15655*
X24096Y15737*
X24098Y15738*
X24100Y15739*
X24101*
X24103Y15740*
X24306*
X24308Y15739*
X24309*
X24310Y15738*
X24313Y15737*
X24414Y15655*
X24415Y15653*
X24416Y15652*
X24417Y15651*
X24418Y15649*
X24419Y15646*
Y15234*
X24675Y15452D02*
X24961D01*
Y15715*
X24675*
X24581Y15640*
Y15528*
X24675Y15452*
X24929Y8114D02*
X24967Y8144D01*
X24677Y8618*
X24642Y8590*
Y8190*
X24735Y8114*
X24929*
X24930Y6060D02*
X24070D01*
Y7940*
X24930*
Y6060*
Y9560D02*
X24070D01*
Y11440*
X24930*
Y9560*
Y13060D02*
X24676D01*
X24930*
Y14940*
X24070*
Y13060*
X24324*
X24070*
Y14940*
X24930*
Y13060*
X24961Y15452D02*
X24675D01*
X24581Y15528*
Y15640*
X24675Y15715*
X24961*
Y15452*
X24967Y8144D02*
X24929Y8114D01*
X24735*
X24642Y8190*
Y8590*
X24677Y8618*
X24967Y8144*
X24985Y15147D02*
X24987Y15152D01*
Y15728*
X24985Y15732*
X24982Y15736*
X24979Y15739*
X24973Y15740*
X24671*
X24666Y15739*
X24663Y15737*
X24561Y15655*
Y15653*
X24559*
Y15652*
Y15650*
X24558Y15649*
X24557Y15646*
Y15522*
X24558Y15519*
X24559Y15516*
Y15513*
X24561Y15512*
X24657Y15436*
X24559Y15156*
X24558Y15151*
X24559Y15147*
X24562Y15144*
X24566Y15142*
X24570Y15141*
X24574Y15142*
X24579Y15144*
X24581Y15148*
X24679Y15428*
X24961*
Y15152*
X24963Y15147*
X24966Y15144*
X24970Y15142*
X24975*
X24979*
X24982Y15144*
X24985Y15147*
X24986Y8160D02*
X25021Y8190D01*
Y8590*
X24929Y8665*
X24735*
X24696Y8633*
X24986Y8160*
X24987Y15152D02*
X24985Y15147D01*
X24982Y15144*
X24979Y15142*
X24975*
X24970*
X24966Y15144*
X24963Y15147*
X24961Y15152*
Y15428*
X24679*
X24581Y15148*
X24579Y15144*
X24574Y15142*
X24570Y15141*
X24566Y15142*
X24562Y15144*
X24559Y15147*
X24558Y15151*
X24559Y15156*
X24657Y15436*
X24561Y15512*
X24559Y15513*
Y15516*
X24558Y15519*
X24557Y15522*
Y15646*
X24558Y15649*
X24559Y15650*
Y15652*
Y15653*
X24561*
Y15655*
X24663Y15737*
X24666Y15739*
X24671Y15740*
X24973*
X24979Y15739*
X24982Y15736*
X24985Y15732*
X24987Y15728*
Y15152*
X25021Y8190D02*
X24986Y8160D01*
X24696Y8633*
X24735Y8665*
X24929*
X25021Y8590*
Y8190*
X25046Y8184D02*
X25045Y8182D01*
X25044Y8178*
X25043Y8176*
X25042*
X25041Y8174*
X24940Y8092*
X24937Y8091*
X24933Y8090*
X24729*
X24727*
Y8091*
X24725Y8092*
X24723*
X24622Y8174*
X24620Y8177*
X24619Y8178*
X24618Y8182*
Y8184*
Y8596*
Y8598*
X24619Y8600*
X24620Y8602*
X24622Y8605*
X24667Y8642*
X24622Y8605*
X24620Y8602*
X24619Y8600*
X24618Y8598*
Y8596*
Y8184*
Y8182*
X24619Y8178*
X24620Y8177*
X24622Y8174*
X24723Y8092*
X24725*
X24727Y8091*
Y8090*
X24729*
X24933*
X24937Y8091*
X24940Y8092*
X25041Y8174*
X25042Y8176*
X25043*
X25044Y8178*
X25045Y8182*
X25046Y8184*
Y8596*
X25045Y8598*
X25044Y8600*
Y8602*
X25041Y8605*
X24940Y8687*
X24937Y8688*
X24936Y8689*
X24935*
X24933Y8690*
X24745*
X24933*
X24935Y8689*
X24936*
X24937Y8688*
X24940Y8687*
X25041Y8605*
X25044Y8602*
Y8600*
X25045Y8598*
X25046Y8596*
Y8184*
X25258Y12007D02*
X25164Y11931D01*
X24970*
X24895Y11993*
X24970Y11931*
X25164*
X25258Y12007*
Y12160*
X25164Y12236*
X24970*
X24878Y12160*
Y12115*
Y12160*
X24970Y12236*
X25164*
X25258Y12160*
Y12007*
X25281Y11753D02*
Y11748D01*
X25278Y11745*
X25177Y11663*
X25174Y11662*
X25173Y11661*
X25172*
X25171*
X25169Y11660*
X24967*
X24964Y11661*
X24962Y11662*
X24960Y11663*
X24859Y11745*
X24858Y11747*
X24856*
X24855Y11749*
X24854Y11751*
X24853Y11754*
Y11824*
Y11754*
X24854Y11751*
X24855Y11749*
X24856Y11747*
X24858*
X24859Y11745*
X24960Y11663*
X24962Y11662*
X24964Y11661*
X24967Y11660*
X25169*
X25171Y11661*
X25172*
X25173*
X25174Y11662*
X25177Y11663*
X25278Y11745*
X25281Y11748*
Y11753*
Y11756*
X25279Y11759*
X25278Y11762*
X25275Y11764*
X25272Y11766*
X25269*
X25266*
X25263Y11765*
X25165Y11685*
X24970*
X24878Y11760*
Y11885*
Y11760*
X24970Y11685*
X25165*
X25263Y11765*
X25266Y11766*
X25269*
X25272*
X25275Y11764*
X25278Y11762*
X25279Y11759*
X25281Y11756*
Y11753*
X25282Y12001D02*
X25281Y11999D01*
X25280Y11995*
Y11994*
X25279Y11993*
X25278Y11992*
Y11991*
X25176Y11909*
X25174*
X25173Y11908*
X25171*
Y11907*
X25169*
X24967*
X24964*
Y11908*
X24963*
X24962Y11909*
X24960*
X24893Y11963*
X24960Y11909*
X24962*
X24963Y11908*
X24964*
Y11907*
X24967*
X25169*
X25171*
Y11908*
X25173*
X25174Y11909*
X25176*
X25278Y11991*
Y11992*
X25279Y11993*
X25280Y11994*
Y11995*
X25281Y11999*
X25282Y12001*
Y12166*
X25281Y12169*
X25280Y12171*
X25279Y12174*
X25278Y12176*
X25177Y12258*
X25174Y12259*
X25173Y12260*
X25171*
X25170*
X24967*
X24962Y12259*
X24960Y12258*
X24859Y12176*
X24858Y12174*
X24856*
X24855Y12172*
X24856Y12174*
X24858*
X24859Y12176*
X24960Y12258*
X24962Y12259*
X24967Y12260*
X25170*
X25171*
X25173*
X25174Y12259*
X25177Y12258*
X25278Y12176*
X25279Y12174*
X25280Y12171*
X25281Y12169*
X25282Y12166*
Y12001*
X25515Y8508D02*
X25516Y8512D01*
Y8516*
Y8518*
X25515Y8520*
X25398Y8684*
X25395Y8687*
X25393Y8688*
X25390*
X25387Y8687*
X25383*
X25380Y8685*
X25378Y8682*
X25377Y8678*
Y8114*
X25272*
X25267Y8113*
X25264Y8111*
X25262Y8107*
X25261Y8102*
X25262Y8098*
X25264Y8093*
X25267Y8090*
X25272*
X25506*
X25510*
X25513Y8093*
X25515Y8098*
Y8102*
Y8107*
X25513Y8111*
X25510Y8113*
X25506Y8114*
X25401*
Y8640*
X25497Y8506*
X25500Y8502*
X25501Y8501*
X25504*
X25508Y8503*
X25512Y8505*
X25515Y8508*
X25516Y8512D02*
X25515Y8508D01*
X25512Y8505*
X25508Y8503*
X25504Y8501*
X25501*
X25500Y8502*
X25497Y8506*
X25401Y8640*
Y8114*
X25506*
X25510Y8113*
X25513Y8111*
X25515Y8107*
Y8102*
Y8098*
X25513Y8093*
X25510Y8090*
X25506*
X25272*
X25267*
X25264Y8093*
X25262Y8098*
X25261Y8102*
X25262Y8107*
X25264Y8111*
X25267Y8113*
X25272Y8114*
X25377*
Y8678*
X25378Y8682*
X25380Y8685*
X25383Y8687*
X25387*
X25390Y8688*
X25393*
X25395Y8687*
X25398Y8684*
X25515Y8520*
X25516Y8518*
Y8516*
Y8512*
X25848Y8402D02*
X26134D01*
Y8665*
X25848*
X25754Y8590*
Y8478*
X25848Y8402*
X26134D02*
X25848D01*
X25754Y8478*
Y8590*
X25848Y8665*
X26134*
Y8402*
X26158Y8097D02*
X26160Y8102D01*
Y8678*
X26158Y8682*
X26155Y8686*
X26152Y8689*
X26146Y8690*
X25844*
X25839Y8689*
X25836Y8687*
X25734Y8605*
Y8603*
X25732*
Y8602*
Y8600*
X25731Y8599*
X25730Y8596*
Y8472*
X25731Y8469*
X25732Y8466*
Y8463*
X25734Y8462*
X25830Y8386*
X25732Y8106*
X25731Y8101*
X25732Y8097*
X25735Y8094*
X25739Y8092*
X25743Y8091*
X25747Y8092*
X25752Y8094*
X25754Y8098*
X25852Y8378*
X26134*
Y8102*
X26136Y8097*
X26139Y8094*
X26143Y8092*
X26148*
X26152*
X26155Y8094*
X26158Y8097*
X26160Y8102D02*
X26158Y8097D01*
X26155Y8094*
X26152Y8092*
X26148*
X26143*
X26139Y8094*
X26136Y8097*
X26134Y8102*
Y8378*
X25852*
X25754Y8098*
X25752Y8094*
X25747Y8092*
X25743Y8091*
X25739Y8092*
X25735Y8094*
X25732Y8097*
X25731Y8101*
X25732Y8106*
X25830Y8386*
X25734Y8462*
X25732Y8463*
Y8466*
X25731Y8469*
X25730Y8472*
Y8596*
X25731Y8599*
X25732Y8600*
Y8602*
Y8603*
X25734*
Y8605*
X25836Y8687*
X25839Y8689*
X25844Y8690*
X26146*
X26152Y8689*
X26155Y8686*
X26158Y8682*
X26160Y8678*
Y8102*
X27385Y5844D02*
Y5848D01*
Y5850*
Y5852*
X27383Y5854*
X27382Y5855*
X27280Y5937*
X27278Y5938*
X27277Y5939*
X27276*
X27274Y5940*
X27071*
X27068Y5939*
X27067*
X27066Y5938*
X27064Y5937*
X26962Y5855*
X26960Y5852*
Y5850*
X26959Y5848*
X26958Y5846*
Y5722*
X26959Y5720*
X26960Y5716*
Y5713*
X26962Y5712*
X27050Y5640*
X26962Y5568*
Y5567*
X26960Y5565*
Y5564*
X26959Y5559*
X26958Y5558*
Y5434*
X26959Y5431*
X26960Y5429*
Y5426*
X26962Y5424*
X27064Y5342*
X27066Y5341*
X27067Y5340*
X27068*
X27069*
X27274*
X27278Y5341*
X27280Y5342*
X27382Y5424*
X27383Y5426*
X27385Y5427*
Y5429*
Y5431*
Y5435*
X27382Y5439*
X27379Y5442*
X27376Y5445*
X27371*
X27367Y5444*
X27269Y5364*
X27076*
X26982Y5440*
Y5552*
X27074Y5628*
X27174*
X27179Y5629*
X27182Y5631*
X27184Y5636*
Y5640*
Y5644*
X27182Y5648*
X27179Y5651*
X27174Y5652*
X27074*
X26982Y5728*
Y5840*
X27076Y5915*
X27269*
X27367Y5835*
X27371Y5834*
X27376Y5835*
X27379Y5837*
X27382Y5840*
X27385Y5844*
Y5848D02*
Y5844D01*
X27382Y5840*
X27379Y5837*
X27376Y5835*
X27371Y5834*
X27367Y5835*
X27269Y5915*
X27076*
X26982Y5840*
Y5728*
X27074Y5652*
X27174*
X27179Y5651*
X27182Y5648*
X27184Y5644*
Y5640*
Y5636*
X27182Y5631*
X27179Y5629*
X27174Y5628*
X27074*
X26982Y5552*
Y5440*
X27076Y5364*
X27269*
X27367Y5444*
X27371Y5445*
X27376*
X27379Y5442*
X27382Y5439*
X27385Y5435*
Y5431*
Y5429*
Y5427*
X27383Y5426*
X27382Y5424*
X27280Y5342*
X27278Y5341*
X27274Y5340*
X27069*
X27068*
X27067*
X27066Y5341*
X27064Y5342*
X26962Y5424*
X26960Y5426*
Y5429*
X26959Y5431*
X26958Y5434*
Y5558*
X26959Y5559*
X26960Y5564*
Y5565*
X26962Y5567*
Y5568*
X27050Y5640*
X26962Y5712*
X26960Y5713*
Y5716*
X26959Y5720*
X26958Y5722*
Y5846*
X26959Y5848*
X26960Y5850*
Y5852*
X26962Y5855*
X27064Y5937*
X27066Y5938*
X27067Y5939*
X27068*
X27071Y5940*
X27274*
X27276Y5939*
X27277*
X27278Y5938*
X27280Y5937*
X27382Y5855*
X27383Y5854*
X27385Y5852*
Y5850*
Y5848*
X27588Y5364D02*
X27537D01*
X27533Y5363*
X27529Y5361*
X27527Y5357*
Y5352*
Y5348*
X27529Y5343*
X27533Y5341*
X27537Y5340*
X27574*
X27537*
X27533Y5341*
X27529Y5343*
X27527Y5348*
Y5352*
Y5357*
X27529Y5361*
X27533Y5363*
X27537Y5364*
X27588*
X27602Y5130D02*
X27480D01*
Y3870*
X27570*
X27480*
Y5130*
X27602*
X27953Y5352D02*
X27952Y5347D01*
X27949Y5344*
X27946Y5341*
X27941Y5340*
X27926*
X27941*
X27946Y5341*
X27949Y5344*
X27952Y5347*
X27953Y5352*
Y5434*
Y5436*
X27952Y5440*
X27950Y5442*
Y5443*
X27948Y5444*
X27549Y5769*
Y5840*
X27643Y5915*
X27836*
X27934Y5835*
X27938Y5834*
X27943Y5835*
X27946Y5837*
X27949Y5840*
X27951Y5844*
X27952Y5848*
X27951Y5852*
X27950Y5854*
X27948Y5855*
X27847Y5937*
X27845Y5938*
X27844Y5939*
X27842*
X27840Y5940*
X27638*
X27635Y5939*
X27634*
X27632Y5938*
X27630Y5937*
X27529Y5855*
X27527Y5852*
Y5850*
X27526Y5848*
X27525Y5846*
Y5763*
X27526Y5761*
X27527Y5757*
Y5754*
X27529Y5753*
X27929Y5429*
Y5364*
X27912*
X27929*
Y5429*
X27529Y5753*
X27527Y5754*
Y5757*
X27526Y5761*
X27525Y5763*
Y5846*
X27526Y5848*
X27527Y5850*
Y5852*
X27529Y5855*
X27630Y5937*
X27632Y5938*
X27634Y5939*
X27635*
X27638Y5940*
X27840*
X27842Y5939*
X27844*
X27845Y5938*
X27847Y5937*
X27948Y5855*
X27950Y5854*
X27951Y5852*
X27952Y5848*
X27951Y5844*
X27949Y5840*
X27946Y5837*
X27943Y5835*
X27938Y5834*
X27934Y5835*
X27836Y5915*
X27643*
X27549Y5840*
Y5769*
X27948Y5444*
X27950Y5443*
Y5442*
X27952Y5440*
X27953Y5436*
Y5434*
Y5352*
X28020Y3870D02*
X27930D01*
X28020*
Y5130*
X27898*
X28020*
Y3870*
X28519Y5431D02*
Y5434D01*
Y5846*
Y5849*
X28517Y5851*
X28516Y5852*
Y5853*
X28514Y5855*
X28413Y5937*
X28411Y5938*
X28409Y5939*
X28406Y5940*
X28204*
X28201Y5939*
X28200*
X28198Y5938*
X28196Y5937*
X28095Y5855*
X28093Y5852*
X28091Y5847*
X28092Y5844*
X28093Y5841*
X28095Y5838*
X28098Y5836*
X28101Y5834*
X28104*
X28107*
X28109Y5835*
X28208Y5915*
X28402*
X28495Y5840*
Y5440*
X28402Y5364*
X28208*
X28109Y5444*
X28107Y5445*
X28104Y5446*
X28101Y5445*
X28098Y5444*
X28095Y5441*
X28093Y5438*
X28092Y5435*
X28091Y5431*
X28093Y5427*
X28095Y5424*
X28196Y5342*
X28199Y5341*
Y5340*
X28201*
X28202*
X28406*
X28411Y5341*
X28413Y5342*
X28514Y5424*
X28517Y5426*
Y5429*
X28519Y5431*
Y5434D02*
Y5431D01*
X28517Y5429*
Y5426*
X28514Y5424*
X28413Y5342*
X28411Y5341*
X28406Y5340*
X28202*
X28201*
X28199*
Y5341*
X28196Y5342*
X28095Y5424*
X28093Y5427*
X28091Y5431*
X28092Y5435*
X28093Y5438*
X28095Y5441*
X28098Y5444*
X28101Y5445*
X28104Y5446*
X28107Y5445*
X28109Y5444*
X28208Y5364*
X28402*
X28495Y5440*
Y5840*
X28402Y5915*
X28208*
X28109Y5835*
X28107Y5834*
X28104*
X28101*
X28098Y5836*
X28095Y5838*
X28093Y5841*
X28092Y5844*
X28091Y5847*
X28093Y5852*
X28095Y5855*
X28196Y5937*
X28198Y5938*
X28200Y5939*
X28201*
X28204Y5940*
X28406*
X28409Y5939*
X28411Y5938*
X28413Y5937*
X28514Y5855*
X28516Y5853*
Y5852*
X28517Y5851*
X28519Y5849*
Y5846*
Y5434*
G54D11*
X25398Y15091D02*
X25434Y15141D01*
Y15428*
X25171*
Y15141*
X25209Y15090*
X25265Y15049*
X25339*
X25398Y15091*
X25434Y15141D02*
X25398Y15091D01*
X25339Y15049*
X25265*
X25209Y15090*
X25171Y15141*
Y15428*
X25434*
Y15141*
X25744Y14702D02*
X25745Y14707D01*
X25744Y14710*
X25742Y14713*
X25739Y14716*
X25734Y14717*
X25196*
X25331Y14805*
X25332Y14806*
X25334Y14808*
Y14810*
Y14812*
Y14815*
X25331Y14819*
X25328Y14822*
X25324Y14824*
X25320*
X25316Y14822*
X25151Y14715*
X25149Y14713*
X25148Y14710*
Y14708*
X25149Y14705*
Y14701*
X25151Y14698*
X25154Y14696*
X25158Y14695*
X25734*
X25739Y14696*
X25742Y14699*
X25744Y14702*
Y15436D02*
X25745Y15441D01*
X25744Y15445*
X25742Y15449*
X25739Y15452*
X25734Y15453*
X25158*
X25154Y15452*
X25151Y15449*
X25148Y15446*
X25146Y15441*
Y15138*
X25147Y15135*
X25148Y15133*
X25149Y15130*
X25190Y15073*
X25191*
X25193Y15071*
X25254Y15026*
X25256*
X25257Y15025*
X25259*
X25261*
X25346*
X25347*
X25349*
Y15026*
X25350*
X25351*
X25410Y15070*
X25414Y15072*
X25416Y15074*
X25457Y15130*
X25458Y15133*
Y15134*
Y15428*
X25734*
X25739Y15430*
X25742Y15432*
X25744Y15436*
X25745Y14707D02*
X25744Y14702D01*
X25742Y14699*
X25739Y14696*
X25734Y14695*
X25158*
X25154Y14696*
X25151Y14698*
X25149Y14701*
Y14705*
X25148Y14708*
Y14710*
X25149Y14713*
X25151Y14715*
X25316Y14822*
X25320Y14824*
X25324*
X25328Y14822*
X25331Y14819*
X25334Y14815*
Y14812*
Y14810*
Y14808*
X25332Y14806*
X25331Y14805*
X25196Y14717*
X25734*
X25739Y14716*
X25742Y14713*
X25744Y14710*
X25745Y14707*
Y15441D02*
X25744Y15436D01*
X25742Y15432*
X25739Y15430*
X25734Y15428*
X25458*
Y15134*
Y15133*
X25457Y15130*
X25416Y15074*
X25414Y15072*
X25410Y15070*
X25351Y15026*
X25350*
X25349*
Y15025*
X25347*
X25346*
X25261*
X25259*
X25257*
X25256Y15026*
X25254*
X25193Y15071*
X25191Y15073*
X25190*
X25149Y15130*
X25148Y15133*
X25147Y15135*
X25146Y15138*
Y15441*
X25148Y15446*
X25151Y15449*
X25154Y15452*
X25158Y15453*
X25734*
X25739Y15452*
X25742Y15449*
X25744Y15445*
X25745Y15441*
M02*
