*
G04 Job   : C:\MGTraining\projects\DEMO\PCB\DEMO.pcb*
G04 User  : FLO-JOES-LT2:joes*
G04 Layer : SolderPasteTop.gdo*
G04 Date  : Thu Jan 24 16:50:33 2008*
G04 VeriBest Example Gerber Output Definition*
%ICAS*%
%MOIN*%
%FSLAX24Y24*%
%OFA0.0000B0.0000*%
G90*
G74*
%AMVB_RECTANGLE*
21,1,$1,$2,0,0,$3*
%
%AMVB_OCTFINGER*
$4=$2/4.8284*
$1=$1/2*
$2=$2/2*
$5=$2-$4*
4,1,6,$1-$5,$2,$1,$4,$1,0-$4,$1-$5,0-$2,0-$1,0-$2,0-$1,$2,$1-$5,$2,$3*
%
%ADD10VB_RECTANGLE,0.02362X0.08661X90.00000*%
%ADD14VB_RECTANGLE,0.03150X0.10236X180.00000*%
%ADD11VB_RECTANGLE,0.03150X0.10236X90.00000*%
%ADD17VB_RECTANGLE,0.07087X0.06299X180.00000*%
%ADD18VB_RECTANGLE,0.07087X0.06299X90.00000*%
%ADD15VB_OCTFINGER,0.10236X0.03150X0.00000*%
%ADD16VB_OCTFINGER,0.10236X0.03150X90.00000*%
%ADD12VB_OCTFINGER,0.10236X0.03150X180.00000*%
%ADD13VB_OCTFINGER,0.10236X0.03150X270.00000*%
G01*
G54D10*
X2190Y18750D03*
Y19250D03*
Y19750D03*
Y20250D03*
Y20750D03*
Y21250D03*
Y21750D03*
Y22250D03*
Y22750D03*
Y23250D03*
Y23750D03*
Y24250D03*
X2595Y1500D03*
Y2000D03*
Y2500D03*
Y3000D03*
Y3500D03*
Y4000D03*
Y4500D03*
Y5000D03*
Y5500D03*
Y6000D03*
X2725Y13500D03*
Y14000D03*
Y14500D03*
Y15000D03*
Y15500D03*
Y16000D03*
Y16500D03*
X4775Y13500D03*
Y14000D03*
Y14500D03*
Y15000D03*
Y15500D03*
Y16000D03*
Y16500D03*
X5810Y18750D03*
Y19250D03*
Y19750D03*
Y20250D03*
Y20750D03*
Y21250D03*
Y21750D03*
Y22250D03*
Y22750D03*
Y23250D03*
Y23750D03*
Y24250D03*
X5905Y1500D03*
Y2000D03*
Y2500D03*
Y3000D03*
Y3500D03*
Y4000D03*
Y4500D03*
Y5000D03*
Y5500D03*
Y6000D03*
X8190Y18750D03*
Y19250D03*
Y19750D03*
Y20250D03*
Y20750D03*
Y21250D03*
Y21750D03*
Y22250D03*
Y22750D03*
Y23250D03*
Y23750D03*
Y24250D03*
X11810Y18750D03*
Y19250D03*
Y19750D03*
Y20250D03*
Y20750D03*
Y21250D03*
Y21750D03*
Y22250D03*
Y22750D03*
Y23250D03*
Y23750D03*
Y24250D03*
X13225Y13500D03*
Y14000D03*
Y14500D03*
Y15000D03*
Y15500D03*
Y16000D03*
Y16500D03*
X14190Y18750D03*
Y19250D03*
Y19750D03*
Y20250D03*
Y20750D03*
Y21250D03*
Y21750D03*
Y22250D03*
Y22750D03*
Y23250D03*
Y23750D03*
Y24250D03*
X14225Y2000D03*
Y2500D03*
Y3000D03*
Y3500D03*
Y4000D03*
Y4500D03*
Y5000D03*
Y7500D03*
Y8000D03*
Y8500D03*
Y9000D03*
Y9500D03*
Y10000D03*
Y10500D03*
X15275Y13500D03*
Y14000D03*
Y14500D03*
Y15000D03*
Y15500D03*
Y16000D03*
Y16500D03*
X16275Y2000D03*
Y2500D03*
Y3000D03*
Y3500D03*
Y4000D03*
Y4500D03*
Y5000D03*
Y7500D03*
Y8000D03*
Y8500D03*
Y9000D03*
Y9500D03*
Y10000D03*
Y10500D03*
X17225Y13500D03*
Y14000D03*
Y14500D03*
Y15000D03*
Y15500D03*
Y16000D03*
Y16500D03*
X17810Y18750D03*
Y19250D03*
Y19750D03*
Y20250D03*
Y20750D03*
Y21250D03*
Y21750D03*
Y22250D03*
Y22750D03*
Y23250D03*
Y23750D03*
Y24250D03*
X19275Y13500D03*
Y14000D03*
Y14500D03*
Y15000D03*
Y15500D03*
Y16000D03*
Y16500D03*
X19940Y18750D03*
Y19250D03*
Y19750D03*
Y20250D03*
Y20750D03*
Y21250D03*
Y21750D03*
Y22250D03*
Y22750D03*
Y23250D03*
Y23750D03*
Y24250D03*
X23560Y18750D03*
Y19250D03*
Y19750D03*
Y20250D03*
Y20750D03*
Y21250D03*
Y21750D03*
Y22250D03*
Y22750D03*
Y23250D03*
Y23750D03*
Y24250D03*
G54D11*
X7600Y14500D03*
Y15000D03*
Y15500D03*
X10900Y14500D03*
Y15000D03*
Y15500D03*
G54D12*
Y14000D03*
Y16000D03*
G54D13*
X8250Y16650D03*
X10250D03*
G54D14*
X8750Y13350D03*
Y16650D03*
X9250Y13350D03*
Y16650D03*
X9750Y13350D03*
Y16650D03*
G54D15*
X7600Y14000D03*
Y16000D03*
G54D16*
X8250Y13350D03*
X10250D03*
G54D17*
X500Y4950D03*
Y6050D03*
G54D18*
X25950Y22250D03*
X27050D03*
M02*
