*
G04 Job   : C:\MGTraining\projects\DEMO\PCB\DEMO.pcb*
G04 User  : FLO-JOES-LT2:joes*
G04 Layer : SoldermaskBottom.gdo*
G04 Date  : Thu Jan 24 16:50:33 2008*
G04 VeriBest Example Gerber Output Definition*
%ICAS*%
%MOIN*%
%FSLAX24Y24*%
%OFA0.0000B0.0000*%
G90*
G74*
%AMVB_RECTANGLE*
21,1,$1,$2,0,0,$3*
%
%ADD14C,0.03100*%
%ADD12C,0.04100*%
%ADD13C,0.04600*%
%ADD21C,0.07100*%
%ADD70C,0.07900*%
%ADD11C,0.08400*%
%ADD10C,0.11800*%
%ADD19C,0.31400*%
%ADD20VB_RECTANGLE,0.07100X0.07100X270.00000*%
%ADD71VB_RECTANGLE,0.07900X0.07900X270.00000*%
%ADD16VB_RECTANGLE,0.04535X0.04929X0.00000*%
%ADD17VB_RECTANGLE,0.04535X0.04929X270.00000*%
%ADD15VB_RECTANGLE,0.07685X0.06898X0.00000*%
%ADD18VB_RECTANGLE,0.07685X0.06898X90.00000*%
G01*
G36*
X-4250Y6750D02*
X-1470D01*
Y18750*
X-4250*
Y6750*
G37*
G54D10*
X30000Y1000D03*
Y24500D03*
G54D11*
X0Y0D03*
Y25500D03*
G54D12*
Y18000D03*
X320Y19340D03*
Y20000D03*
X1500D03*
X1527Y15205D03*
X2087Y14500D03*
Y16000D03*
X2410Y16823D03*
X2500Y11250D03*
X3000Y12500D03*
X3233Y2500D03*
X3500Y11250D03*
X5267Y4000D03*
X5475Y15405D03*
X5799Y16000D03*
X6000Y13000D03*
Y13500D03*
Y14000D03*
X6500Y11250D03*
Y12000D03*
X6543Y4000D03*
X7000Y12500D03*
X7500Y11250D03*
X8194Y17786D03*
X8252Y12560D03*
X8500Y14059D03*
X9000Y19750D03*
X9979Y14663D03*
X11172Y23750D03*
X11692Y14500D03*
Y15500D03*
X12500Y14000D03*
Y8000D03*
Y22250D03*
X12577Y15500D03*
X13000Y9500D03*
X13010Y3255D03*
X13587Y9500D03*
Y10000D03*
X13938Y13500D03*
X14250Y14605D03*
Y16895D03*
X15000Y8500D03*
Y20750D03*
Y21750D03*
X15305Y10895D03*
X16000Y12000D03*
Y13500D03*
Y14000D03*
Y15000D03*
Y16500D03*
X16500Y15500D03*
X16587Y16500D03*
X17000Y23750D03*
Y9500D03*
Y10500D03*
Y23000D03*
X17500Y9000D03*
Y17000D03*
X17938Y13500D03*
X18000Y18000D03*
X18250Y14605D03*
X18464Y19714D03*
X18500Y2040D03*
Y3960D03*
Y17500D03*
Y18750D03*
Y22250D03*
X19000Y17000D03*
X19668Y13149D03*
X21500Y12000D03*
X21786Y6206D03*
X22500Y9000D03*
X23408Y12639D03*
X23500Y9000D03*
Y12000D03*
X24500Y9000D03*
Y12000D03*
X28120Y13185D03*
Y15365D03*
G54D13*
X-1220Y7500D03*
Y8500D03*
X1134Y4950D03*
Y6050D03*
X1550Y10384D03*
X2903Y18750D03*
X3308Y1500D03*
X3438Y13500D03*
X3750Y14605D03*
Y16895D03*
X4000Y22355D03*
Y24645D03*
X4250Y3984D03*
Y6411D03*
X5192Y6000D03*
X5500Y16500D03*
X6523Y24250D03*
X8392Y15500D03*
X8903Y18750D03*
X10000Y22355D03*
Y24645D03*
X11692Y14500D03*
Y15500D03*
X12465Y5000D03*
X12523Y24250D03*
X13000Y3820D03*
X13500Y4080D03*
X13938Y13500D03*
X14250Y14605D03*
Y16895D03*
X14903Y18750D03*
X14938Y1935D03*
Y7500D03*
X15250Y3105D03*
Y5830D03*
X15255Y7935D03*
X15305Y10895D03*
X16000Y16500D03*
Y22355D03*
Y24645D03*
X17000Y5000D03*
Y10500D03*
X17938Y13500D03*
X18200Y4616D03*
X18250Y14605D03*
Y16895D03*
X18523Y24250D03*
X18835Y1227D03*
Y6727D03*
X20000Y16500D03*
X20653Y18750D03*
X21750Y22355D03*
Y24645D03*
X23500Y5855D03*
X24273Y24250D03*
X24500Y12855D03*
X25355Y22250D03*
X27645D03*
X27750Y3668D03*
G54D14*
X-1295Y10500D03*
Y11000D03*
Y11500D03*
Y12000D03*
Y12500D03*
Y13000D03*
Y14500D03*
Y16000D03*
Y16500D03*
Y17000D03*
Y17500D03*
Y18000D03*
X-847Y11245D03*
Y13745D03*
Y15245D03*
Y15745D03*
X0Y18000D03*
X320Y19340D03*
Y20000D03*
X697Y19500D03*
X1500Y16500D03*
Y20000D03*
X1687Y15743D03*
X1957Y3000D03*
X2000Y9000D03*
Y11500D03*
X2087Y14500D03*
Y15040D03*
Y16000D03*
X2410Y16823D03*
X3000Y12500D03*
Y19750D03*
Y20750D03*
Y21750D03*
X3233Y2500D03*
Y3500D03*
Y4500D03*
Y5500D03*
X4500Y2000D03*
X5000Y23750D03*
Y8000D03*
X5267Y4000D03*
X5475Y15405D03*
X5500Y13500D03*
X5799Y16000D03*
X6000Y13000D03*
Y13500D03*
Y14000D03*
X6500Y12000D03*
Y18750D03*
Y19250D03*
Y20250D03*
Y21250D03*
Y21750D03*
Y22250D03*
X6543Y1500D03*
Y2500D03*
Y3500D03*
Y4000D03*
Y4500D03*
X7000Y12500D03*
X7833Y12979D03*
X8210Y17381D03*
X8317Y14549D03*
X8500Y14059D03*
X8828Y23750D03*
Y24250D03*
X9000Y19750D03*
Y20750D03*
Y21750D03*
X9250Y17367D03*
X9943Y14067D03*
X11172Y23750D03*
X12250Y9000D03*
X12500Y14000D03*
Y8000D03*
Y20250D03*
Y21250D03*
Y22250D03*
Y25000D03*
X12577Y15500D03*
X13000Y9500D03*
X13010Y3255D03*
X13587Y9500D03*
Y10000D03*
X14828Y24250D03*
X15000Y8500D03*
Y20750D03*
Y21750D03*
X15500Y7500D03*
X16000Y12000D03*
Y13500D03*
Y14000D03*
Y15000D03*
X16500Y15500D03*
X16505Y24505D03*
X16587Y16500D03*
X17000Y23750D03*
Y9500D03*
Y23000D03*
X17089Y24130D03*
X17500Y9000D03*
Y17000D03*
X18000Y15780D03*
Y18000D03*
X18464Y19714D03*
Y21214D03*
Y21714D03*
X18500Y17500D03*
Y18750D03*
Y20250D03*
Y20750D03*
Y22250D03*
X19000Y17000D03*
X19300Y4691D03*
X19913Y13500D03*
Y14500D03*
X20500Y15070D03*
X20578Y20750D03*
X20603Y12372D03*
X22500Y15070D03*
X22922Y23750D03*
X27750Y5257D03*
G54D15*
X3750Y15200D03*
Y16300D03*
X4000Y22950D03*
Y24050D03*
X4250Y4700D03*
Y5800D03*
X9250Y14450D03*
Y15550D03*
X10000Y22950D03*
Y24050D03*
X13000Y1450D03*
Y2550D03*
X14250Y15200D03*
Y16300D03*
X15250Y3700D03*
Y4800D03*
Y9200D03*
Y10300D03*
X16000Y22950D03*
Y24050D03*
X18250Y15200D03*
Y16300D03*
X20500Y6450D03*
Y7550D03*
Y13450D03*
Y14550D03*
X21500Y9950D03*
Y11050D03*
X21750Y22950D03*
Y24050D03*
X22500Y13450D03*
Y14550D03*
X23500Y6450D03*
Y7550D03*
X24500Y6450D03*
Y7550D03*
Y9950D03*
Y11050D03*
Y13450D03*
Y14550D03*
G54D16*
X13000Y4415D03*
Y5085D03*
X21500Y6915D03*
Y7585D03*
Y13415D03*
Y14085D03*
X22500Y6915D03*
Y7585D03*
X23500Y13415D03*
Y14085D03*
X27750Y4165D03*
Y4835D03*
G54D17*
X18165Y750D03*
Y6250D03*
X18835Y750D03*
Y6250D03*
G54D18*
X450Y9750D03*
X1550D03*
X18200Y5250D03*
X19300D03*
G54D19*
X27560Y9900D03*
Y19740D03*
G54D20*
X500Y8250D03*
X9000Y10500D03*
X12000D03*
X21500Y9000D03*
X28750Y4250D03*
G54D21*
X500Y11250D03*
X1500Y8250D03*
Y11250D03*
X2500Y8250D03*
Y11250D03*
X3500Y8250D03*
Y11250D03*
X4500Y8250D03*
Y11250D03*
X5500Y8250D03*
Y11250D03*
X6500Y8250D03*
Y11250D03*
X7500Y8250D03*
Y11250D03*
X9000Y1500D03*
Y2500D03*
Y3500D03*
Y4500D03*
Y5500D03*
Y6500D03*
Y7500D03*
Y8500D03*
Y9500D03*
X12000Y1500D03*
Y2500D03*
Y3500D03*
Y4500D03*
Y5500D03*
Y6500D03*
Y7500D03*
Y8500D03*
Y9500D03*
X18500Y2040D03*
Y3960D03*
X21500Y12000D03*
X22500Y9000D03*
Y12000D03*
X23500Y9000D03*
Y12000D03*
X24500Y9000D03*
Y12000D03*
X28750Y6250D03*
X29750Y5250D03*
G54D70*
X27000Y12640D03*
Y13730D03*
Y14820D03*
Y15910D03*
X28120Y13185D03*
Y14275D03*
Y15365D03*
Y16455D03*
G54D71*
X27000Y17000D03*
M02*
