*
G04 Job   : C:\MGTraining\projects\DEMO\PCB\DEMO.pcb*
G04 User  : FLO-JOES-LT2:joes*
G04 Layer : SolderPasteBottom.gdo*
G04 Date  : Thu Jan 24 16:50:33 2008*
G04 VeriBest Example Gerber Output Definition*
%ICAS*%
%MOIN*%
%FSLAX24Y24*%
%OFA0.0000B0.0000*%
G90*
G74*
%AMVB_RECTANGLE*
21,1,$1,$2,0,0,$3*
%
%ADD11VB_RECTANGLE,0.03937X0.04331X0.00000*%
%ADD12VB_RECTANGLE,0.03937X0.04331X270.00000*%
%ADD10VB_RECTANGLE,0.07087X0.06299X0.00000*%
%ADD13VB_RECTANGLE,0.07087X0.06299X90.00000*%
G01*
G54D10*
X3750Y15200D03*
Y16300D03*
X4000Y22950D03*
Y24050D03*
X4250Y4700D03*
Y5800D03*
X9250Y14450D03*
Y15550D03*
X10000Y22950D03*
Y24050D03*
X13000Y1450D03*
Y2550D03*
X14250Y15200D03*
Y16300D03*
X15250Y3700D03*
Y4800D03*
Y9200D03*
Y10300D03*
X16000Y22950D03*
Y24050D03*
X18250Y15200D03*
Y16300D03*
X20500Y6450D03*
Y7550D03*
Y13450D03*
Y14550D03*
X21500Y9950D03*
Y11050D03*
X21750Y22950D03*
Y24050D03*
X22500Y13450D03*
Y14550D03*
X23500Y6450D03*
Y7550D03*
X24500Y6450D03*
Y7550D03*
Y9950D03*
Y11050D03*
Y13450D03*
Y14550D03*
G54D11*
X13000Y4415D03*
Y5085D03*
X21500Y6915D03*
Y7585D03*
Y13415D03*
Y14085D03*
X22500Y6915D03*
Y7585D03*
X23500Y13415D03*
Y14085D03*
X27750Y4165D03*
Y4835D03*
G54D12*
X18165Y750D03*
Y6250D03*
X18835Y750D03*
Y6250D03*
G54D13*
X450Y9750D03*
X1550D03*
X18200Y5250D03*
X19300D03*
M02*
